<svg id="Layer_1" data-name="Layer 1" xmlns="http://www.w3.org/2000/svg" xmlns:xlink="http://www.w3.org/1999/xlink" viewBox="0 0 1080 406.02"><defs><style>.cls-1{font-size:95.44px;fill:#7a8288;font-family:Arial-BoldMT, Arial;font-weight:700;}.cls-2,.cls-29{fill:#fff;}.cls-3{fill:#5d6f7a;}.cls-4{fill:#c3d4dd;}.cls-13,.cls-14,.cls-15,.cls-16,.cls-24,.cls-29,.cls-4{stroke:#636466;}.cls-13,.cls-14,.cls-15,.cls-16,.cls-17,.cls-18,.cls-19,.cls-20,.cls-21,.cls-24,.cls-25,.cls-26,.cls-29,.cls-34,.cls-35,.cls-38,.cls-4,.cls-41,.cls-42,.cls-44,.cls-5,.cls-6,.cls-7{stroke-linejoin:round;}.cls-5{fill:#009042;}.cls-25,.cls-5{stroke:#064926;}.cls-13,.cls-14,.cls-15,.cls-16,.cls-17,.cls-18,.cls-19,.cls-20,.cls-21,.cls-24,.cls-25,.cls-26,.cls-34,.cls-35,.cls-38,.cls-41,.cls-42,.cls-44,.cls-5,.cls-6,.cls-7{stroke-linecap:round;}.cls-6,.cls-7{fill:#e8b909;}.cls-18,.cls-19,.cls-20,.cls-21,.cls-35,.cls-44,.cls-6,.cls-7{stroke:#8e4a02;}.cls-6{stroke-width:2px;}.cls-17,.cls-19,.cls-21,.cls-25,.cls-26,.cls-7{stroke-width:0.5px;}.cls-8{fill:#ffe85e;}.cls-19,.cls-9{fill:#d3a809;}.cls-10{fill:#28903b;}.cls-11{fill:#ffd400;}.cls-12{fill:#0072bc;}.cls-13{fill:#8c8c8c;}.cls-14{fill:#636466;}.cls-15{fill:url(#linear-gradient);}.cls-16{fill:url(#linear-gradient-2);}.cls-17,.cls-18,.cls-37,.cls-38{fill:#dd954d;}.cls-17,.cls-26{stroke:#8d3803;}.cls-20,.cls-21,.cls-35{fill:#915a26;}.cls-22{fill:#666;}.cls-23{fill:#bcbec0;}.cls-24,.cls-44{fill:none;}.cls-25{fill:#9cb227;}.cls-26{fill:#b76e11;}.cls-27{fill:#f7941e;}.cls-28{fill:#ffd15e;}.cls-30{fill:#91672f;}.cls-31{fill:#9b6e33;}.cls-32{fill:#ba8440;}.cls-33{fill:#eea852;}.cls-34{fill:#4bb857;stroke:#2e7537;}.cls-35,.cls-38{stroke-width:0.75px;}.cls-36{fill:#7c3f00;}.cls-38{stroke:#905501;}.cls-39{fill:#bacad3;}.cls-40{fill:#ffd830;}.cls-41{fill:#d71920;}.cls-41,.cls-42{stroke:#8b0304;stroke-width:1.5px;}.cls-42{fill:#b11116;}.cls-43{fill:#f2c24b;}</style><linearGradient id="linear-gradient" x1="112.96" y1="316.86" x2="112.96" y2="341.86" gradientTransform="matrix(1, 0, 0, -1, 0, 546.06)" gradientUnits="userSpaceOnUse"><stop offset="0" stop-color="#636466"/><stop offset="0.01" stop-color="#656668"/><stop offset="0.16" stop-color="#838588"/><stop offset="0.31" stop-color="#9b9da0"/><stop offset="0.46" stop-color="#adafb2"/><stop offset="0.6" stop-color="#b8babc"/><stop offset="0.72" stop-color="#bcbec0"/><stop offset="1" stop-color="#dcddde"/></linearGradient><linearGradient id="linear-gradient-2" x1="185.07" y1="316.86" x2="185.07" y2="341.86" xlink:href="#linear-gradient"/></defs><title>Dinas Pariwisata SulSel</title><text class="cls-1" transform="translate(280.08 199.8)">Dinas Pariwisata</text><text class="cls-1" transform="translate(311.95 291.06)">Provinsi SulSel</text><g id="g18228"><path id="path15449" class="cls-2" d="M153.63,339.26c30.9,0,49.75-13.36,49.75-13.36s2.78,4,4,4.35,3.4-.62,3.4-.62c14.52-5.28,39.55-34.45,41.71-38.49s2.67-9.93,2.67-9.93l-14.1-.31s.07-18.31.07-20.8-5.32-3.73-5.32-3.73c22.25-25.45,36.15-74.81,7.11-118.26S162.87,81,162.87,81l.62-10.55L152.32,76,148.54,68h-1.13l-4.18,8.38-11.7-7.14,0,12.42S83,94.65,53.92,138.11,38.78,230.92,61,256.37c0,0-4.68,1.24-4.68,3.73s.71,20.8.71,20.8l-15.38.31s.51,5.9,2.67,9.93,27.19,33.21,41.71,38.49c0,0,2.16.93,3.4.62s4-4.35,4-4.35,18.85,13.36,49.75,13.36Z"/><path id="path15451" class="cls-3" d="M94.2,159c.23-.08,7-6.25,12.49-11.72s7.48-7.79,11.26-8.41a13.46,13.46,0,0,1,6.63.54s9.49-11.41,11.34-13.73,7.38-7.54,9.26-8.25c1.6-.6,2.39,0,3.39.54a116.57,116.57,0,0,1,14,13.11c3.77,4.37,14.73,14.35,14.73,14.35a4.73,4.73,0,0,1,4.86-1.31c3.24.77,11.65,6.4,16.27,11s6,5.63,6.63,5.86-1.7.69-3-.08-8.1-8.41-11.57-10.72-8.64-5.24-10-4.47-2.55,2.7-3.32,2.55a1.64,1.64,0,0,1-1.08-.69s-13.67-14.71-22.13-22.29c-2.24-2-7.39-6.06-8.77-5.89-2.15.27-9.5,8.51-11.51,11.21s-8.48,10.33-8.87,11.41a7.83,7.83,0,0,0-8.18.23,56.47,56.47,0,0,0-11.8,10.18c-2.55,2.93-5.63,6.25-7.1,6.79A5.88,5.88,0,0,1,94.2,159Z"/><path id="path15453" class="cls-3" d="M89.19,166.37s7.56-4.24,12.49-2.39a26.3,26.3,0,0,1,8.41,5.32,10.34,10.34,0,0,1,9.56-4.47c6.56.54,9,3,9,3s8.79-13.73,21.83-11.65a29.38,29.38,0,0,1,19.2,11.72s4.7-4.47,9.95-3.32a17.34,17.34,0,0,1,8.33,4.47s6.09-6.25,11.65-5.71a20.34,20.34,0,0,1,9.49,3.55l-1.31.93s-5.63-3.32-9.18-2.78a16.74,16.74,0,0,0-8.71,4.86,14.8,14.8,0,0,1-1.62,1.85s-5.24-6.17-11-5-8.33,3.78-8.33,3.78-8.56-12.57-19.2-12.8-20.9,12.65-20.9,12.65-5.94-4.86-10.64-3.55-8.41,5.63-8.41,5.63-5.4-7.17-10.26-7a37.2,37.2,0,0,0-8.95,1.7A3.53,3.53,0,0,1,89.19,166.37Z"/><g id="g15455"><g id="g15457"><path id="path15459" class="cls-4" d="M196.7,102.52a3.79,3.79,0,0,0-5.94-3,3.79,3.79,0,0,0-6.28-1.94c-3.66-3-7.07-4.3-8.43-3s-.37,4.38,2,8a3.78,3.78,0,0,0,2.48,7.06A3.79,3.79,0,1,0,187.6,112c2.54,1.54,4.69,2,5.7,1.09s.56-3.64-1.21-6.69a3.78,3.78,0,0,0,4.6-3.86Z"/><path id="path15461" class="cls-5" d="M179.15,118.21s-.59-2.74,1.6-3.52a10,10,0,0,1,4.27-.48s-.76-3.57,1.41-4.89,4.44.39,4.44.39-.88-3.46.68-4.6a5.21,5.21,0,0,1,3.26-1s.72-4.79,4.76-3.65a4.08,4.08,0,0,0-.34,4.77c1.64,2.46,4.37,7.41,3.61,11.13s-4.45,7.32-9.09,6.36-9.16-6.22-11.3-6.13A4.6,4.6,0,0,0,179.15,118.21Z"/><path id="path15463" class="cls-2" d="M176.83,95.78c.07-.42,3.27-.26,5,1.54s2.58,2,2.58,2,2-2,3.31-1.3A6.58,6.58,0,0,1,190,100.8s2.09-1.62,3.3-.47,1.24,1.78,0,1.87-1.71-.14-2.17.71-1,1.54-1.69,1.4-1.51.77-1.61,1.31-.37,1.05-.78,1.15-.81-.59-1.74.16-2.18,1.63-2.11,2.29-1.29-.94-.29-1.94,1.91-1.91,1.21-2a8.32,8.32,0,0,0-2.23.22c-.78.12-3.84.58-3.56-.56a3.34,3.34,0,0,1,2-2,9.66,9.66,0,0,0,2.1-1.38c.11-.25-1.48-.69-2.85-1.63s-1-2.2-1.11-2.74S176.83,95.78,176.83,95.78Z"/></g><g id="g15465"><path id="path15467" class="cls-4" d="M198.56,122.65s-3-6.22-.94-7.35,6.31,1,6.31,1,.09-4.52,2-4.71,4,4.71,4,4.71,2.26-3.39,4.24-3.3,1.7,9,.57,12.15-6.78,5.93-9.14,6.22a36.12,36.12,0,0,1-9-.66c-1-.38-.94-.85-.94-1.41s3.67-2.45,3.67-2.45-5.93-1.41-5.56-3S198.56,122.65,198.56,122.65Z"/><path id="path15469" class="cls-5" d="M208.74,126.42s-.19-3.39,1.41-4a15.15,15.15,0,0,1,4.71-.57s1-4.24,3.77-4.52c.38,1.88-.75,5.27-.47,8.85s-.09,8.38-2.35,9.51-9.32.28-11.49-.28-5.37-1.32-7-.47c0,0,2.07-3.11,4-3.67a11.88,11.88,0,0,1,2.64-.57,2.1,2.1,0,0,1-.38-3C205,126,208.74,126.42,208.74,126.42Z"/><path id="path15471" class="cls-2" d="M198.28,116.72c.64-.74,2.72-.92,4.17.07a24.94,24.94,0,0,1,2.68,2.15,10.54,10.54,0,0,1,0-3.29c.32-1.2.71-2.54.71-2.54s1,3.67,1.17,4.66,1.13,1.84,1.34,1.7a16.82,16.82,0,0,0,2.68-2.93,7.27,7.27,0,0,1,2.54-2.19c.21-.07-.85,3.22-1.1,4.49s0,1.34,0,1.34-2.79.25-4,1.45a13.54,13.54,0,0,0-2,2.76s-2.9.81-3.78,2-.53,1.8-2.12,2.4a12.68,12.68,0,0,1-3.92.67c.14-.07,2.86-1.59,3.89-2.37a2.36,2.36,0,0,0,1.06-1.59,16.94,16.94,0,0,0-4-1.17,7.68,7.68,0,0,1-2.47-.53,5,5,0,0,1,3.18-.46c2.23.21,3.43.35,3.43.35a7.84,7.84,0,0,1-1.87-2.15c-.67-1.24.39-1.84.14-2.47A16,16,0,0,0,198.28,116.72Z"/></g><g id="g15473"><path id="path15475" class="cls-4" d="M211.82,136.49s-2.09-7.72.51-8.56,7,2.54,7,2.54,1.08-5.13,3.26-4.93,3.49,6.21,3.49,6.21,3.3-3.37,5.53-2.84,0,10.66-2,14-9,5.29-11.74,5.11a41.82,41.82,0,0,1-10.15-2.7c-1.1-.65-.89-1.17-.77-1.81s4.71-2,4.71-2-6.45-2.89-5.68-4.63S211.82,136.49,211.82,136.49Z"/><path id="path15477" class="cls-5" d="M222.58,143s.52-3.9,2.48-4.31a17.54,17.54,0,0,1,5.48.37s2.09-4.6,5.26-4.33c0,2.22-2,5.84-2.44,10s-1.91,9.52-4.73,10.32-10.67-1.69-13-2.79-5.83-2.66-7.83-2c0,0,3-3.09,5.4-3.31a13.8,13.8,0,0,1,3.12-.08,2.44,2.44,0,0,1,.22-3.51C218.4,141.62,222.58,143,222.58,143Z"/><path id="path15479" class="cls-2" d="M212.77,129.68c.88-.71,3.29-.46,4.73,1a29,29,0,0,1,2.59,3,12.2,12.2,0,0,1,.71-3.74c.62-1.3,1.35-2.74,1.35-2.74s.29,4.39.32,5.56.89,2.33,1.16,2.22a19.51,19.51,0,0,0,3.69-2.76,8.45,8.45,0,0,1,3.37-1.95c.26,0-1.66,3.48-2.21,4.87s-.25,1.54-.25,1.54-3.23-.32-4.81.8a15.67,15.67,0,0,0-2.84,2.71s-3.47.3-4.74,1.52-1,1.94-2.93,2.28a14.72,14.72,0,0,1-4.61-.08c.18-.05,3.6-1.19,4.93-1.86a2.73,2.73,0,0,0,1.55-1.58,19.61,19.61,0,0,0-4.33-2.19,8.89,8.89,0,0,1-2.7-1.14,5.8,5.8,0,0,1,3.72.16c2.49.72,3.82,1.14,3.82,1.14a9.08,9.08,0,0,1-1.67-2.86c-.5-1.55.84-2,.69-2.78A18.48,18.48,0,0,0,212.77,129.68Z"/></g><g id="g15481"><path id="path15483" class="cls-4" d="M224.57,153.42s.13-8,2.86-8.09,6,4.37,6,4.37,2.46-4.63,4.5-3.84,1.63,6.94,1.63,6.94,4.11-2.33,6.1-1.2-3,10.23-5.76,12.86-10.11,2.59-12.69,1.66a41.8,41.8,0,0,1-9-5.4,1.34,1.34,0,0,1-.24-2c.3-.58,5.08-.61,5.08-.61s-5.4-4.56-4.17-6S224.57,153.42,224.57,153.42Z"/><path id="path15485" class="cls-5" d="M233.12,162.62s1.58-3.6,3.58-3.45a17.54,17.54,0,0,1,5.16,1.87s3.28-3.84,6.26-2.71c-.59,2.14-3.53,5.06-5.11,8.91s-4.47,8.62-7.4,8.61-9.79-4.58-11.73-6.29-4.86-4.17-7-4.13c0,0,3.77-2.13,6.11-1.68a13.75,13.75,0,0,1,3,.79,2.44,2.44,0,0,1,1.18-3.31C229.47,160.17,233.12,162.62,233.12,162.62Z"/><path id="path15487" class="cls-2" d="M227.37,147.13c1-.44,3.29.47,4.27,2.25A29,29,0,0,1,233.3,153a12.19,12.19,0,0,1,1.72-3.4c1-1.08,2.06-2.26,2.06-2.26s-.93,4.3-1.23,5.43.21,2.49.5,2.45a19.48,19.48,0,0,0,4.31-1.63,8.44,8.44,0,0,1,3.77-.94c.26,0-2.56,2.88-3.47,4.07s-.66,1.41-.66,1.41-3-1.2-4.85-.57A15.69,15.69,0,0,0,232,159.4s-3.42-.67-5,.14-1.49,1.59-3.45,1.38a14.69,14.69,0,0,1-4.41-1.35c.18,0,3.79-.15,5.25-.42a2.73,2.73,0,0,0,1.93-1.09,19.62,19.62,0,0,0-3.56-3.31,8.89,8.89,0,0,1-2.28-1.84,5.8,5.8,0,0,1,3.53,1.19c2.19,1.38,3.36,2.15,3.36,2.15a9.07,9.07,0,0,1-.81-3.21c0-1.63,1.36-1.7,1.44-2.48A18.52,18.52,0,0,0,227.37,147.13Z"/></g><g id="g15489"><path id="path15491" class="cls-4" d="M229.84,173.26s2.15-8,5.13-7.44,5.37,5.78,5.37,5.78,3.82-4.06,5.83-2.79,0,7.33,0,7.33,5-1.37,6.9.23-5.78,9.57-9.46,11.55-11.58.24-14.13-1.3a45,45,0,0,1-8.37-7.52c-.71-1.14-.23-1.5.24-2s5.64.57,5.64.57-4.68-5.83-3-7S229.84,173.26,229.84,173.26Z"/><path id="path15493" class="cls-5" d="M236.76,184.16s2.61-3.5,4.73-2.83,5.11,3.33,5.11,3.33,4.52-3.32,7.44-1.35c-1.18,2.17-5.09,4.58-7.76,8.34s-7,8.18-10.16,7.43-9.42-7.41-11.09-9.75-4.2-5.73-6.48-6.21c0,0,4.61-1.35,7-.28a15.3,15.3,0,0,1,3.07,1.62,2.7,2.7,0,0,1,2.11-3.28C233.43,180.59,236.76,184.16,236.76,184.16Z"/><path id="path15495" class="cls-2" d="M234.44,167.62c1.24-.19,3.44,1.24,4.05,3.25a27.88,27.88,0,0,1,.87,4,12.79,12.79,0,0,1,2.71-3c1.3-.86,2.79-1.79,2.79-1.79s-2.09,4.09-2.7,5.16-.4,2.55-.08,2.58a23.23,23.23,0,0,0,5.06-.63,10.06,10.06,0,0,1,4.31-.06c.27.1-3.49,2.29-4.78,3.27s-1.07,1.26-1.07,1.26-3-1.91-5.09-1.7a18.46,18.46,0,0,0-4.22,1s-3.53-1.47-5.42-1-2,1.24-4.07.58a16.57,16.57,0,0,1-4.42-2.39c.2,0,4.13.74,5.78.81a3.16,3.16,0,0,0,2.36-.64,20.13,20.13,0,0,0-3-4.15,9.25,9.25,0,0,1-2-2.38,6.59,6.59,0,0,1,3.51,2c2,1.9,3.09,2.95,3.09,2.95a8.7,8.7,0,0,1-.07-3.4c.36-1.64,1.9-1.38,2.18-2.15A17.74,17.74,0,0,0,234.44,167.62Z"/></g><g id="g15497"><path id="path15499" class="cls-4" d="M228.35,195.86s4.1-7.85,7.08-6.58,4.27,7.28,4.27,7.28,4.93-3.36,6.74-1.57-1.68,7.67-1.68,7.67,5.57-.27,7.15,1.84-8.26,8.65-12.56,9.87-12.15-2.43-14.46-4.64a48.19,48.19,0,0,1-7-9.8c-.48-1.35.11-1.62.71-2s5.76,1.9,5.76,1.9-3.54-7.18-1.5-8S228.35,195.86,228.35,195.86Z"/><path id="path15501" class="cls-5" d="M233.05,208.85s3.54-3,5.6-1.86,4.56,4.66,4.56,4.66,5.49-2.42,8.09.32c-1.74,2-6.38,3.6-10,6.91s-9.22,6.93-12.34,5.41-8.13-9.93-9.33-12.76-3.06-7-5.33-8c0,0,5.12-.35,7.4,1.33a16.33,16.33,0,0,1,2.83,2.4,2.89,2.89,0,0,1,3-2.94C230.41,204.34,233.05,208.85,233.05,208.85Z"/><path id="path15503" class="cls-2" d="M234.47,191c1.34.09,3.3,2.09,3.48,4.34a29.81,29.81,0,0,1,0,4.41,13.7,13.7,0,0,1,3.53-2.51c1.56-.59,3.33-1.22,3.33-1.22s-3.13,3.79-4,4.76-1,2.57-.68,2.68a24.84,24.84,0,0,0,5.44.52,10.76,10.76,0,0,1,4.52.94c.26.16-4.17,1.59-5.75,2.3s-1.41,1.06-1.41,1.06-2.64-2.68-4.93-3a19.75,19.75,0,0,0-4.64.07s-3.34-2.36-5.42-2.32-2.39.83-4.39-.34a17.73,17.73,0,0,1-4.06-3.52c.2.09,4.15,1.73,5.85,2.19a3.39,3.39,0,0,0,2.61-.13,21.56,21.56,0,0,0-2.18-5,9.88,9.88,0,0,1-1.54-2.95s1.53.47,3.2,2.92,2.54,3.79,2.54,3.79a9.3,9.3,0,0,1,.72-3.57c.75-1.64,2.3-1,2.78-1.75A19.06,19.06,0,0,0,234.47,191Z"/></g><g id="g15505"><path id="path15507" class="cls-4" d="M218.66,218s7.6-6.5,10.19-3.92,1.41,9.42,1.41,9.42,6.58-1.44,7.72,1.19-5,7.32-5,7.32,5.95,2.06,6.72,4.93-12.3,5.59-17.31,5.06-11.71-7.66-13.2-10.94-3.28-11.59-3.21-13.21.79-1.65,1.61-1.85,5.23,4.42,5.23,4.42-.69-9,1.8-9S218.66,218,218.66,218Z"/><path id="path15509" class="cls-5" d="M218.12,233.58s5-1.71,6.65.41,2.82,6.8,2.82,6.8,6.77-.23,8.34,3.73c-2.66,1.35-8.2,1.09-13.43,3s-12.57,3.38-15.21.48-4.34-13.82-4.41-17.3-.29-8.58-2.23-10.62c0,0,5.52,1.79,7.19,4.51a18.43,18.43,0,0,1,2,3.7,3.27,3.27,0,0,1,4.35-1.83C217.25,227.75,218.12,233.58,218.12,233.58Z"/><path id="path15511" class="cls-2" d="M227.1,215.51c1.37.65,2.58,3.58,1.82,6a33.75,33.75,0,0,1-1.88,4.61A15.46,15.46,0,0,1,231.8,225c1.88,0,4,.13,4,.13s-4.87,2.65-6.21,3.3-2.14,2.26-1.83,2.52a28.08,28.08,0,0,0,5.48,2.83,12.16,12.16,0,0,1,4.34,2.89c.2.28-5-.09-7,0s-1.93.52-1.93.52-1.64-3.92-3.92-5.17a22.3,22.3,0,0,0-4.9-1.88s-2.51-3.87-4.71-4.71-2.85-.13-4.45-2.2a20,20,0,0,1-2.78-5.39c.17.18,3.62,3.55,5.21,4.75a3.82,3.82,0,0,0,2.79,1s.38-4.3-.17-6.19a11.17,11.17,0,0,1-.37-3.74s1.41,1.13,2.13,4.4,1.07,5,1.07,5a10.5,10.5,0,0,1,2.25-3.44c1.48-1.4,2.84-.08,3.64-.66A21.37,21.37,0,0,0,227.1,215.51Z"/></g><g id="g15513"><path id="path15515" class="cls-4" d="M206.72,240.25s8.3-2.5,9.55.93-2.16,8.07-2.16,8.07,6,2.53,6,5.4-7.61,4.54-7.61,4.54,4.52,4.38,4,7.31-13.51-.11-17.83-2.72-7.38-11.88-7.35-15.49,1.5-12.23,2.24-13.67,2.71-3.7,3.54-3.54,2.89,5.3,2.89,5.3,2.72-6.18,5-5.14S206.72,240.25,206.72,240.25Z"/><path id="path15517" class="cls-5" d="M198.32,254.34s5.24.56,5.85,3.18-.31,7.36-.31,7.36,6.24,2.64,6,6.9c-3,.11-7.9-2.47-13.45-2.93s-12.82-2.23-14-6,1.89-14.36,3.3-17.54,3.36-7.9,2.46-10.56c0,0,4.25,4,4.62,7.12a18.44,18.44,0,0,1,.21,4.18,3.27,3.27,0,0,1,4.71.17C200,248.68,198.32,254.34,198.32,254.34Z"/><path id="path15519" class="cls-2" d="M214.09,241.74c1,1.17.83,4.34-.88,6.22a33.75,33.75,0,0,1-3.65,3.38,15.45,15.45,0,0,1,4.79,1c1.69.83,3.58,1.8,3.58,1.8s-5.54.35-7,.38-2.89,1.15-2.73,1.51a28.09,28.09,0,0,0,3.77,4.88,12.16,12.16,0,0,1,2.72,4.45c.06.34-4.53-2.21-6.34-3s-2-.34-2-.34.16-4.25-1.37-6.34a22.32,22.32,0,0,0-3.65-3.77s-.64-4.57-2.28-6.26-2.53-1.32-3.11-3.87.72-8.52.8-8.29.83,5.15,1.77,6.91,2,3.87,2,3.87,2.16-3.74,2.46-5.68a33.89,33.89,0,0,1,1-4.14,9,9,0,0,1,.34,5.48c-.73,3.27-1.16,5-1.16,5a10.5,10.5,0,0,1,3.49-2.17c1.93-.64,2.59,1,3.58.94A6,6,0,0,0,214.09,241.74Z"/></g></g><g id="g15521"><g id="g15523"><g id="g15525"><path id="path15527" class="cls-6" d="M105,106.29c2.37-2.84,7.89-4.25,10.55-7.52,1.9-2.33,3-6.26,4-5.29s-1.7,12.57-4.25,16.69c-2.79,4.52-7.89,6.43-9.83,9.1s-5.94,9.58-11.16,12.49S85.44,134.92,84,137c0,0,.61-2.55,4.61-4.12a24.9,24.9,0,0,0,11.57-9.1c3.4-4.85,2.63-9.82,2.75-11.88A7.84,7.84,0,0,1,105,106.29Z"/><path id="path15529" class="cls-6" d="M98.3,107.5c.92-1.57,2.3-4.49,3.52-4.49s-1.09,3.76-1.46,5.34-1.58,13.71-4.61,16-12.25,9.95-13.47,15.89-6.48,11.51-8.66,13.45-3,1.64-3,1.64,5.94-6.74,7.18-8.05c2.18-2.3,3-6.31,4-9.46s4-6.07,4.85-9.22-1.09-7.64,3.15-12.74S97.08,109.57,98.3,107.5Z"/><path id="path15531" class="cls-6" d="M81.17,119.29c.73-1.67,2.82-3.76,4-3.9s-1.46,2.18-1.09,4.61c.24,1.6-.68,13.68-3.41,16.34s-8.86,11.35-9.34,17.39a19.55,19.55,0,0,1-5.29,11.9,14.39,14.39,0,0,0-2.82,5.28c-.23.93-.64-3.55-.64-3.55s4.07-4.65,5.15-6.1c1.89-2.55,2.24-6.63,2.82-9.88s1.14-6.49,1.6-9.72-2.22-8.2,1.37-13.78S80.22,121.49,81.17,119.29Z"/><path id="path15533" class="cls-6" d="M63.64,135.46c.25-1.8,1.7-4.38,2.82-4.84s-.81,2.49.19,4.73c.66,1.48,3.33,13.79,1.41,17.08s-5.77,12.89-4.61,18.84a17.94,17.94,0,0,1-1.94,12.37C60.25,186.28,58.9,186,58.9,186s2.06-4,2.7-5.65c1.13-3,.79-7.86.47-11.15s-.65-6.56-1.08-9.8-4.35-7.3-2.39-13.64S63.32,137.83,63.64,135.46Z"/><path id="path15535" class="cls-6" d="M51.69,156c-.4-2.22.32-5.81,1.46-6.8s0,3.25,2.05,5.5c1.35,1.48,8.12,14.39,7.14,19s-1.28,16.39,2.39,23,3.74,8.46,3.26,12.05-1.88,1.68-1.88,1.68.39-2.9.49-5.14c.19-3.93-2.71-5.83-4.35-9.58s-2.67-6.78-4.43-10.43-7.95-6.92-8.08-15.15S52.22,158.93,51.69,156Z"/><path id="path15537" class="cls-6" d="M42.79,171.81s-1.93,14.28,2.68,21.86,12.94,10.26,19,15.91,10.71,18,10.71,18l3.72,3-3-5.95S71,212.86,67.33,209.44s-9.22-5.95-9.52-8.48-1.93-10.86-3.87-15-8.63-8.33-8.77-10S44.72,171.07,42.79,171.81Z"/><path id="path15539" class="cls-6" d="M41.33,198.47s2.92,14.11,9.79,19.73,16.17,7,23.8,10.27S90.6,244.64,90.6,244.64l2.9,2-3.19-5s-8.14-12.21-12.78-14.2S66.3,223.26,65.18,221s-5.43-9.6-8.64-12.88-10.9-5-11.59-6.48S42.91,197.13,41.33,198.47Z"/><path id="path15541" class="cls-6" d="M46.24,219.88s8.25,14.94,18,18.89,19.32,7.08,29.11,8.14,17.55,10.41,17.55,10.41l4,1.21,1.91,1.28s-15-13.92-20.91-14.54S83.2,239.17,81.13,237s-10.2-7.4-15-10-13.39-3.37-14.69-4.82S47.56,217.81,46.24,219.88Z"/><path id="path15543" class="cls-6" d="M60.56,242.93s9,11.86,17.69,13.15,17.19,1.85,25.56.44,22.56,9.87,22.56,9.87l4.31.59-5.43-4.2s-14.46-9.27-19.54-8.4-11.49-2.57-13.53-4.1-9.58-4.38-13.95-5.62-11.71.14-13-.89S61.38,240.69,60.56,242.93Z"/><path id="path15545" class="cls-6" d="M76,261s10.63,10.4,19.45,10.38,17.28-.72,25.34-3.36,24.16,5.51,24.16,5.51l3.49-.37-5.51-2.13s-15.68-7-20.57-5.4-11.74-.84-14-2-10.12-2.91-14.63-3.49-11.56,1.88-13,1.05S76.46,258.69,76,261Z"/></g><g id="g15547"><path id="path15549" class="cls-6" d="M68.64,158.38s-2.07-7.76,2.89-14,12.69-8,15-10.65,5.13-10.09,12.92-10.09,8.38-.94,9.74-2.12c3.26-2.84,5-3.19,5-3.19s-3.77,5.9-4.84,6.43S104.76,132.18,98,134a71.15,71.15,0,0,1-11,2.12s-10.62,4.25-13.28,7.79-3.54,6.2-3.54,10.09S68.64,158.38,68.64,158.38Z"/><path id="path15551" class="cls-6" d="M72.56,153.76s-.1-7.12,6.84-9.4,9.4-1.71,11.87-3.61,5.32-4,6.36-4.08a22.38,22.38,0,0,1-2.47,4c-1.23,1.42-3.13,2.85-3.32,3.8s-5.6,9.12-10.35,10.25A52.83,52.83,0,0,1,72.65,156s-7.31,3.49-9.59,14.68a37.56,37.56,0,0,0-.48,11l-1.33.38s-.79-10.92.44-14.24S63.82,158.32,72.56,153.76Z"/><path id="path15553" class="cls-6" d="M84.33,155.19a31.31,31.31,0,0,1-6.27,5.32c-3.23,1.9-9.21,3.89-12,9.5s-2.47,7.41-2.47,7.41a85.52,85.52,0,0,0-5.7,10.35c-2.28,5.13-1.42,13.58,1.61,16.71a46.74,46.74,0,0,0,5.7,5l.28-3.13s-7-2.56-7-8.55,2.28-13.1,6.08-15.48S72.65,179.4,78.06,172s3.61-9.12,5-11.3A7.54,7.54,0,0,0,84.33,155.19Z"/><path id="path15555" class="cls-6" d="M79.2,173s-1,5.13-3.51,6.65S66,189,65.82,193.45s-.85,11.4-.85,11.4-3.23,7.5-1.8,12.34,7.31,7.79,10.16,9.4a13.49,13.49,0,0,1,4.08,3.32l-.76-4a33.79,33.79,0,0,1-5.89-3.23c-2.47-1.8-6.65-5.22-5.79-8.74s4.18-9.5,4.18-9.5,8.45-6.08,9.5-12.72.95-10,1.61-11.4a13.18,13.18,0,0,0,.47-5.7A2.2,2.2,0,0,0,79.2,173Z"/><path id="path15557" class="cls-6" d="M79.77,193.55s0,6.84-.95,8.07S72,213.2,73.22,219.28s5.79,14.81,6.36,18,4.75,7.5,9.69,10.07,9.12,4.18,9.12,4.18l-.1-2.47A32.41,32.41,0,0,1,92.21,247c-1.8-1-8.83-4.56-10.16-9.31s-1.23-7.6-.85-9,5.41-13.86,3.51-19.94S81.77,204,82,200.67a22.26,22.26,0,0,0-.19-4.94C81.77,194.12,79.77,193.55,79.77,193.55Z"/><path id="path15559" class="cls-6" d="M88.51,212.16s1.14,4.18.19,6.27-3,16.62.76,21.18A90.9,90.9,0,0,0,96.3,247s3,10.54,8.07,14.15,8.55,4.37,12,5.41,12,2,12,2l-4.31-3s-8.88-.83-11.06-1.69-8.61-4.49-10-8.86-2.94-8.74-2.94-8.74a28.17,28.17,0,0,0,.1-12.44c-1.52-6.55-5.41-11.49-6.55-14.34a10,10,0,0,0-2.28-3.8S90.69,211.78,88.51,212.16Z"/><path id="path15561" class="cls-6" d="M100.66,225.07s2.56,5.6,2.56,8.26,2.37,14.24,6.84,19.75,9.4,6.93,11.4,10.54,7.08,4.72,7.08,4.72l.14-2.25s-5.22-2.66-5.79-5.32-1.8-13.29-5.51-19.18-6.93-5.51-9.88-9.88-3.89-5.22-4.46-6.17S100.66,225.07,100.66,225.07Z"/></g></g><g id="g15563"><g id="g15565"><path id="path15567" class="cls-7" d="M105,106.29c2.37-2.84,7.89-4.25,10.55-7.52,1.9-2.33,3-6.26,4-5.29s-1.7,12.57-4.25,16.69c-2.79,4.52-7.89,6.43-9.83,9.1s-5.94,9.58-11.16,12.49S85.44,134.92,84,137c0,0,.61-2.55,4.61-4.12a24.9,24.9,0,0,0,11.57-9.1c3.4-4.85,2.63-9.82,2.75-11.88A7.84,7.84,0,0,1,105,106.29Z"/><path id="path15569" class="cls-7" d="M98.3,107.5c.92-1.57,2.3-4.49,3.52-4.49s-1.09,3.76-1.46,5.34-1.58,13.71-4.61,16-12.25,9.95-13.47,15.89-6.48,11.51-8.66,13.45-3,1.64-3,1.64,5.94-6.74,7.18-8.05c2.18-2.3,3-6.31,4-9.46s4-6.07,4.85-9.22-1.09-7.64,3.15-12.74S97.08,109.57,98.3,107.5Z"/><path id="path15571" class="cls-7" d="M81.17,119.29c.73-1.67,2.82-3.76,4-3.9s-1.46,2.18-1.09,4.61c.24,1.6-.68,13.68-3.41,16.34s-8.86,11.35-9.34,17.39a19.55,19.55,0,0,1-5.29,11.9,14.39,14.39,0,0,0-2.82,5.28c-.23.93-.64-3.55-.64-3.55s4.07-4.65,5.15-6.1c1.89-2.55,2.24-6.63,2.82-9.88s1.14-6.49,1.6-9.72-2.22-8.2,1.37-13.78S80.22,121.49,81.17,119.29Z"/><path id="path15573" class="cls-7" d="M63.64,135.46c.25-1.8,1.7-4.38,2.82-4.84s-.81,2.49.19,4.73c.66,1.48,3.33,13.79,1.41,17.08s-5.77,12.89-4.61,18.84a17.94,17.94,0,0,1-1.94,12.37C60.25,186.28,58.9,186,58.9,186s2.06-4,2.7-5.65c1.13-3,.79-7.86.47-11.15s-.65-6.56-1.08-9.8-4.35-7.3-2.39-13.64S63.32,137.83,63.64,135.46Z"/><path id="path15575" class="cls-7" d="M51.69,156c-.4-2.22.32-5.81,1.46-6.8s0,3.25,2.05,5.5c1.35,1.48,8.12,14.39,7.14,19s-1.28,16.39,2.39,23,3.74,8.46,3.26,12.05-1.88,1.68-1.88,1.68.39-2.9.49-5.14c.19-3.93-2.71-5.83-4.35-9.58s-2.67-6.78-4.43-10.43-7.95-6.92-8.08-15.15S52.22,158.93,51.69,156Z"/><path id="path15577" class="cls-7" d="M42.79,171.81s-1.93,14.28,2.68,21.86,12.94,10.26,19,15.91,10.71,18,10.71,18l3.72,3-3-5.95S71,212.86,67.33,209.44s-9.22-5.95-9.52-8.48-1.93-10.86-3.87-15-8.63-8.33-8.77-10S44.72,171.07,42.79,171.81Z"/><path id="path15579" class="cls-7" d="M41.33,198.47s2.92,14.11,9.79,19.73,16.17,7,23.8,10.27S90.6,244.64,90.6,244.64l2.9,2-3.19-5s-8.14-12.21-12.78-14.2S66.3,223.26,65.18,221s-5.43-9.6-8.64-12.88-10.9-5-11.59-6.48S42.91,197.13,41.33,198.47Z"/><path id="path15581" class="cls-7" d="M46.24,219.88s8.25,14.94,18,18.89,19.32,7.08,29.11,8.14,17.55,10.41,17.55,10.41l4,1.21,1.91,1.28s-15-13.92-20.91-14.54S83.2,239.17,81.13,237s-10.2-7.4-15-10-13.39-3.37-14.69-4.82S47.56,217.81,46.24,219.88Z"/><path id="path15583" class="cls-7" d="M60.56,242.93s9,11.86,17.69,13.15,17.19,1.85,25.56.44,22.56,9.87,22.56,9.87l4.31.59-5.43-4.2s-14.46-9.27-19.54-8.4-11.49-2.57-13.53-4.1-9.58-4.38-13.95-5.62-11.71.14-13-.89S61.38,240.69,60.56,242.93Z"/><path id="path15585" class="cls-7" d="M76,261s10.63,10.4,19.45,10.38,17.28-.72,25.34-3.36,24.16,5.51,24.16,5.51l3.49-.37-5.51-2.13s-15.68-7-20.57-5.4-11.74-.84-14-2-10.12-2.91-14.63-3.49-11.56,1.88-13,1.05S76.46,258.69,76,261Z"/></g><g id="g15587"><path id="path15589" class="cls-7" d="M68.64,158.38s-2.07-7.76,2.89-14,12.69-8,15-10.65,5.13-10.09,12.92-10.09,8.38-.94,9.74-2.12c3.26-2.84,5-3.19,5-3.19s-3.77,5.9-4.84,6.43S104.76,132.18,98,134a71.15,71.15,0,0,1-11,2.12s-10.62,4.25-13.28,7.79-3.54,6.2-3.54,10.09S68.64,158.38,68.64,158.38Z"/><path id="path15591" class="cls-7" d="M72.56,153.76s-.1-7.12,6.84-9.4,9.4-1.71,11.87-3.61,5.32-4,6.36-4.08a22.38,22.38,0,0,1-2.47,4c-1.23,1.42-3.13,2.85-3.32,3.8s-5.6,9.12-10.35,10.25A52.83,52.83,0,0,1,72.65,156s-7.31,3.49-9.59,14.68a37.56,37.56,0,0,0-.48,11l-1.33.38s-.79-10.92.44-14.24S63.82,158.32,72.56,153.76Z"/><path id="path15593" class="cls-7" d="M84.33,155.19a31.31,31.31,0,0,1-6.27,5.32c-3.23,1.9-9.21,3.89-12,9.5s-2.47,7.41-2.47,7.41a85.52,85.52,0,0,0-5.7,10.35c-2.28,5.13-1.42,13.58,1.61,16.71a46.74,46.74,0,0,0,5.7,5l.28-3.13s-7-2.56-7-8.55,2.28-13.1,6.08-15.48S72.65,179.4,78.06,172s3.61-9.12,5-11.3A7.54,7.54,0,0,0,84.33,155.19Z"/><path id="path15595" class="cls-7" d="M79.2,173s-1,5.13-3.51,6.65S66,189,65.82,193.45s-.85,11.4-.85,11.4-3.23,7.5-1.8,12.34,7.31,7.79,10.16,9.4a13.49,13.49,0,0,1,4.08,3.32l-.76-4a33.79,33.79,0,0,1-5.89-3.23c-2.47-1.8-6.65-5.22-5.79-8.74s4.18-9.5,4.18-9.5,8.45-6.08,9.5-12.72.95-10,1.61-11.4a13.18,13.18,0,0,0,.47-5.7A2.2,2.2,0,0,0,79.2,173Z"/><path id="path15597" class="cls-7" d="M79.77,193.55s0,6.84-.95,8.07S72,213.2,73.22,219.28s5.79,14.81,6.36,18,4.75,7.5,9.69,10.07,9.12,4.18,9.12,4.18l-.1-2.47A32.41,32.41,0,0,1,92.21,247c-1.8-1-8.83-4.56-10.16-9.31s-1.23-7.6-.85-9,5.41-13.86,3.51-19.94S81.77,204,82,200.67a22.26,22.26,0,0,0-.19-4.94C81.77,194.12,79.77,193.55,79.77,193.55Z"/><path id="path15599" class="cls-7" d="M88.51,212.16s1.14,4.18.19,6.27-3,16.62.76,21.18A90.9,90.9,0,0,0,96.3,247s3,10.54,8.07,14.15,8.55,4.37,12,5.41,12,2,12,2l-4.31-3s-8.88-.83-11.06-1.69-8.61-4.49-10-8.86-2.94-8.74-2.94-8.74a28.17,28.17,0,0,0,.1-12.44c-1.52-6.55-5.41-11.49-6.55-14.34a10,10,0,0,0-2.28-3.8S90.69,211.78,88.51,212.16Z"/><path id="path15601" class="cls-7" d="M100.66,225.07s2.56,5.6,2.56,8.26,2.37,14.24,6.84,19.75,9.4,6.93,11.4,10.54,7.08,4.72,7.08,4.72l.14-2.25s-5.22-2.66-5.79-5.32-1.8-13.29-5.51-19.18-6.93-5.51-9.88-9.88-3.89-5.22-4.46-6.17S100.66,225.07,100.66,225.07Z"/></g></g><path id="path15603" class="cls-8" d="M115.65,100.42s-5.85,4.56-7.24,4.86a4.88,4.88,0,0,0-4.16,5.16c0,3.87.1,5.85.1,5.85l.69-1.59.5.79s.59-4.46,3.87-7S115.65,100.42,115.65,100.42Z"/><path id="path15605" class="cls-8" d="M98,109.64s-4.86,4.36-6.64,6.25-2.48,2.58-2.58,4.86-.59,5.85-.59,5.85l.89-1.69.5.89s1.39-6.15,3.37-7.73a18.45,18.45,0,0,0,4.26-5.16A9.26,9.26,0,0,0,98,109.64Z"/><path id="path15607" class="cls-8" d="M89.07,132.85s3.27-6.94,7.83-7.53,9.32-.89,9.32-.89a12.83,12.83,0,0,1-5,3.27c-3.07,1.09-4.36.3-6.74,1.59a48.82,48.82,0,0,0-4.26,4l.2-.89Z"/><path id="path15609" class="cls-8" d="M82.23,120.45s-8.33,7.23-8.82,10.11a31,31,0,0,0-.1,6.84l.89-3.17.59,1.59s2-6.15,3.07-7.83a6,6,0,0,1,1.88-2.08l.59,3.77s1.78-2.78,1.69-4.56A38.33,38.33,0,0,1,82.23,120.45Z"/><path id="path15611" class="cls-8" d="M90.42,142.92s-10.9,1.68-12.85,3.85a31.07,31.07,0,0,0-3.73,5.73l2.45-2.21-.34,1.66s5-4.14,6.78-5a6,6,0,0,1,2.7-.76l-1.51,3.5s3-1.4,3.86-3A38.2,38.2,0,0,1,90.42,142.92Z"/><path id="path15613" class="cls-8" d="M64.34,137.58s-5.51,9.56-5,12.44a31.05,31.05,0,0,0,2.14,6.5l-.19-3.29,1.08,1.31s-.13-6.46.35-8.41a6,6,0,0,1,1.1-2.58l1.79,3.37s.78-3.21.1-4.86A38.3,38.3,0,0,1,64.34,137.58Z"/><path id="path15615" class="cls-8" d="M53.63,158.46s-3.68,9-2.21,14.52c.84,3.13,3.88,6.53,3.88,6.53l-1-3.5,1.46,1.17S54,170.24,54,168a6.54,6.54,0,0,1,.52-3l2.73,3.23s0-3.63-1.1-5.26A44,44,0,0,1,53.63,158.46Z"/><path id="path15617" class="cls-8" d="M45.4,178.48s7.6,6.06,9,11.6c.79,3.14-.2,7.59-.2,7.59l-.81-3.56-.71,1.73s-1.85-6.91-2.94-8.82a6.54,6.54,0,0,0-1.93-2.39L47,188.79s-1.79-3.16-1.6-5.13A44.1,44.1,0,0,0,45.4,178.48Z"/><path id="path15619" class="cls-8" d="M45.67,203.92s8.39,1.52,12.15,7.21c2.13,3.22,5.54,9.79,5.54,9.79L60.57,218l0,2.33s-4.8-7-6.75-8.72a7,7,0,0,0-3-1.83l.85,5.15s-3.19-2.77-3.81-5.12A56,56,0,0,0,45.67,203.92Z"/><path id="path15621" class="cls-8" d="M54.39,225.83s8.48-.88,13.68,3.53c2.95,2.5,10.28,7.36,10.28,7.36l-3.77-.47,2.59,3.07S66.67,232.06,64.33,231a7,7,0,0,0-3.41-.91l2.26,4.7s-3.84-1.77-5.09-3.86A56.26,56.26,0,0,0,54.39,225.83Z"/><path id="path15623" class="cls-8" d="M68.67,246.32s8.16-2.49,14.1.84c3.37,1.89,11.5,5.25,11.5,5.25l-3.79.26,3.13,2.51s-11.69-5.1-14.19-5.7a7,7,0,0,0-3.53-.24L79,253.43s-4.11-1-5.73-2.81A56.22,56.22,0,0,0,68.67,246.32Z"/><path id="path15625" class="cls-8" d="M84.08,263.47s7.62-3.83,14-1.55c3.64,1.29,12.22,3.24,12.22,3.24l-3.7.9,3.51,1.95s-12.38-3.06-14.95-3.23a7,7,0,0,0-3.52.36l3.78,3.6s-4.22-.29-6.12-1.8A56.23,56.23,0,0,0,84.08,263.47Z"/><path id="path15627" class="cls-8" d="M80.39,160.73s-10.89,5.06-12.34,8a35.66,35.66,0,0,0-2.33,7.23l1.95-3.09.09,1.87s4-5.9,5.7-7.35a6.54,6.54,0,0,1,2.61-1.62l-.62,4.19s2.73-2.39,3.21-4.31A43.86,43.86,0,0,1,80.39,160.73Z"/><path id="path15629" class="cls-8" d="M77.21,180.06s-9,7.95-9.57,11.14a35.66,35.66,0,0,0-.18,7.59l1-3.51.62,1.77s2.19-6.81,3.38-8.67a6.53,6.53,0,0,1,2-2.29l.6,4.19s1.94-3.06,1.86-5A44.11,44.11,0,0,1,77.21,180.06Z"/><path id="path15631" class="cls-8" d="M80.05,201.92s-6.52,12.26-5.84,15.94a41.21,41.21,0,0,0,2.89,8.29l-.35-4.21,1.39,1.66s-.39-8.26.14-10.75a7.55,7.55,0,0,1,1.28-3.31l2.35,4.29s.86-4.11,0-6.22A50.79,50.79,0,0,1,80.05,201.92Z"/><path id="path15633" class="cls-8" d="M90.48,217.87s-2.93,13.57-1.27,16.93a41.24,41.24,0,0,0,5,7.19l-1.49-4,1.79,1.22s-2.63-7.84-2.8-10.38a7.57,7.57,0,0,1,.33-3.53l3.43,3.49s-.29-4.18-1.73-6A50.78,50.78,0,0,1,90.48,217.87Z"/><path id="path15635" class="cls-8" d="M103.9,232.59s2.19,13.71,5,16.23a41.24,41.24,0,0,0,7.31,4.87l-2.82-3.14,2.11.49s-5.29-6.35-6.37-8.66a7.56,7.56,0,0,1-1-3.41l4.46,2s-1.79-3.79-3.78-4.93A50.92,50.92,0,0,1,103.9,232.59Z"/></g><polygon id="polygon15637" class="cls-9" points="157.38 84.99 160.86 74.28 151.79 80.87 153.13 84.99 157.38 84.99"/><polygon id="polygon15639" class="cls-9" points="143.23 80.87 134.17 74.28 137.65 84.99 141.9 84.99 143.23 80.87"/><polygon id="polygon15641" class="cls-9" points="160.11 93.13 156.6 95.67 157.9 99.67 169.11 99.67 160.11 93.13"/><polygon id="polygon15643" class="cls-9" points="144.08 104.78 147.51 115.36 150.95 104.78 147.51 102.28 144.08 104.78"/><polygon id="polygon15645" class="cls-9" points="134.92 93.13 125.92 99.67 137.13 99.67 138.42 95.67 134.92 93.13"/><g id="g15647"><polygon id="polygon15649" class="cls-10" points="115.3 252.69 121.92 252.69 121.92 272.1 111.47 272.1 111.47 289.79 129.16 289.79 129.16 281.62 147.37 281.62 147.37 249.9 115.3 249.9 115.3 252.69"/><polygon id="polygon15651" class="cls-11" points="176.04 252.69 182.66 252.69 182.66 249.9 150.59 249.9 150.59 281.62 168.8 281.62 168.8 289.79 186.5 289.79 186.5 272.1 176.04 272.1 176.04 252.69"/><path id="path15653" class="cls-12" d="M182.66,244H176V222.57h1.61a7.49,7.49,0,1,0-7.49-7.49s0,.07,0,.1v.2l.06,1.67H161.7l-.25-1.56a2.2,2.2,0,0,0-.64-1.52,3.06,3.06,0,0,0-2.18-.84,3.46,3.46,0,0,0-3.38,2.69L155,217H143.68l-.29-1.24a3.47,3.47,0,0,0-6.76,0l-.29,1.24h-8.62l.08-1.86s0-.07,0-.11a7.49,7.49,0,1,0-7.49,7.49h1.61V244H115.3v2.67h67.35V244Z"/><g id="g15655"><polygon id="polygon15657" class="cls-13" points="108.25 293 108.25 268.88 118.7 268.88 118.7 255.94 113.84 260.72 113.88 260.72 113.88 268.84 108.29 268.84 103.43 271.83 103.43 297.83 103.46 297.83 108.3 293 108.25 293"/><polygon id="polygon15659" class="cls-14" points="132.38 293 108.3 293 103.46 297.83 137.2 297.83 137.2 297.76 132.38 292.99 132.38 293"/><polygon id="polygon15661" class="cls-14" points="165.59 284.84 132.38 284.84 132.38 284.94 137.2 289.72 137.2 289.66 160.82 289.66 160.82 289.67 165.59 284.88 165.59 284.84"/><polygon id="polygon15663" class="cls-13" points="132.38 292.99 137.2 297.76 137.2 289.72 132.38 284.94 132.38 292.99"/><polygon id="polygon15665" class="cls-14" points="118.7 255.9 112.09 255.9 112.09 255.84 107.27 260.7 107.27 260.72 113.84 260.72 118.7 255.94 118.7 255.9"/><path id="path15667" class="cls-13" d="M112.09,240.8h6.62V225.66h0l-4.89,3.55h.09v11.55h-2l-4.65,3.62V260.7l4.82-4.86v-15Z"/><path id="path15686" class="cls-15" d="M109.61,215.08a10.72,10.72,0,0,1,10.7-10.71c.28,0,.55,0,.82,0a18.7,18.7,0,0,0-2.8-.21,13.34,13.34,0,0,0-13.54,13.09c0,6.64,3.26,9.79,9,11.91l4.89-3.55A10.72,10.72,0,0,1,109.61,215.08Z"/><polygon id="polygon15688" class="cls-13" points="194.59 271.83 189.72 268.84 184.13 268.84 184.13 260.76 179.3 255.9 179.26 255.9 179.26 268.88 189.71 268.88 189.71 292.96 194.59 297.78 194.59 271.83"/><polygon id="polygon15690" class="cls-14" points="194.59 297.78 189.71 292.96 189.71 293 165.59 293 165.59 292.94 160.83 297.83 194.59 297.83 194.59 297.78"/><polygon id="polygon15692" class="cls-14" points="184.13 260.72 190.74 260.72 185.87 255.9 185.87 255.9 179.3 255.9 184.13 260.76 184.13 260.72"/><polygon id="polygon15694" class="cls-13" points="165.59 284.88 160.82 289.67 160.82 297.83 160.83 297.83 165.59 292.94 165.59 284.88"/><path id="path15696" class="cls-13" d="M190.75,260.72V244.37l-4.65-3.62h-2V229.2h0l-4.89-3.54h0V240.8h6.62v15.1l4.87,4.83h0Z"/><path id="path15715" class="cls-16" d="M184.22,229.2c5.74-2.12,9-5.27,9-11.91a13.34,13.34,0,0,0-13.54-13.09,18.69,18.69,0,0,0-2.78.21c.25,0,.5,0,.75,0a10.71,10.71,0,0,1,1.62,21.29l4.89,3.54h.07Z"/></g><g id="g15717"><g id="g15719"><path id="polygon15721" class="cls-17" d="M165.52,258.24Z"/><path id="polygon15723" class="cls-17" d="M168.72,268.2Z"/><path id="path15725" class="cls-18" d="M168.71,268.21a6.56,6.56,0,0,0,1.18-3.67l2-.67a8.11,8.11,0,0,0-.43-2.13,8.35,8.35,0,0,0-1-2l-2,.67a6.62,6.62,0,0,0-3-2.16h0v-2.13a8.34,8.34,0,0,0-2.22-.29,8.09,8.09,0,0,0-2.15.28v2.11a6.62,6.62,0,0,0-3.06,2.19l-2-.67a8.38,8.38,0,0,0-1,2,8.1,8.1,0,0,0-.43,2.13l2,.68a6.56,6.56,0,0,0,1.17,3.66l-1.23,1.74a8.36,8.36,0,0,0,1.63,1.52,8.1,8.1,0,0,0,1.91,1l1.21-1.72a6.58,6.58,0,0,0,3.78,0l1.21,1.72a8.1,8.1,0,0,0,1.91-1,8.36,8.36,0,0,0,1.63-1.52l-1.23-1.74Zm-5.42.65a4.41,4.41,0,1,1,4.41-4.41A4.41,4.41,0,0,1,163.29,268.86Z"/><path id="path15727" class="cls-19" d="M168.71,268.21a6.56,6.56,0,0,0,1.18-3.67l2-.67a8.11,8.11,0,0,0-.43-2.13,8.35,8.35,0,0,0-1-2l-2,.67a6.62,6.62,0,0,0-3-2.16h0v-2.13a8.34,8.34,0,0,0-2.22-.29,8.09,8.09,0,0,0-2.15.28v2.11a6.62,6.62,0,0,0-3.06,2.19l-2-.67a8.38,8.38,0,0,0-1,2,8.1,8.1,0,0,0-.43,2.13l2,.68a6.56,6.56,0,0,0,1.17,3.66l-1.23,1.74a8.36,8.36,0,0,0,1.63,1.52,8.1,8.1,0,0,0,1.91,1l1.21-1.72a6.58,6.58,0,0,0,3.78,0l1.21,1.72a8.1,8.1,0,0,0,1.91-1,8.36,8.36,0,0,0,1.63-1.52l-1.23-1.74Zm-5.42.65a4.41,4.41,0,1,1,4.41-4.41A4.41,4.41,0,0,1,163.29,268.86Z"/></g><g id="g15729"><g id="g15731"><path id="path15733" class="cls-20" d="M183.28,284.8c-.33,0-2.3-.25-6.31-3.27-4.35-3.28-7-9.63-8.45-13.14a19.43,19.43,0,0,0-4.4-6l.83-.83a24.19,24.19,0,0,1,5.29,7.38c1.35,3.33,3.57,7.87,7.5,10.83,3.63,2.74,4.88,2.73,4.93,2.74Z"/><path id="path15735" class="cls-21" d="M183.28,284.8c-.33,0-2.3-.25-6.31-3.27-4.35-3.28-7-9.63-8.45-13.14a19.43,19.43,0,0,0-4.4-6l.83-.83a24.19,24.19,0,0,1,5.29,7.38c1.35,3.33,3.57,7.87,7.5,10.83,3.63,2.74,4.88,2.73,4.93,2.74Z"/></g><g id="g15737"><path id="path15739" class="cls-22" d="M164.26,263.25h0S164.27,263.26,164.26,263.25Z"/><g id="g15741"><path id="path15743" class="cls-23" d="M159.37,267.73a1.45,1.45,0,0,1-1.17-.79,3,3,0,0,0-.38.79c-.24,1,1.61,1.67,2.08.71.1-.21.23-.45.37-.7A5.67,5.67,0,0,1,159.37,267.73Z"/><path id="path15745" class="cls-22" d="M166.09,261.78c-.18-.18-.48,0-.48,0l-1.36,1.47s0,0,0,0h0a9.83,9.83,0,0,0-1.8.25c-1.67.29-3.48,2.17-4.26,3.43a1.45,1.45,0,0,0,1.17.79,5.67,5.67,0,0,0,.9,0,8.92,8.92,0,0,1,2.19-2.81,3.21,3.21,0,0,1,2.38-.65l1.84-1.49C166.75,262.43,166.27,262,166.09,261.78Z"/></g><path id="path15747" class="cls-24" d="M166.09,261.78c-.18-.18-.48,0-.48,0l-1.36,1.47s0,0,0,0h0a9.83,9.83,0,0,0-1.8.25c-1.67.29-3.48,2.17-4.26,3.43a3,3,0,0,0-.38.79c-.24,1,1.61,1.67,2.08.71.1-.21.23-.45.37-.7a8.92,8.92,0,0,1,2.19-2.81,3.21,3.21,0,0,1,2.38-.65l1.84-1.49C166.75,262.43,166.27,262,166.09,261.78Z"/></g></g></g><g id="g15749"><g id="g15751"><g id="g15753"><g id="g15755"><path id="path15757" class="cls-25" d="M139.81,256.41h-.05a6.48,6.48,0,0,1-1.69-.54,5.32,5.32,0,0,0-.78-.37c-.24.3-.83.24-1,.22-.39-.05-.62-.19-.66-.42a1.42,1.42,0,0,0-.21-.25c-.77.19-1.58.4-1.68.45s-.34.14-1-.44l-.73.46a.32.32,0,0,1-.25,0l-1.07-.28a2.27,2.27,0,0,1-.46.2,1,1,0,0,1-.76-.12l-.11-.05a.81.81,0,0,0-.24,0c-.06.19-.32.41-1.89.37a.32.32,0,0,1-.22-.09l-.07-.07a.76.76,0,0,1-.44.33c-.46.17-.89-.2-1.15-.42l-.09-.07a1.11,1.11,0,0,0-.2.18c-.05.08-.17.26-.93.26a.32.32,0,0,1,0-.64,2.36,2.36,0,0,0,.44,0,1.13,1.13,0,0,1,.72-.43c.17,0,.3.11.47.25s.41.34.51.31a.33.33,0,0,0,.11-.05.44.44,0,0,1,.24-.36.7.7,0,0,1,.74.2,6.28,6.28,0,0,0,1.19-.07.5.5,0,0,1,.21-.21,1.09,1.09,0,0,1,.84,0l.15.07c.15.07.21.1.3.07a1.77,1.77,0,0,0,.42-.19.32.32,0,0,1,.26,0l1.07.28.81-.51a.32.32,0,0,1,.38,0,3.33,3.33,0,0,0,.63.46c.36-.11,1.6-.43,1.86-.49a.33.33,0,0,1,.29.07,2.07,2.07,0,0,1,.49.6,1.34,1.34,0,0,0,.59,0,.48.48,0,0,1,.26-.2c.3-.1.66.08,1.31.42a5.84,5.84,0,0,0,1.49.47.32.32,0,0,1-.05.64Z"/></g><g id="g15759"><path id="path15761" class="cls-25" d="M125.45,268.72l-.13,0a.32.32,0,0,1-.16-.42,1.2,1.2,0,0,1,1.09-.77,1.45,1.45,0,0,0,.86-.27.53.53,0,0,1,.3-.39c.2-.09.53-.13,1,.26.28.22.37.25.39.25l.16-.12a2.12,2.12,0,0,0,.27-.3.76.76,0,0,1,.4-.32c.16,0,.3,0,.53.16.48.27.81.4,1,.2a1.61,1.61,0,0,1,1.86-.79c.3,0,.34,0,.54-.32a3.74,3.74,0,0,1,.41-.55.32.32,0,0,1,.47.44,3.17,3.17,0,0,0-.34.46,1,1,0,0,1-1.18.61,1,1,0,0,0-1.24.53c-.5.72-1.41.21-1.79,0l-.08,0,0,0a2.71,2.71,0,0,1-.35.38c-.46.4-.76.38-1.38-.1a.92.92,0,0,0-.31-.18.57.57,0,0,1-.17.26,2.05,2.05,0,0,1-1.36.45h0c-.25,0-.44.39-.44.39A.32.32,0,0,1,125.45,268.72Z"/></g><g id="g15763"><path id="path15765" class="cls-25" d="M125.14,258.35a.32.32,0,0,1-.32-.3.94.94,0,0,1,.3-.79.64.64,0,0,1,.65,0l.09,0c.49.21.53.22.74,0s.5-.6.79-.61a.58.58,0,0,1,.45.2l.12.12a1.09,1.09,0,0,0,.23.21,1.49,1.49,0,0,1,.15-.26c.23-.34.61-.9,1.36-.53a2.7,2.7,0,0,1,.57.4,1.61,1.61,0,0,0,.2.16l.07-.09c.23-.29.93-1.18,1.59-.77l.08.06h0l.17-.12a1,1,0,0,1,1.17.16,1.56,1.56,0,0,0,.5.25c.18,0,.26,0,.43-.24a.91.91,0,0,1,.43-.33c.37-.11.61.24.75.45l.12.17a.32.32,0,0,1-.08.63c-.28,0-.44-.24-.57-.44l-.09-.13-.06.07a1,1,0,0,1-1,.46,2.07,2.07,0,0,1-.73-.35c-.31-.21-.38-.22-.46-.17l-.16.11c-.21.15-.39.27-.69.05l-.11-.08s-.27,0-.74.62a.77.77,0,0,1-.52.34.94.94,0,0,1-.68-.32,2.08,2.08,0,0,0-.43-.31c-.21-.11-.27-.09-.54.31-.06.09-.12.18-.19.26a.65.65,0,0,1-.49.28,1,1,0,0,1-.7-.42l-.08-.09a3.73,3.73,0,0,0-.31.35c-.52.62-1,.42-1.49.2l-.09,0-.06,0s0,.12,0,.21a.32.32,0,0,1-.31.34Z"/></g></g><path id="path15767" class="cls-25" d="M136.94,255.25a12.46,12.46,0,0,1,3.26-.31c.82.2,1-.61,1.38-.51s2.19,3.31,2.65,6,.61,5.86-2,8.31-3.93,2.45-6.22,4.84-4.74,5.3-4.74,5.3,2.24-3.47,3.42-4.89a17.84,17.84,0,0,1,2.09-2.19l-1.94.51L137,271h-1.53l3.31-1.07-2.19.1,3-1.17-2-.2s.61-1.7,1.43-4,1.22-1.92.25-3.4a13.27,13.27,0,0,1-1.3-4.54Z"/><path id="path15769" class="cls-25" d="M134.92,268.75a65,65,0,0,1-5.85,3.47c-2,.94-4.62,1.59-6.5,4.48a53.14,53.14,0,0,1-4.26,5.56,59.93,59.93,0,0,0,3.11-5.13,9.41,9.41,0,0,1,4-3.9c1.66-.87,2.53-1.23,2.53-1.23l-3,.51,3-1.16a11.52,11.52,0,0,1-2.24,0c.22-.14,2.82-.94,2.82-.94a12.31,12.31,0,0,1-1.73-.07l3.32-1.16-1.52-.51s2.24-.29,3.11-.36.22-.07,1.44-1a29.22,29.22,0,0,0,3.25-3.4S136.58,267,134.92,268.75Z"/><path id="path15771" class="cls-25" d="M134.85,257.39s-4.59,0-6.93,1.22a9.6,9.6,0,0,0-3.47,3l3-1.53-.25,1.17,2-1.73-.05,1.22,1.63-1.27.15.61,1.84-.82A22.21,22.21,0,0,0,134.85,257.39Z"/></g><g id="g15773"><g id="g15775"><g id="g15777"><g id="g15779"><path id="path15781" class="cls-26" d="M138.12,259.9c-.2-.72-1.39,1.67-3.63,1.15a6.12,6.12,0,0,1-3.5-2.87s1.73-2.5,4.27-2.78,3.3,1.54,3.31,2.33a4.15,4.15,0,0,0,.14,1.68c.27.78-.48,1.91-.41,2.27a1.22,1.22,0,0,0,.39.63.6.6,0,0,1-.85-.39C137.64,261.24,137.67,261,138.12,259.9Z"/><path id="path15783" class="cls-27" d="M137.84,256.8a2.93,2.93,0,0,0-3.1-.79,8.78,8.78,0,0,0-2.85,2s1.19,2.07,3.06,1.65A3.35,3.35,0,0,0,137.84,256.8Z"/><path id="path15785" class="cls-28" d="M133.93,257.23a2.27,2.27,0,0,1,1.26-.87,1.4,1.4,0,0,1,1.46.3S135.93,258.07,133.93,257.23Z"/></g></g></g><g id="g15787"><g id="g15789"><g id="g15791"><path id="path15793" class="cls-26" d="M135.66,265.47c-.39-.75-1.16,2.15-3.75,2.1a6.91,6.91,0,0,1-4.52-2.37s1.34-3.15,4.08-4,4,1,4.18,1.82a4.67,4.67,0,0,0,.53,1.82c.47.8-.1,2.21.06,2.6a1.38,1.38,0,0,0,.57.61.67.67,0,0,1-1-.24C135.43,267.06,135.42,266.82,135.66,265.47Z"/><path id="path15795" class="cls-27" d="M134.65,262.1a3.3,3.3,0,0,0-3.6-.18,9.9,9.9,0,0,0-2.69,2.85s1.78,2,3.75,1.13A3.78,3.78,0,0,0,134.65,262.1Z"/><path id="path15797" class="cls-28" d="M130.43,263.47a2.56,2.56,0,0,1,1.2-1.25,1.58,1.58,0,0,1,1.68,0S132.83,263.94,130.43,263.47Z"/></g></g></g><g id="g15799"><g id="g15801"><g id="g15803"><path id="path15805" class="cls-26" d="M140.8,264.19c-.72-.33.52,2.62-1.41,4.07a6.43,6.43,0,0,1-4.67.88s-.84-3.07.64-5.31,3.46-1.61,4.11-1.09a1.53,1.53,0,0,0,1,1Z"/><path id="path15807" class="cls-27" d="M138.23,262.7a3.07,3.07,0,0,0-2.73,2,9.21,9.21,0,0,0-.32,3.64s2.47.44,3.39-1.35A3.52,3.52,0,0,0,138.23,262.7Z"/><path id="path15809" class="cls-28" d="M135.93,266.14a2.38,2.38,0,0,1,.15-1.6,1.47,1.47,0,0,1,1.23-1S138,265.1,135.93,266.14Z"/></g></g></g><g id="g15811"><g id="g15813"><g id="g15815"><path id="path15817" class="cls-26" d="M141.67,261.54c-.36-.7-1.08,2-3.49,2a6.43,6.43,0,0,1-4.2-2.21s1.25-2.93,3.8-3.76,3.71.89,3.89,1.7a4.35,4.35,0,0,0,.5,1.7c.44.75-.09,2.06.06,2.42a1.28,1.28,0,0,0,.53.57.63.63,0,0,1-1-.23C141.45,263,141.44,262.8,141.67,261.54Z"/><path id="path15819" class="cls-27" d="M140.73,258.4a3.07,3.07,0,0,0-3.35-.17,9.22,9.22,0,0,0-2.51,2.65s1.66,1.88,3.49,1.05A3.52,3.52,0,0,0,140.73,258.4Z"/><path id="path15821" class="cls-28" d="M136.79,259.67a2.38,2.38,0,0,1,1.12-1.16,1.47,1.47,0,0,1,1.57,0S139,260.12,136.79,259.67Z"/></g></g></g></g></g><g id="g15823"><path id="path15825" class="cls-14" d="M125.08,219h11.48s.12-3.6,2.5-3.6c3.13,0,2.93,3.64,2.93,3.64l13.51.11s-.2-3.68,3-3.68c2.41,0,2.53,3.64,2.53,3.64h11.61c-1.56-7.51,3.89-9.77,8.69-10,.26,0,.52,0,.78,0a7.48,7.48,0,0,0-12,6s0,.07,0,.1v.2l.06,1.67h-8.54l-.25-1.56a2.2,2.2,0,0,0-.64-1.52,3.06,3.06,0,0,0-2.18-.84,3.46,3.46,0,0,0-3.38,2.69l-.29,1.24H143.6l-.29-1.24a3.47,3.47,0,0,0-6.76,0l-.29,1.24h-8.62l.08-1.86s0-.07,0-.11a7.48,7.48,0,0,0-12-6c.25,0,.5,0,.76,0C121.24,209.29,126.63,211.52,125.08,219Z"/></g><rect id="rect15827" class="cls-14" x="115.24" y="249.85" width="67.27" height="1.07"/><polygon id="polygon15829" class="cls-14" points="119.95 245 115.24 245 115.24 243.95 121.8 243.95 119.95 245"/><polygon id="polygon15831" class="cls-14" points="177.87 245 182.58 245 182.58 243.95 176.02 243.95 177.87 245"/><polygon id="polygon15833" class="cls-14" points="119.95 273.12 111.49 273.12 111.49 272.07 121.8 272.07 119.95 273.12"/><polygon id="polygon15835" class="cls-13" points="128.12 283.53 128.12 289.82 129.17 289.82 129.17 281.68 128.12 283.53"/><polygon id="polygon15837" class="cls-13" points="146.33 250.98 146.33 281.64 147.37 281.64 147.37 249.89 146.33 250.98"/><polygon id="polygon15839" class="cls-13" points="151.6 250.98 151.6 281.64 150.55 281.64 150.55 249.89 151.6 250.98"/><polygon id="polygon15841" class="cls-13" points="169.87 283.53 169.87 289.82 168.82 289.82 168.82 281.68 169.87 283.53"/><polygon id="polygon15843" class="cls-14" points="177.87 273.12 186.56 273.12 186.56 272.07 176.02 272.07 177.87 273.12"/><g id="g15845"><path id="path15847" class="cls-29" d="M179.26,268.88v-13h6.62V240.8h-6.62V225.66A10.71,10.71,0,1,0,167,213.83h-2.62a5.31,5.31,0,0,0-1.3-2.13,6.3,6.3,0,0,0-4.47-1.8,6.65,6.65,0,0,0-6.09,3.93H146.1a6.69,6.69,0,0,0-12.19,0h-3a10.71,10.71,0,1,0-12.24,11.83V240.8h-6.62v15.1h6.62v13H108.25V293h24.12v-8.17h33.21V293h24.12V268.88H179.26ZM115.3,244h6.62V222.57h-1.61a7.49,7.49,0,1,1,7.49-7.49s0,.07,0,.11l-.08,1.86h8.62l.29-1.24a3.47,3.47,0,0,1,6.76,0l.29,1.24H155l.29-1.24a3.45,3.45,0,0,1,3.38-2.69,3.06,3.06,0,0,1,2.18.84,2.2,2.2,0,0,1,.64,1.52l.25,1.56h8.54l-.06-1.67v-.2s0-.07,0-.1a7.49,7.49,0,1,1,7.49,7.49H176V244h6.62v2.67H115.3Zm32.07,37.61H129.16v8.17H111.47V272.09h10.45V252.69H115.3v-2.79h32.07Zm39.12,8.17H168.8v-8.17H150.59V249.89h32.07v2.79H176V272.1H186.5v17.69Z"/></g><g id="g15849"><polygon id="polygon15851" class="cls-30" points="164.11 236.7 163.87 235.51 164.47 235.33 164.38 234.9 155.52 234.21 155.54 234.72 156.74 234.78 157.07 239.55 161.97 239.07 164.11 236.7"/><g id="g15853"><path id="path15855" class="cls-2" d="M149.73,218.56a11.15,11.15,0,0,0,3,3.37,32.8,32.8,0,0,0,3.9,2s-2.67.07-3.82,1a11.78,11.78,0,0,0-2.19,2.52,36.77,36.77,0,0,0,.06-4.51A26.37,26.37,0,0,0,149.73,218.56Z"/><path id="path15857" class="cls-2" d="M156.65,224.08a21,21,0,0,0,1.29,6.57,47,47,0,0,0,3.33,5.78,17.14,17.14,0,0,0-5.76-.79c-3,.16-4.12,1.38-4.12,1.38a45.4,45.4,0,0,0-.19-6.07,22.42,22.42,0,0,0-.84-3.1,4.78,4.78,0,0,0,2.81-.81A15.61,15.61,0,0,0,156.65,224.08Z"/><polygon id="polygon15859" class="cls-31" points="150.6 238.83 149.52 218.3 149.83 218.38 151.14 239.09 150.6 238.83"/><polygon id="polygon15861" class="cls-31" points="150.18 227.68 156.67 223.8 156.86 223.99 150.22 228.19 150.18 227.68"/><polygon id="polygon15863" class="cls-31" points="150.68 236.75 161.37 236.26 161.46 236.51 150.77 237.36 150.68 236.75"/></g><g id="g15865"><path id="path15867" class="cls-2" d="M140.14,217.64a11.15,11.15,0,0,0,3,3.37,32.83,32.83,0,0,0,3.9,2s-2.67.07-3.82,1a11.76,11.76,0,0,0-2.19,2.52,36.91,36.91,0,0,0,.06-4.51A26.44,26.44,0,0,0,140.14,217.64Z"/><path id="path15869" class="cls-2" d="M147.06,223.16a21.06,21.06,0,0,0,1.29,6.57,47.13,47.13,0,0,0,3.33,5.78,17.12,17.12,0,0,0-5.76-.79c-3,.16-4.12,1.38-4.12,1.38a45.3,45.3,0,0,0-.19-6.07,22.52,22.52,0,0,0-.84-3.1,4.78,4.78,0,0,0,2.81-.81A15.57,15.57,0,0,0,147.06,223.16Z"/><polygon id="polygon15871" class="cls-31" points="141.02 237.91 139.93 217.38 140.24 217.46 141.55 238.17 141.02 237.91"/><polygon id="polygon15873" class="cls-31" points="140.59 226.76 147.08 222.88 147.27 223.07 140.63 227.28 140.59 226.76"/><polygon id="polygon15875" class="cls-31" points="141.09 235.83 151.77 235.35 151.87 235.59 141.18 236.45 141.09 235.83"/></g><g id="g15877"><path id="path15879" class="cls-2" d="M126,233.39a21.49,21.49,0,0,0,4.15-.93,30.52,30.52,0,0,0,5-2.23s-2.48,2.4-2.34,3.57a4.93,4.93,0,0,0,1.4,2.35,13.66,13.66,0,0,0-3.86-2.23A40.42,40.42,0,0,0,126,233.39Z"/><path id="path15881" class="cls-2" d="M134.19,231.62a7.78,7.78,0,0,0,2.32-.67,7.39,7.39,0,0,0,1.65-1.71s-2.13,3.42-1.93,4.7a10.13,10.13,0,0,0,1.46,3.12,20.25,20.25,0,0,0-3.41-2.28c-1-.34-1.11-.51-1.11-.51a1.74,1.74,0,0,1,.08-1.33A9,9,0,0,1,134.19,231.62Z"/><path id="path15883" class="cls-2" d="M137.33,231.39a6.74,6.74,0,0,0,1.77-1,14.23,14.23,0,0,0,1.36-2.81s-1.33,4.88-1,6.42a14.29,14.29,0,0,0,1.6,3.63,17.19,17.19,0,0,0-3.19-2.35c-.9-.29-1-.48-1-.48a2.92,2.92,0,0,1-.25-1.67A7.74,7.74,0,0,1,137.33,231.39Z"/><path id="path15885" class="cls-31" d="M135.46,230.06a15.51,15.51,0,0,0,2.77-1.29,11.63,11.63,0,0,0,2.22-1.56,7,7,0,0,1-1.9,1.61A10.66,10.66,0,0,1,135.46,230.06Z"/></g><path id="path15887" class="cls-32" d="M137.76,241.35c.39.17.78.36,1.18.56a9.53,9.53,0,0,0,4,1.28,6.52,6.52,0,0,0,3.31-1.18,7.62,7.62,0,0,1,4-1.35,8.23,8.23,0,0,1,4.07,1.35,7.05,7.05,0,0,0,3.4,1.18,4.69,4.69,0,0,0,2.82-1.11,6.33,6.33,0,0,1,3.83-1.41,20.21,20.21,0,0,0,2.34-5.37l-4,1.15-1,1.41s-5.16.47-13.35.34c-11.75-.19-23.11-5-23.11-5l.08.37,8.42,3.38A32.19,32.19,0,0,1,137.76,241.35Z"/><path id="path15889" class="cls-33" d="M136,237.78a46.42,46.42,0,0,0,8.68,1.78c6.87.84,19.84-.89,19.84-.89s-13.58,1.9-19.64,1.2C135.7,238.81,136,237.78,136,237.78Z"/><path id="path15891" class="cls-33" d="M137.42,239.38a58.78,58.78,0,0,0,9.33,1.68c6.72.66,16.75-1,16.75-1s-10.56,1.82-16.43,1.29C138.2,240.59,137.42,239.38,137.42,239.38Z"/><g id="g15893"><g id="g15895"><path id="path15897" class="cls-2" d="M157.68,244.36a8.15,8.15,0,0,1-4-1.33,7.14,7.14,0,0,0-3.45-1.19,6.51,6.51,0,0,0-3.31,1.18,7.61,7.61,0,0,1-4,1.35,10.48,10.48,0,0,1-4.56-1.41,8.25,8.25,0,0,0-3.28-1.11,8.08,8.08,0,0,0-4.12,1.38.64.64,0,0,1-.87-.11.56.56,0,0,1,.12-.82,9.32,9.32,0,0,1,4.87-1.62,9.1,9.1,0,0,1,3.84,1.24,9.53,9.53,0,0,0,4,1.28,6.52,6.52,0,0,0,3.31-1.18,7.62,7.62,0,0,1,4-1.35,8.23,8.23,0,0,1,4.07,1.35,7.05,7.05,0,0,0,3.4,1.18,4.69,4.69,0,0,0,2.82-1.11,6.32,6.32,0,0,1,3.84-1.41,8.32,8.32,0,0,1,5.24,1.66.56.56,0,0,1,0,.82.65.65,0,0,1-.87,0,7.2,7.2,0,0,0-4.4-1.35,5.12,5.12,0,0,0-3.12,1.19A5.92,5.92,0,0,1,157.68,244.36Z"/></g></g></g></g><g id="g15899"><g id="g15901"><polygon id="polygon15903" class="cls-34" points="99.06 188.28 87.73 193.6 101.45 193.6 110.21 188.28 99.06 188.28"/><polygon id="polygon15905" class="cls-34" points="110.21 188.28 117.78 183.67 108.84 183.67 99.06 188.28 110.21 188.28"/><polygon id="polygon15907" class="cls-34" points="108.84 183.67 98.09 183.67 85.81 188.28 99.06 188.28 108.84 183.67"/><polygon id="polygon15909" class="cls-34" points="114.18 193.6 126.22 193.6 130.44 188.28 120.65 188.28 114.18 193.6"/><polygon id="polygon15911" class="cls-34" points="130.44 188.28 134.09 183.67 126.24 183.67 120.65 188.28 130.44 188.28"/><polygon id="polygon15913" class="cls-34" points="120.65 188.28 126.24 183.67 117.78 183.67 110.21 188.28 120.65 188.28"/><polygon id="polygon15915" class="cls-34" points="120.65 188.28 110.21 188.28 101.45 193.6 114.18 193.6 120.65 188.28"/><polygon id="polygon15917" class="cls-34" points="126.22 193.6 136.13 193.6 138.46 188.28 130.44 188.28 126.22 193.6"/><polygon id="polygon15919" class="cls-34" points="101.45 193.6 89.3 200.99 105.21 200.99 114.18 193.6 101.45 193.6"/><polygon id="polygon15921" class="cls-34" points="114.18 193.6 105.21 200.99 120.37 200.99 126.22 193.6 114.18 193.6"/><polygon id="polygon15923" class="cls-34" points="120.37 200.99 132.9 200.99 136.13 193.6 126.22 193.6 120.37 200.99"/></g><g id="g15925"><polygon id="polygon15927" class="cls-34" points="198.52 188.28 209.84 193.6 196.13 193.6 187.37 188.28 198.52 188.28"/><polygon id="polygon15929" class="cls-34" points="187.37 188.28 179.8 183.67 188.74 183.67 198.52 188.28 187.37 188.28"/><polygon id="polygon15931" class="cls-34" points="188.74 183.67 199.48 183.67 211.76 188.28 198.52 188.28 188.74 183.67"/><polygon id="polygon15933" class="cls-34" points="183.39 193.6 171.35 193.6 167.13 188.28 176.92 188.28 183.39 193.6"/><polygon id="polygon15935" class="cls-34" points="167.13 188.28 163.49 183.67 171.33 183.67 176.92 188.28 167.13 188.28"/><polygon id="polygon15937" class="cls-34" points="176.92 188.28 171.33 183.67 179.8 183.67 187.37 188.28 176.92 188.28"/><polygon id="polygon15939" class="cls-34" points="176.92 188.28 187.37 188.28 196.13 193.6 183.39 193.6 176.92 188.28"/><polygon id="polygon15941" class="cls-34" points="171.35 193.6 161.45 193.6 159.12 188.28 167.13 188.28 171.35 193.6"/><polygon id="polygon15943" class="cls-34" points="196.13 193.6 208.28 200.99 192.37 200.99 183.39 193.6 196.13 193.6"/><polygon id="polygon15945" class="cls-34" points="183.39 193.6 192.37 200.99 177.2 200.99 171.35 193.6 183.39 193.6"/><polygon id="polygon15947" class="cls-34" points="177.2 200.99 164.68 200.99 161.45 193.6 171.35 193.6 177.2 200.99"/></g></g><g id="g15949"><path id="path15951" class="cls-35" d="M143.79,191h8.16s-.29,2-.29,2.89c0,1.39.52,4.05,3.07,4.75s8,.06,9.15,3.3a26.46,26.46,0,0,1,1.27,4.75h-9.61c-3.24,0-7.41-.81-9.43-6.95A49.94,49.94,0,0,1,143.79,191Z"/><path id="path15953" class="cls-36" d="M145.93,191.4s.69,7.91,4.83,11,12.6,3.49,12.6,3.49-6.62-.09-9.38-.09-5.61-2.07-7.13-5.7a45,45,0,0,1-2.3-8.74Z"/><path id="path15955" class="cls-37" d="M150.45,191.43s-.57,5.91,2.34,7.49c3.22,1.75,7.78.44,9.24,2.47a6.45,6.45,0,0,1,1.33,3.86s-1.46-3.29-2.85-3.48-7.4-.57-9.17-2.15-2.4-5.5-2.21-8.18h1.33Z"/><path id="path15957" class="cls-38" d="M153.85,189.21a2.26,2.26,0,0,1-2.26,2.26h-8.21a2.26,2.26,0,0,1-2.26-2.26h0a2.26,2.26,0,0,1,2.26-2.26h8.21a2.26,2.26,0,0,1,2.26,2.26Z"/><g id="g15959"><g id="g15961"><path id="path15963" class="cls-39" d="M145.67,181.89c1.94-1.81,2.72-3.63.91-8.55s.78-8,3.5-14.64-1.56-15.42-2.2-20.87c-.48-4.06-.53-11.3-.53-14.71l-.12-.32a163.2,163.2,0,0,0-4,31.75c-.65,18.66.26,33.7.26,33.7l1.64,0C144.73,186,144.5,183,145.67,181.89Z"/><path id="path15965" class="cls-2" d="M147.34,123.12c0,3.41,0,10.65.53,14.71.65,5.44,4.92,14.26,2.2,20.87s-5.31,9.72-3.5,14.64,1,6.74-.91,8.55c-1.17,1.09-.93,4.1-.56,6.32l6.13-.1a29.54,29.54,0,0,1-.91-5.7c-.39-4.15,3-14.39,3.76-26.83C154.81,144,148.29,125.73,147.34,123.12Z"/></g><path id="path15967" class="cls-24" d="M143.61,188.24s-.91-15-.26-33.7a163.2,163.2,0,0,1,4-31.75s7.65,20.35,6.87,32.79-4.15,22.68-3.76,26.83a29.45,29.45,0,0,0,.91,5.7Z"/></g><path id="path15969" class="cls-40" d="M152.69,189.56a.54.54,0,0,1-.54.54H143a.54.54,0,0,1-.54-.54h0A.54.54,0,0,1,143,189h9.12a.54.54,0,0,1,.54.54Z"/></g><path id="path15971" class="cls-41" d="M60.92,266.52l.5,20.68-14.23-1s21.34,30.11,41.2,37.72l10.75-17.87a128.54,128.54,0,0,1-21.67-16.71C67.54,279.6,60.92,266.52,60.92,266.52Z"/><g id="g15973"><g id="g15975"><polygon id="polygon15977" class="cls-42" points="75.81 307.56 88.2 324.34 98.97 306.07 88.75 290.32 75.81 307.56"/></g></g><path id="path15979" class="cls-41" d="M237.14,266.52l-.5,20.68,14.23-1s-21.34,30.11-41.2,37.72l-10.75-17.87a128.54,128.54,0,0,0,21.67-16.71C230.52,279.6,237.14,266.52,237.14,266.52Z"/><polygon id="polygon15981" class="cls-42" points="222.25 307.56 209.86 324.34 199.09 306.07 209.3 290.32 222.25 307.56"/><path id="path15983" class="cls-41" d="M150.28,334c6.29,0,19-1.49,35.08-6s36.9-20.52,36.9-20.52L209.3,290.32s-22.29,22.2-60,22.2h-.51c-37.72,0-60-22.2-60-22.2L75.81,307.56s20.85,16,36.9,20.52,28.79,6,35.08,6Z"/><g id="g15985"><path id="path15987" class="cls-2" d="M87.82,305.68l1.49.71A2.82,2.82,0,0,0,89,308a1.59,1.59,0,0,0,.77,1.07,1.62,1.62,0,0,0,1.27.29,1.44,1.44,0,0,0,.9-.64,1.14,1.14,0,0,0,.2-.63,1.38,1.38,0,0,0-.27-.71q-.18-.27-.89-1.12a4.21,4.21,0,0,1-1-1.91,3.11,3.11,0,0,1,.5-2.21,3.25,3.25,0,0,1,1.12-1.08,2.47,2.47,0,0,1,1.46-.34,3.42,3.42,0,0,1,1.59.57,3,3,0,0,1,1.53,2,3.48,3.48,0,0,1-.55,2.42l-1.47-.83a2,2,0,0,0,.24-1.24,1.45,1.45,0,0,0-.71-.88,1.64,1.64,0,0,0-1.18-.3.85.85,0,0,0-.58.41.9.9,0,0,0-.13.68,3.93,3.93,0,0,0,.93,1.43,7.1,7.1,0,0,1,1.13,1.62A2.68,2.68,0,0,1,94,308a3.82,3.82,0,0,1-.63,1.6,3.74,3.74,0,0,1-1.25,1.22,2.63,2.63,0,0,1-1.59.39,3.85,3.85,0,0,1-1.74-.65,3.14,3.14,0,0,1-1.55-2.09A4.53,4.53,0,0,1,87.82,305.68Z"/><path id="path15989" class="cls-2" d="M98.33,303.86l1.49.79-2.69,5.06a14.87,14.87,0,0,0-.77,1.59,1.82,1.82,0,0,0,0,1.16,1.54,1.54,0,0,0,.8.87,1.45,1.45,0,0,0,1.13.18,1.57,1.57,0,0,0,.82-.6,15.06,15.06,0,0,0,.91-1.55l2.75-5.17,1.49.79-2.61,4.91a18.09,18.09,0,0,1-1.39,2.31,3.35,3.35,0,0,1-1.07.94,2.64,2.64,0,0,1-1.27.3,3.49,3.49,0,0,1-1.57-.47,3.76,3.76,0,0,1-1.44-1.16,2.75,2.75,0,0,1-.44-1.26,3.25,3.25,0,0,1,.13-1.26,16.2,16.2,0,0,1,1.11-2.45Z"/><path id="path15991" class="cls-2" d="M101.33,317.32l4.24-9.6,1.54.68-3.52,8,3.84,1.7-.72,1.63Z"/><path id="path15993" class="cls-2" d="M115.38,322.87l-1.73-.62.12-2.51-3.15-1.12-1.46,2-1.69-.6,6.63-8.87,1.68.6Zm-1.52-5,.24-4.09-2.38,3.32Z"/><path id="path15995" class="cls-2" d="M117.31,323.43l.74-10.75,1.67.44-.62,7.35,3.32-6.65,1.94.51-.45,7.53L127,315l1.64.43L124,325.19l-1.73-.45.39-8.08-3.6,7.24Z"/><path id="path15997" class="cls-2" d="M127.49,325.9l1.69-10.45,6.12,1-.29,1.77-4.45-.72-.37,2.32,4.14.67-.29,1.76-4.14-.67-.46,2.84,4.61.75-.29,1.76Z"/><path id="path15999" class="cls-2" d="M135.55,323.67l1.65-.07a2.82,2.82,0,0,0,.48,1.58,1.58,1.58,0,0,0,1.18.59,1.62,1.62,0,0,0,1.26-.34,1.44,1.44,0,0,0,.49-1,1.13,1.13,0,0,0-.12-.65,1.38,1.38,0,0,0-.57-.51q-.29-.15-1.31-.57a4.21,4.21,0,0,1-1.82-1.2,3.11,3.11,0,0,1-.6-2.19,3.25,3.25,0,0,1,.48-1.48,2.48,2.48,0,0,1,1.13-1,3.43,3.43,0,0,1,1.67-.24,3.05,3.05,0,0,1,2.29,1.06,3.48,3.48,0,0,1,.65,2.39l-1.69,0a2,2,0,0,0-.37-1.21,1.45,1.45,0,0,0-1-.44,1.64,1.64,0,0,0-1.18.29.85.85,0,0,0-.32.63.91.91,0,0,0,.2.66,3.93,3.93,0,0,0,1.49.83,7.09,7.09,0,0,1,1.76.9,2.68,2.68,0,0,1,.84,1.15,3.82,3.82,0,0,1,.2,1.71,3.75,3.75,0,0,1-.53,1.67,2.63,2.63,0,0,1-1.22,1.09,3.86,3.86,0,0,1-1.84.24,3.14,3.14,0,0,1-2.35-1.12A4.52,4.52,0,0,1,135.55,323.67Z"/><path id="path16001" class="cls-2" d="M143.8,327.67l.23-10.58,1.69,0-.23,10.58Z"/><path id="path16003" class="cls-2" d="M156.84,323.93l1.61-.37a2.82,2.82,0,0,0,.76,1.47,1.58,1.58,0,0,0,1.27.36,1.61,1.61,0,0,0,1.18-.56,1.44,1.44,0,0,0,.3-1.06,1.14,1.14,0,0,0-.24-.62,1.39,1.39,0,0,0-.65-.39q-.31-.1-1.39-.32a4.2,4.2,0,0,1-2-.84,3.11,3.11,0,0,1-1-2,3.26,3.26,0,0,1,.2-1.54,2.47,2.47,0,0,1,.92-1.18,3.42,3.42,0,0,1,1.6-.54,3,3,0,0,1,2.45.62,3.48,3.48,0,0,1,1.08,2.23l-1.67.27a2,2,0,0,0-.59-1.12,1.45,1.45,0,0,0-1.1-.24,1.64,1.64,0,0,0-1.11.5.85.85,0,0,0-.2.68.91.91,0,0,0,.32.61,3.92,3.92,0,0,0,1.62.54,7.07,7.07,0,0,1,1.89.56,2.67,2.67,0,0,1,1,1,3.83,3.83,0,0,1,.51,1.64,3.74,3.74,0,0,1-.22,1.74,2.62,2.62,0,0,1-1,1.29,3.86,3.86,0,0,1-1.77.58,3.14,3.14,0,0,1-2.52-.66A4.53,4.53,0,0,1,156.84,323.93Z"/><path id="path16005" class="cls-2" d="M165.81,326.37,164,315.94l6.11-1.07.31,1.76-4.44.78.41,2.31,4.14-.72.31,1.76-4.14.72.5,2.84,4.6-.81.31,1.76Z"/><path id="path16007" class="cls-2" d="M174,324.86l-2.51-10.2,1.64-.4,2.08,8.46,4.08-1,.43,1.73Z"/><path id="path16009" class="cls-2" d="M188.47,320.66l-1.75.57-1.44-2.06-3.18,1,.09,2.5-1.7.55-.18-11.08,1.7-.55Zm-4.25-3-2.31-3.38.14,4.09Z"/><path id="path16011" class="cls-2" d="M190.65,319.75l-3.29-8.16-2.3.93-.67-1.66,6.16-2.49.67,1.66-2.3.93,3.29,8.16Z"/><path id="path16013" class="cls-2" d="M201.92,314.59l-1.65.81-1.72-1.84-3,1.47.44,2.46-1.61.79-1.74-10.94,1.6-.79Zm-4.64-2.39-2.77-3,.72,4Z"/><path id="path16015" class="cls-2" d="M203.28,313.8l-5.6-9,1.39-.87,6.64,4.19-3.74-6,1.33-.83,5.6,9-1.44.9L201,307.11l3.65,5.86Z"/></g><g id="g16017"><path id="path16019" d="M125.5,304.27s3-3.07,3.62-3.17,2.43,1.85,3.33,3,2.19,2.31,1.91,2.4a7.66,7.66,0,0,1-.9.18l-4-3.51s-1.81,1.45-2.17,1.63l-.36.18Z"/><path id="path16021" d="M133.73,302.19H136a3.4,3.4,0,0,1,2,1.72,15.49,15.49,0,0,0,1.54,2.62s-.45.45-.72.45-2.17-3.53-2.17-3.53h-1.45C134.46,303.45,133.73,302.19,133.73,302.19Z"/><path id="path16023" d="M139,302.64a1.81,1.81,0,0,1,1.18.54,23.89,23.89,0,0,1,1.63,2.08,27.76,27.76,0,0,1,2.62-2.17c.54-.27,2.08.63,2.08.63l1.81.09A2.38,2.38,0,0,1,150,305c.24.38,2.71,2.62,2.44,2.89a1.34,1.34,0,0,1-.81.27l-3.6-3.63-1.9-.09-1,.27-2.73,2.63s-.82-.09-.91-.36S139,302.64,139,302.64Z"/><path id="path16025" d="M143.11,301.7a.19.19,0,0,1,0,.29l-.68.61a.25.25,0,0,1-.32,0l-.68-.61a.19.19,0,0,1,0-.29l.68-.61a.25.25,0,0,1,.32,0Z"/><path id="path16027" d="M160.52,308.28a.19.19,0,0,1,0,.29l-.68.61a.25.25,0,0,1-.32,0l-.68-.61a.19.19,0,0,1,0-.29l.68-.61a.25.25,0,0,1,.32,0Z"/><path id="path16029" d="M162.82,301.61a.19.19,0,0,1,0,.29l-.68.61a.25.25,0,0,1-.32,0l-.68-.61a.19.19,0,0,1,0-.29l.68-.61a.25.25,0,0,1,.32,0Z"/><path id="path16031" d="M151,304.77s1.8-1.94,2.84-1.58,2.61,2.43,3,2.38,1.37-.33,1.37-.64a6.3,6.3,0,0,0-1-2.33c-.5-.59-1.49-1.67-1.22-1.85a1.35,1.35,0,0,1,1.31,0c.32.27,2.62,4.2,2.62,5s-2.21,1.8-2.93,1.8-2.8-2.71-3.11-2.89-1.8.54-1.94.63a1.86,1.86,0,0,1-.68,0Z"/><path id="path16033" d="M161.09,305s2.35-2.17,3-2,3.16,2.71,3.79,2.39a4.64,4.64,0,0,0,1.08-.77s.81,1.26.59,1.58-.94,1-1.35,1a4.44,4.44,0,0,1-1.4-.68L164.93,305a6.25,6.25,0,0,1-1.86,1.15C162.26,306.36,161.09,305,161.09,305Z"/><path id="path16035" d="M166.91,303a11.31,11.31,0,0,1,2.3-1.17c.77-.18,1.85.86,2.35,1.13a10.09,10.09,0,0,1,1.49,1.31s-.68.72-1,.45-2.12-1.8-2.35-1.71a8.21,8.21,0,0,1-1.26.63A1.2,1.2,0,0,1,166.91,303Z"/></g><g id="g16037"><polygon id="polygon16039" class="cls-9" points="151.97 87.16 147.6 74.67 147.58 74.73 147.58 92.49 152 87.16 151.97 87.16"/><polygon id="polygon16041" class="cls-43" points="147.58 92.49 130.52 87.17 140.74 94.71 140.73 94.72 147.58 92.51 147.58 92.49"/><g id="g16043"><polygon id="polygon16045" class="cls-43" points="147.58 92.49 147.58 74.73 143.25 87.14 147.57 92.49 147.58 92.49"/><polygon id="polygon16047" class="cls-9" points="143.25 87.14 143.24 87.16 130.46 87.13 130.52 87.17 147.57 92.49 143.25 87.14"/></g><g id="g16049"><polygon id="polygon16051" class="cls-43" points="164.75 87.13 152 87.16 147.59 92.48 164.73 87.14 164.75 87.13"/><polygon id="polygon16053" class="cls-9" points="147.59 92.48 147.58 92.49 147.58 92.49 154.3 94.59 164.73 87.14 147.59 92.48"/></g><g id="g16055"><polygon id="polygon16057" class="cls-43" points="154.29 94.59 154.3 94.59 147.58 92.49 147.58 92.51 158.19 106.79 154.29 94.59"/><polygon id="polygon16059" class="cls-9" points="147.58 92.51 147.58 99.67 147.6 99.65 158.2 106.81 158.19 106.79 147.58 92.51"/></g><g id="g16061"><polygon id="polygon16063" class="cls-9" points="140.73 94.72 137 107.27 137.08 107.22 147.54 92.52 140.73 94.72"/><polygon id="polygon16065" class="cls-43" points="137.08 107.22 147.58 99.67 147.58 92.51 147.54 92.52 137.08 107.22"/></g></g><polygon id="polygon16067" class="cls-43" points="160.86 74.28 151.79 80.87 153.13 84.99 160.86 74.28"/><polyline id="polyline16069" class="cls-43" points="134.17 74.28 137.65 84.99 141.9 84.99"/><polygon id="polygon16071" class="cls-43" points="169.11 99.67 160.11 93.13 156.6 95.67 169.11 99.67"/><polygon id="polygon16073" class="cls-43" points="147.51 115.36 150.95 104.78 147.51 102.28 147.51 115.36"/><polygon id="polygon16075" class="cls-43" points="125.92 99.67 137.13 99.67 138.42 95.67 125.92 99.67"/><g id="g16077"><polygon id="polygon16079" class="cls-44" points="157.38 84.99 160.86 74.28 151.79 80.87 153.13 84.99 157.38 84.99"/><polygon id="polygon16081" class="cls-44" points="144.08 104.78 147.51 115.36 150.95 104.78 147.51 102.28 144.08 104.78"/><polygon id="polygon16083" class="cls-44" points="140.73 94.72 137 107.27 137.08 107.22 147.58 99.67 147.6 99.65 158.2 106.81 158.19 106.79 154.29 94.59 154.3 94.59 164.73 87.14 164.75 87.13 152 87.16 151.97 87.16 147.6 74.67 147.58 74.73 143.25 87.14 143.24 87.16 130.46 87.13 130.52 87.17 140.74 94.71 140.73 94.72"/><polygon id="polygon16085" class="cls-44" points="141.9 84.99 143.23 80.87 134.17 74.28 137.65 84.99 141.9 84.99"/><polygon id="polygon16087" class="cls-44" points="156.6 95.67 157.9 99.67 169.11 99.67 160.11 93.13 156.6 95.67"/><polygon id="polygon16089" class="cls-44" points="138.42 95.67 134.92 93.13 125.92 99.67 137.13 99.67 138.42 95.67"/></g></g></svg>