<svg id="Layer_1" data-name="Layer 1" xmlns="http://www.w3.org/2000/svg" viewBox="0 0 1080 406.02"><defs><style>.cls-1{font-size:106.38px;fill:#7a8288;font-family:Arial-BoldMT, Arial;font-weight:700;}.cls-2{letter-spacing:-0.07em;}.cls-3{fill:#18d1ff;}.cls-4{fill:#0166fe;}.cls-5{fill:#0100cc;}</style></defs><title>Diskominfo SulSel</title><text class="cls-1" transform="translate(373.35 177.23)">DISKOMINFO<tspan x="0" y="111.96">Pro</tspan><tspan class="cls-2" x="177.34" y="111.96">v</tspan><tspan x="228.61" y="111.96">. SulSel</tspan></text><path class="cls-3" d="M189.75,244.56s4.51,4.19,3.68,6.56c-1.91,5.44-10.48,8-16,6.46-8.88-2.4-17-12.6-16.92-21.8.12-13.5,13.92-24.43,25.38-31.56,11.8-7.35,26.78-9.34,40.67-9.11,15.13.25,31.27,3.11,43.93,11.39a40.06,40.06,0,0,1,15.62,19.85c1.56,4.51,0,14.32,0,14.32S298.49,223.5,303,214c5.35-11.35,13.22-23.33,11.71-35.79-.69-5.71-4.46-11.25-9.11-14.64-14.91-10.85-35.26-12.73-53.69-13.34-19.05-.63-38.43,3.43-56.29,10.09-12.17,4.53-24.09,10.93-33.52,19.85-10.62,10-20.8,22.28-24.4,36.44-2.34,9.18-1.84,19.94,2.6,28.31,4,7.56,11.91,13.08,19.85,16.27,7.77,3.12,17.08,4.53,25.06,2,5.27-1.7,12.52-5.2,12.69-10.74.26-8.16-8.13-7.81-8.13-7.81Z"/><path class="cls-4" d="M185.33,249.36s-1.18-3.63-.17-4.93c1.63-2.11,5.31-2.68,7.82-1.74,3.62,1.37,6.87,5.49,6.87,9.35,0,5-4.36,9.79-8.79,12-9.67,4.91-22.28,3.52-32.54,0-8.7-3-17.23-8.94-21.8-16.92-6.64-11.58-8.19-26.69-5.21-39.7,3-13.28,12.94-24.41,22.45-34.17a111.63,111.63,0,0,1,36.12-25.06c15.48-6.5,32.72-8.23,49.46-9.44,14.4-1,29.09-.74,43.28,2,8.9,1.69,17.9,4.19,25.7,8.79,3.07,1.81,7.93,7.16,7.93,7.16s-2.13-27.39-6.3-40.35c-3.61-11.22-7.45-23.4-15.94-31.56-6-5.78-14.62-8.64-22.78-10.39-15.5-3.31-31.92-2.52-47.51.3-18.2,3.29-35.8,10.38-52.11,19.12a180.69,180.69,0,0,0-41.94,30.67c-10.07,10-19.56,21.23-25.38,34.17a101.81,101.81,0,0,0-8.79,42,78.07,78.07,0,0,0,7.48,33.52c4.71,9.62,12.27,17.88,20.5,24.73a77.84,77.84,0,0,0,24.4,13.63,69.16,69.16,0,0,0,26,3.94c10.25-.58,21.92-1.39,29.74-8,4.57-3.89,7.87-10.42,7.4-16.4-.33-4.19-3.33-8.34-6.9-10.55-3.9-2.42-9.24-3.91-13.68-2.72-4.11,1.1-7.57,3.31-8.09,6.75-.25,1.63,2.72,3.89,2.72,3.89Z"/><path class="cls-5" d="M186.7,252.27s-6.31-1.28-8-3.63a10.57,10.57,0,0,1,.12-11.66c3.81-5.66,12-7.83,18.8-8.09,11.53-.47,25.62,2,32.8,11.06,6,7.53,7.21,20.16,2.86,28.75s-15.71,12-25,14.74C193.86,287.77,178,288,163,285.64A121.41,121.41,0,0,1,119.16,269c-14.7-9-28.18-20.73-38.33-34.64A133.92,133.92,0,0,1,58,183.92c-3.46-16.35-3-33.74.37-50.12a147.08,147.08,0,0,1,21.74-52c8-12,18.84-22.22,30.59-30.59,10.57-7.52,22.73-12.81,35-17a116.81,116.81,0,0,1,31-6.27,145.77,145.77,0,0,1,39.07,3.69,123.73,123.73,0,0,1,31,11.06C258.1,48.79,278,65.6,278,65.6s-40.36-3.86-60.08-.37a193.5,193.5,0,0,0-66.34,24.69c-15,9.13-28.26,21.53-39.07,35.38a122.35,122.35,0,0,0-19.89,37.23,116.12,116.12,0,0,0-5.9,42.38,73.86,73.86,0,0,0,7.37,28,75,75,0,0,0,17.69,22.85,98.66,98.66,0,0,0,32.06,18.8A87.06,87.06,0,0,0,173.72,279c8.6-.11,17.77-.5,25.43-4.42,6.42-3.28,13.29-8.23,15.48-15.11,1.79-5.59.7-12.88-3.14-17.32s-10.68-5.53-16.47-5.53c-4.25,0-9,1.12-12.09,4.05a6,6,0,0,0-2,6c.71,2.6,5.75,5.58,5.75,5.58h0ZM71.16,304,56.71,317.84l-5.41,5.48Q59,332.1,66.77,340.83l5.16,6.37v.32l-3.5-.19-3.57.19q-1-1.46-2.17-2.93t-2.23-2.88L46.58,325.46a1.63,1.63,0,0,0-.83-.32q-.26.06-.26.13V347.5l-2.8-.19-2.8.19V303.94l2.8.19,2.8-.19v19.68q.06.25.57.13a2.93,2.93,0,0,0,1.1-.51q.51-.45,2.1-2,.57-.57,1.21-1.15l15.67-16.17,2.55.19Z"/><path id="B" class="cls-5" d="M117.15,325.21a31.66,31.66,0,0,0-.83-7.64,16.68,16.68,0,0,0-3.18-6.37,15.52,15.52,0,0,0-5.86-4.59A17.38,17.38,0,0,0,99.89,305q-8.34,0-13.18,5.86t-4.78,15.54q0,9.36,5.1,14.71a16.3,16.3,0,0,0,12.29,5,15.67,15.67,0,0,0,13.95-7.77,23.82,23.82,0,0,0,3.88-13.12Zm-18,23q-10.64,0-17.07-6.11t-6.37-16.43q0-10.25,6.81-16.62,6.56-6.11,16.75-6.11,9.93,0,16.56,5.16,7.58,5.92,7.58,16.62t-6.75,17.07q-6.75,6.45-17.52,6.45Z"/><path class="cls-5" d="M173,304h1.34q1.34,12.67,1.66,15.54,1,9.36,1.66,14.58t1.85,13.44l-3-.19-3,.19-1.1-12.17q-.45-5.8-1.1-11.46t-1.1-9.24q-3.88,7-6.75,12.23-3.31,6.11-5.54,10.57-2.42,4.9-4.39,9.36h-.69l-3.5-7.2q-2.29-4.78-4.08-8.23t-4.39-8.47q-2.23-4.14-4.39-8.28-1.1,9.11-2.1,18.4a141.85,141.85,0,0,0-1,14.46l-2.23-.19-2.29.19q1.34-8.28,3.5-23.5t2.61-20.06h1.65L142,314.57q2.55,4.9,6,11.27,3.82,6.94,6.56,11.46l18.34-33.37Zm15.74,43.59V304l2.8.19,2.8-.19v43.56l-2.8-.19Zm55-43.59v43.56h-1.91l-3.31-3.88L211,313.19h-.64v34.33l-1.78-.19-1.78.19V304h2.47l30.25,32.8h.64V304l1.78.19Zm11.93,43.59V304h22.61l-.19,1.91.19,1.91q-1.91-.38-3.12-.51a16.68,16.68,0,0,0-2.61-.19l-6.37-.13h-4.9v16h9.87q1.21,0,3.18-.13t2.47-.19l-.19,1.66.19,1.78q-1.15,0-3.18-.13t-2.47-.19h-9.87v21.78l-2.8-.19Z"/><path id="B-2" data-name="B" class="cls-5" d="M325.92,325.21a31.66,31.66,0,0,0-.83-7.64,16.68,16.68,0,0,0-3.18-6.37,15.52,15.52,0,0,0-5.86-4.59,17.38,17.38,0,0,0-7.39-1.59q-8.34,0-13.18,5.86t-4.78,15.54q0,9.36,5.1,14.71a16.3,16.3,0,0,0,12.29,5A15.67,15.67,0,0,0,322,338.33a23.82,23.82,0,0,0,3.88-13.12Zm-18,23q-10.64,0-17.07-6.11t-6.37-16.43q0-10.25,6.81-16.62,6.56-6.11,16.75-6.11,9.93,0,16.56,5.16,7.58,5.92,7.58,16.62t-6.75,17.07q-6.75,6.45-17.52,6.45Z"/></svg>