<svg id="Layer_1" data-name="Layer 1" xmlns="http://www.w3.org/2000/svg" xmlns:xlink="http://www.w3.org/1999/xlink" viewBox="0 0 1080 406.02"><defs><style>.cls-1,.cls-2{font-size:181.62px;fill:#7a8288;font-family:Poppins-Bold, Poppins;font-weight:700;}.cls-1{letter-spacing:0.04em;}.cls-2{letter-spacing:0.09em;}.cls-3,.cls-30{fill:#fff;}.cls-4{fill:#5d6f7a;}.cls-5{fill:#c3d4dd;}.cls-14,.cls-15,.cls-16,.cls-17,.cls-25,.cls-30,.cls-5{stroke:#636466;}.cls-14,.cls-15,.cls-16,.cls-17,.cls-18,.cls-19,.cls-20,.cls-21,.cls-22,.cls-25,.cls-26,.cls-27,.cls-30,.cls-35,.cls-36,.cls-39,.cls-42,.cls-43,.cls-45,.cls-5,.cls-6,.cls-7,.cls-8{stroke-linejoin:round;}.cls-6{fill:#009042;}.cls-26,.cls-6{stroke:#064926;}.cls-14,.cls-15,.cls-16,.cls-17,.cls-18,.cls-19,.cls-20,.cls-21,.cls-22,.cls-25,.cls-26,.cls-27,.cls-35,.cls-36,.cls-39,.cls-42,.cls-43,.cls-45,.cls-6,.cls-7,.cls-8{stroke-linecap:round;}.cls-7,.cls-8{fill:#e8b909;}.cls-19,.cls-20,.cls-21,.cls-22,.cls-36,.cls-45,.cls-7,.cls-8{stroke:#8e4a02;}.cls-7{stroke-width:2px;}.cls-18,.cls-20,.cls-22,.cls-26,.cls-27,.cls-8{stroke-width:0.5px;}.cls-9{fill:#ffe85e;}.cls-10,.cls-20{fill:#d3a809;}.cls-11{fill:#28903b;}.cls-12{fill:#ffd400;}.cls-13{fill:#0072bc;}.cls-14{fill:#8c8c8c;}.cls-15{fill:#636466;}.cls-16{fill:url(#linear-gradient);}.cls-17{fill:url(#linear-gradient-2);}.cls-18,.cls-19,.cls-38,.cls-39{fill:#dd954d;}.cls-18,.cls-27{stroke:#8d3803;}.cls-21,.cls-22,.cls-36{fill:#915a26;}.cls-23{fill:#666;}.cls-24{fill:#bcbec0;}.cls-25,.cls-45{fill:none;}.cls-26{fill:#9cb227;}.cls-27{fill:#b76e11;}.cls-28{fill:#f7941e;}.cls-29{fill:#ffd15e;}.cls-31{fill:#91672f;}.cls-32{fill:#9b6e33;}.cls-33{fill:#ba8440;}.cls-34{fill:#eea852;}.cls-35{fill:#4bb857;stroke:#2e7537;}.cls-36,.cls-39{stroke-width:0.75px;}.cls-37{fill:#7c3f00;}.cls-39{stroke:#905501;}.cls-40{fill:#bacad3;}.cls-41{fill:#ffd830;}.cls-42{fill:#d71920;}.cls-42,.cls-43{stroke:#8b0304;stroke-width:1.5px;}.cls-43{fill:#b11116;}.cls-44{fill:#f2c24b;}</style><linearGradient id="linear-gradient" x1="123.71" y1="310.22" x2="123.71" y2="345.66" gradientTransform="matrix(1, 0, 0, -1, 0, 546.06)" gradientUnits="userSpaceOnUse"><stop offset="0" stop-color="#636466"/><stop offset="0.01" stop-color="#656668"/><stop offset="0.16" stop-color="#838588"/><stop offset="0.31" stop-color="#9b9da0"/><stop offset="0.46" stop-color="#adafb2"/><stop offset="0.6" stop-color="#b8babc"/><stop offset="0.72" stop-color="#bcbec0"/><stop offset="1" stop-color="#dcddde"/></linearGradient><linearGradient id="linear-gradient-2" x1="225.92" y1="310.22" x2="225.92" y2="345.66" xlink:href="#linear-gradient"/></defs><title>dprd-gray</title><text class="cls-1" transform="translate(339.95 186.45)">DPRD</text><text class="cls-2" transform="translate(339.95 360.14)">SULSEL</text><g id="g18228"><path id="path15449" class="cls-3" d="M181.36,391.85c43.8,0,70.52-18.94,70.52-18.94s3.94,5.72,5.69,6.16,4.82-.88,4.82-.88c20.59-7.48,56.07-48.84,59.13-54.56s3.78-14.08,3.78-14.08l-20-.44s.09-26,.09-29.48-7.54-5.28-7.54-5.28c31.54-36.08,51.25-106,10.07-167.64s-113.49-81-113.49-81l.88-15L179.5,18.71,174.15,7.27h-1.6l-5.93,11.88L150,9,150,26.63S81.2,45.11,40,106.71,18.56,238.27,50.1,274.35c0,0-6.63,1.76-6.63,5.28s1,29.48,1,29.48l-21.8.44s.72,8.36,3.78,14.08S65,370.71,85.58,378.19c0,0,3.07,1.32,4.82.88s5.69-6.16,5.69-6.16,26.72,18.94,70.52,18.94Z"/><path id="path15451" class="cls-4" d="M97.12,136.39c.33-.11,9.95-8.86,17.71-16.62s10.6-11,16-11.92a19.07,19.07,0,0,1,9.4.77s13.45-16.18,16.07-19.46,10.46-10.69,13.12-11.7c2.26-.86,3.39,0,4.81.77S187.71,89.55,194,96.82c5.35,6.19,20.88,20.33,20.88,20.33a6.71,6.71,0,0,1,6.89-1.86c4.59,1.09,16.51,9.07,23.07,15.63s8.53,8,9.4,8.31-2.41,1-4.26-.11-11.48-11.92-16.4-15.2-12.24-7.43-14.21-6.34-3.61,3.83-4.7,3.61a2.32,2.32,0,0,1-1.53-1s-19.38-20.85-31.38-31.6c-3.17-2.84-10.47-8.59-12.44-8.34-3,.38-13.47,12.06-16.31,15.89s-12,14.65-12.57,16.18a11.1,11.1,0,0,0-11.59.33A80,80,0,0,0,112.1,127.1c-3.61,4.15-8,8.86-10.06,9.62S97.12,136.39,97.12,136.39Z"/><path id="path15453" class="cls-4" d="M90,146.78s10.71-6,17.71-3.39a37.28,37.28,0,0,1,11.92,7.54,14.66,14.66,0,0,1,13.56-6.34c9.29.76,12.79,4.26,12.79,4.26s12.46-19.46,30.94-16.51A41.64,41.64,0,0,1,204.15,149s6.67-6.34,14.1-4.7a24.58,24.58,0,0,1,11.81,6.34s8.64-8.86,16.51-8.09a28.84,28.84,0,0,1,13.45,5l-1.86,1.31s-8-4.7-13-3.94a23.73,23.73,0,0,0-12.35,6.89,21,21,0,0,1-2.3,2.62s-7.43-8.75-15.52-7.11-11.81,5.36-11.81,5.36S191,134.86,175.94,134.53s-29.63,17.93-29.63,17.93-8.42-6.89-15.09-5-11.92,8-11.92,8-7.65-10.17-14.54-9.95-11.92,2.41-12.68,2.41A5,5,0,0,1,90,146.78Z"/><g id="g15455"><g id="g15457"><path id="path15459" class="cls-5" d="M242.42,56.27a5.37,5.37,0,0,0-8.42-4.2,5.37,5.37,0,0,0-8.91-2.75c-5.19-4.21-10-6.1-12-4.3s-.53,6.22,2.86,11.31a5.36,5.36,0,0,0,3.52,10,5.37,5.37,0,1,0,10,3.32c3.6,2.18,6.65,2.88,8.08,1.55,1.6-1.49.8-5.16-1.71-9.48a5.36,5.36,0,0,0,6.52-5.47Z"/><path id="path15461" class="cls-6" d="M217.54,78.5s-.83-3.88,2.27-5a14.14,14.14,0,0,1,6.06-.69s-1.08-5.07,2-6.93,6.29.56,6.29.56-1.25-4.9,1-6.51a7.39,7.39,0,0,1,4.62-1.39s1-6.78,6.74-5.17c0,0-2.8,3.27-.48,6.76s6.2,10.51,5.11,15.77-6.31,10.37-12.89,9-13-8.81-16-8.68A6.52,6.52,0,0,0,217.54,78.5Z"/><path id="path15463" class="cls-3" d="M214.25,46.71c.09-.59,4.64-.37,7.1,2.18S225,51.68,225,51.68s2.77-2.82,4.69-1.84,3.23,4,3.23,4,3-2.3,4.68-.67,1.75,2.52,0,2.65-2.42-.19-3.08,1-1.44,2.18-2.39,2-2.13,1.09-2.28,1.86-.53,1.49-1.11,1.64-1.15-.84-2.46.22-3.08,2.31-3,3.25-1.82-1.34-.41-2.75,2.71-2.7,1.71-2.84a11.79,11.79,0,0,0-3.17.31c-1.11.16-5.44.82-5-.79s1.79-2.25,2.83-2.83a13.69,13.69,0,0,0,3-1.95c.16-.36-2.1-1-4-2.31s-1.37-3.12-1.58-3.88S214.25,46.71,214.25,46.71Z"/></g><g id="g15465"><path id="path15467" class="cls-5" d="M245.06,84.8s-4.27-8.81-1.34-10.41,8.95,1.47,8.95,1.47.13-6.41,2.8-6.68,5.61,6.68,5.61,6.68,3.2-4.81,6-4.67,2.4,12.82.8,17.22-9.61,8.41-13,8.81a51.2,51.2,0,0,1-12.82-.93c-1.47-.53-1.34-1.2-1.34-2S246,90.81,246,90.81s-8.41-2-7.88-4.27S245.06,84.8,245.06,84.8Z"/><path id="path15469" class="cls-6" d="M259.48,90.14s-.27-4.81,2-5.74,6.68-.8,6.68-.8,1.47-6,5.34-6.41c.53,2.67-1.07,7.48-.67,12.55s-.13,11.88-3.34,13.48-13.22.4-16.29-.4-7.61-1.87-9.88-.67c0,0,2.94-4.41,5.74-5.21a16.85,16.85,0,0,1,3.74-.8,3,3,0,0,1-.53-4.27C254.14,89.48,259.48,90.14,259.48,90.14Z"/><path id="path15471" class="cls-3" d="M244.65,76.4c.9-1.05,3.86-1.3,5.91.1a35.36,35.36,0,0,1,3.81,3.05,15,15,0,0,1,0-4.66c.45-1.7,1-3.61,1-3.61s1.35,5.21,1.65,6.61,1.6,2.6,1.9,2.4a23.85,23.85,0,0,0,3.81-4.16,10.31,10.31,0,0,1,3.61-3.1c.3-.1-1.2,4.56-1.55,6.36s.05,1.9.05,1.9-4,.35-5.61,2.05a19.2,19.2,0,0,0-2.8,3.91s-4.11,1.15-5.36,2.9-.75,2.55-3,3.41a18,18,0,0,1-5.56,1c.2-.1,4.06-2.25,5.51-3.36a3.34,3.34,0,0,0,1.5-2.25s-3.86-1.6-5.71-1.65a10.88,10.88,0,0,1-3.51-.75s1.35-1,4.51-.65,4.86.5,4.86.5A11.11,11.11,0,0,1,247,83.31c-1-1.75.55-2.6.2-3.51A22.61,22.61,0,0,0,244.65,76.4Z"/></g><g id="g15473"><path id="path15475" class="cls-5" d="M263.85,104.42s-3-10.95.72-12.14,9.87,3.6,9.87,3.6,1.53-7.27,4.63-7S284,97.68,284,97.68s4.68-4.78,7.84-4,0,15.11-2.8,19.78-12.75,7.5-16.64,7.24-12.83-2.9-14.39-3.82-1.26-1.66-1.09-2.57,6.67-2.83,6.67-2.83-9.14-4.09-8-6.56S263.85,104.42,263.85,104.42Z"/><path id="path15477" class="cls-6" d="M279.11,113.6s.73-5.53,3.51-6.1,7.77.53,7.77.53,3-6.52,7.46-6.14c0,3.15-2.82,8.28-3.46,14.14s-2.71,13.5-6.7,14.63-15.13-2.39-18.45-4-8.26-3.77-11.1-2.89c0,0,4.29-4.38,7.65-4.69a19.56,19.56,0,0,1,4.43-.11,3.45,3.45,0,0,1,.31-5C273.17,111.69,279.11,113.6,279.11,113.6Z"/><path id="path15479" class="cls-3" d="M265.19,94.76c1.25-1,4.67-.65,6.7,1.39a41.06,41.06,0,0,1,3.67,4.3,17.29,17.29,0,0,1,1-5.3c.88-1.84,1.92-3.89,1.92-3.89s.42,6.22.46,7.88,1.26,3.31,1.65,3.15a27.66,27.66,0,0,0,5.23-3.91,12,12,0,0,1,4.77-2.76c.36,0-2.35,4.93-3.14,6.9s-.35,2.18-.35,2.18-4.58-.45-6.83,1.13a22.22,22.22,0,0,0-4,3.84s-4.92.43-6.72,2.15-1.4,2.75-4.15,3.23a20.86,20.86,0,0,1-6.53-.11c.25-.07,5.1-1.69,7-2.63a3.87,3.87,0,0,0,2.19-2.24s-4-2.65-6.14-3.11a12.6,12.6,0,0,1-3.83-1.61s1.74-.79,5.27.23,5.42,1.62,5.42,1.62a12.87,12.87,0,0,1-2.36-4c-.71-2.2,1.19-2.85,1-3.95A26.19,26.19,0,0,0,265.19,94.76Z"/></g><g id="g15481"><path id="path15483" class="cls-5" d="M281.93,128.41s.18-11.34,4.06-11.47,8.48,6.19,8.48,6.19,3.48-6.56,6.39-5.44,2.31,9.83,2.31,9.83,5.82-3.3,8.65-1.69-4.21,14.51-8.17,18.23-14.33,3.68-18,2.35-11.53-6.34-12.76-7.66-.75-1.94-.33-2.77,7.2-.87,7.2-.87-7.65-6.46-5.91-8.53S281.93,128.41,281.93,128.41Z"/><path id="path15485" class="cls-6" d="M294,141.46s2.23-5.11,5.07-4.89,7.32,2.66,7.32,2.66,4.66-5.45,8.87-3.84c-.84,3-5,7.17-7.24,12.63s-6.34,12.22-10.49,12.2-13.88-6.49-16.63-8.92-6.89-5.91-9.87-5.85c0,0,5.34-3,8.65-2.39a19.5,19.5,0,0,1,4.28,1.12,3.45,3.45,0,0,1,1.68-4.7C288.88,138,294,141.46,294,141.46Z"/><path id="path15487" class="cls-3" d="M285.9,119.5c1.48-.62,4.67.67,6.06,3.19a41,41,0,0,1,2.34,5.15,17.29,17.29,0,0,1,2.43-4.82c1.36-1.52,2.92-3.2,2.92-3.2s-1.32,6.09-1.74,7.7.3,3.53.71,3.48a27.61,27.61,0,0,0,6.11-2.31,12,12,0,0,1,5.35-1.33c.36.05-3.62,4.08-4.93,5.77s-.94,2-.94,2-4.27-1.7-6.87-.81a22.25,22.25,0,0,0-4.94,2.57s-4.85-1-7.06.21-2.11,2.25-4.88,2a20.83,20.83,0,0,1-6.24-1.92c.26,0,5.37-.21,7.45-.59a3.86,3.86,0,0,0,2.73-1.55s-3.15-3.67-5-4.69a12.6,12.6,0,0,1-3.23-2.61s1.9-.28,5,1.68,4.76,3.05,4.76,3.05a12.86,12.86,0,0,1-1.15-4.54c-.07-2.31,1.93-2.4,2-3.52A26.26,26.26,0,0,0,285.9,119.5Z"/></g><g id="g15489"><path id="path15491" class="cls-5" d="M289.39,156.54s3.05-11.33,7.27-10.55,7.61,8.19,7.61,8.19,5.42-5.76,8.27-4,0,10.4,0,10.4,7.12-1.94,9.78.32-8.2,13.56-13.41,16.37-16.41.34-20-1.85S278,166.41,277,164.8s-.33-2.12.34-2.85,8,.81,8,.81-6.64-8.27-4.24-9.93S289.39,156.54,289.39,156.54Z"/><path id="path15493" class="cls-6" d="M299.2,172s3.7-5,6.71-4,7.24,4.71,7.24,4.71,6.4-4.71,10.55-1.91c-1.68,3.07-7.22,6.49-11,11.82s-9.93,11.6-14.41,10.54-13.36-10.5-15.72-13.82-6-8.12-9.19-8.8c0,0,6.53-1.92,10-.4a21.69,21.69,0,0,1,4.35,2.29s-.83-3.82,3-4.65S299.2,172,299.2,172Z"/><path id="path15495" class="cls-3" d="M295.92,148.54c1.76-.27,4.87,1.76,5.74,4.61a39.52,39.52,0,0,1,1.23,5.71,18.13,18.13,0,0,1,3.84-4.26c1.85-1.21,4-2.53,4-2.53s-3,5.8-3.82,7.31-.57,3.61-.11,3.65a32.93,32.93,0,0,0,7.18-.89,14.26,14.26,0,0,1,6.11-.08c.38.14-4.94,3.25-6.77,4.63s-1.52,1.78-1.52,1.78-4.19-2.71-7.22-2.41a26.17,26.17,0,0,0-6,1.43s-5-2.09-7.68-1.44-2.85,1.76-5.77.82a23.49,23.49,0,0,1-6.26-3.38c.28.06,5.86,1,8.2,1.15a4.48,4.48,0,0,0,3.34-.91s-2.48-4.42-4.26-5.88a13.11,13.11,0,0,1-2.84-3.37s2.12.16,5,2.85,4.38,4.17,4.38,4.17a12.33,12.33,0,0,1-.1-4.82c.51-2.33,2.69-2,3.09-3.05A25.14,25.14,0,0,0,295.92,148.54Z"/></g><g id="g15497"><path id="path15499" class="cls-5" d="M287.28,188.57s5.82-11.13,10-9.33,6,10.32,6,10.32,7-4.76,9.56-2.22-2.39,10.87-2.39,10.87,7.89-.38,10.14,2.6-11.71,12.27-17.81,14-17.22-3.45-20.5-6.58-9.24-12-9.92-13.89.15-2.29,1-2.9,8.16,2.7,8.16,2.7-5-10.18-2.13-11.36S287.28,188.57,287.28,188.57Z"/><path id="path15501" class="cls-6" d="M293.95,207s5-4.32,7.94-2.63,6.47,6.6,6.47,6.6,7.78-3.44,11.46.45c-2.46,2.82-9,5.11-14.24,9.8s-13.06,9.82-17.5,7.67-11.52-14.07-13.22-18.09-4.34-9.86-7.56-11.33c0,0,7.26-.49,10.49,1.89a23.15,23.15,0,0,1,4,3.4s0-4.19,4.21-4.16S293.95,207,293.95,207Z"/><path id="path15503" class="cls-3" d="M296,181.73c1.9.12,4.68,3,4.93,6.15a42.26,42.26,0,0,1,0,6.25,19.42,19.42,0,0,1,5-3.56c2.21-.84,4.72-1.73,4.72-1.73s-4.44,5.37-5.69,6.75-1.43,3.64-1,3.79a35.21,35.21,0,0,0,7.71.73,15.25,15.25,0,0,1,6.41,1.33c.36.23-5.92,2.25-8.15,3.27s-2,1.51-2,1.51-3.75-3.8-7-4.2a28,28,0,0,0-6.58.1s-4.74-3.34-7.68-3.29-3.38,1.18-6.22-.48a25.13,25.13,0,0,1-5.76-5c.28.13,5.88,2.45,8.3,3.1a4.8,4.8,0,0,0,3.7-.18s-1.57-5.19-3.09-7.13a14,14,0,0,1-2.18-4.18s2.17.66,4.54,4.13,3.6,5.38,3.6,5.38a13.18,13.18,0,0,1,1-5.06c1.07-2.32,3.27-1.42,3.93-2.47S296,181.73,296,181.73Z"/></g><g id="g15505"><path id="path15507" class="cls-5" d="M273.54,219.95s10.78-9.21,14.45-5.56,2,13.36,2,13.36,9.33-2,10.95,1.69-7.07,10.38-7.07,10.38,8.43,2.92,9.53,7S286,254.74,278.85,254s-16.6-10.86-18.71-15.51-4.65-16.43-4.55-18.73,1.12-2.34,2.28-2.62,7.42,6.26,7.42,6.26-1-12.77,2.55-12.8S273.54,219.95,273.54,219.95Z"/><path id="path15509" class="cls-6" d="M272.79,242s7.07-2.42,9.42.58,4,9.64,4,9.64,9.6-.33,11.82,5.29c-3.77,1.92-11.63,1.55-19,4.28s-17.82,4.79-21.56.68-6.15-19.59-6.25-24.52-.4-12.16-3.15-15c0,0,7.82,2.54,10.2,6.39a26.12,26.12,0,0,1,2.77,5.25s1.78-4.38,6.16-2.59S272.79,242,272.79,242Z"/><path id="path15511" class="cls-3" d="M285.51,216.43c1.94.93,3.66,5.08,2.58,8.52a47.84,47.84,0,0,1-2.66,6.53s4.07-1.68,6.74-1.63,5.68.18,5.68.18-6.91,3.76-8.8,4.68-3,3.21-2.6,3.57a39.81,39.81,0,0,0,7.77,4,17.23,17.23,0,0,1,6.15,4.09c.28.4-7.15-.13-9.91,0s-2.73.74-2.73.74-2.33-5.56-5.55-7.33a31.62,31.62,0,0,0-6.94-2.66s-3.56-5.49-6.67-6.68-4-.19-6.31-3.12a28.42,28.42,0,0,1-3.94-7.65c.24.25,5.13,5,7.39,6.74s4,1.37,4,1.37.54-6.1-.24-8.77a15.83,15.83,0,0,1-.53-5.29s2,1.61,3,6.24,1.51,7.15,1.51,7.15a14.88,14.88,0,0,1,3.19-4.88c2.1-2,4-.12,5.16-.94S285.51,216.43,285.51,216.43Z"/></g><g id="g15513"><path id="path15515" class="cls-5" d="M256.62,251.5s11.76-3.55,13.54,1.32-3.06,11.44-3.06,11.44,8.57,3.59,8.45,7.66-10.79,6.43-10.79,6.43,6.41,6.2,5.69,10.36-19.15-.16-25.28-3.85-10.47-16.85-10.43-22,2.12-17.34,3.18-19.38,3.84-5.25,5-5S247,246,247,246s3.85-8.76,7.06-7.29S256.62,251.5,256.62,251.5Z"/><path id="path15517" class="cls-6" d="M244.72,271.47s7.43.79,8.3,4.5-.44,10.43-.44,10.43,8.84,3.75,8.49,9.78c-4.23.15-11.19-3.5-19.07-4.15s-18.18-3.17-19.84-8.48,2.68-20.36,4.68-24.86,4.76-11.2,3.49-15c0,0,6,5.6,6.55,10.1a26.14,26.14,0,0,1,.3,5.93s3.46-3.22,6.68.25S244.72,271.47,244.72,271.47Z"/><path id="path15519" class="cls-3" d="M267.06,253.61c1.37,1.66,1.18,6.15-1.25,8.81a47.84,47.84,0,0,1-5.17,4.8s4.4.19,6.79,1.37,5.07,2.55,5.07,2.55-7.85.5-10,.54-4.1,1.63-3.86,2.14a39.81,39.81,0,0,0,5.35,6.91,17.24,17.24,0,0,1,3.85,6.3c.09.48-6.42-3.13-9-4.19s-2.79-.48-2.79-.48.23-6-1.94-9A31.63,31.63,0,0,0,249,268s-.91-6.48-3.23-8.87-3.58-1.87-4.4-5.49,1-12.08,1.13-11.75,1.17,7.3,2.51,9.8,2.89,5.49,2.89,5.49,3.06-5.3,3.48-8.06a48,48,0,0,1,1.38-5.86,12.79,12.79,0,0,1,.48,7.77c-1,4.63-1.64,7.12-1.64,7.12a14.88,14.88,0,0,1,5-3.08c2.74-.91,3.67,1.4,5.08,1.33A8.5,8.5,0,0,0,267.06,253.61Z"/></g></g><g id="g15521"><g id="g15523"><g id="g15525"><path id="path15527" class="cls-7" d="M112.38,61.61c3.36-4,11.18-6,15-10.66,2.69-3.3,4.3-8.87,5.68-7.5s-2.41,17.82-6,23.66c-4,6.41-11.18,9.11-13.93,12.9s-8.43,13.59-15.82,17.71-12.55,4.47-14.62,7.39c0,0,.86-3.61,6.53-5.85a35.29,35.29,0,0,0,16.39-12.91c4.81-6.88,3.73-13.92,3.9-16.84S109.8,64.7,112.38,61.61Z"/><path id="path15529" class="cls-7" d="M102.93,63.33c1.31-2.22,3.27-6.36,5-6.36s-1.55,5.33-2.06,7.57S103.61,84,99.31,87.23s-17.37,14.1-19.09,22.53S71,126.07,67.94,128.82s-4.26,2.32-4.26,2.32,8.42-9.56,10.18-11.42c3.1-3.27,4.3-8.94,5.68-13.41s5.68-8.6,6.88-13.07-1.55-10.83,4.47-18.06S101.21,66.25,102.93,63.33Z"/><path id="path15531" class="cls-7" d="M78.65,80c1-2.37,4-5.32,5.7-5.53S82.29,77.6,82.81,81c.34,2.27-1,19.4-4.83,23.16s-12.56,16.08-13.24,24.66a27.72,27.72,0,0,1-7.5,16.86,20.4,20.4,0,0,0-4,7.48c-.33,1.32-.9-5-.9-5s5.78-6.58,7.29-8.64c2.68-3.62,3.18-9.4,4-14s1.62-9.2,2.27-13.78-3.15-11.63,1.94-19.53S77.3,83.15,78.65,80Z"/><path id="path15533" class="cls-7" d="M53.8,103c.35-2.55,2.42-6.2,4-6.86s-1.15,3.54.27,6.71c.94,2.09,4.71,19.54,2,24.21s-8.18,18.27-6.53,26.71-1,13.81-2.76,17.54-3.7,3.36-3.7,3.36,2.92-5.61,3.83-8c1.6-4.21,1.12-11.15.67-15.8s-.92-9.3-1.52-13.89-6.17-10.35-3.39-19.33S53.34,106.32,53.8,103Z"/><path id="path15535" class="cls-7" d="M36.86,132.09c-.57-3.15.45-8.24,2.07-9.63s0,4.61,2.91,7.8c1.91,2.1,11.51,20.4,10.12,26.95s-1.81,23.23,3.39,32.54,5.3,12,4.62,17.08-2.66,2.38-2.66,2.38.55-4.12.7-7.28c.26-5.57-3.83-8.27-6.16-13.58s-3.79-9.61-6.27-14.78-11.26-9.81-11.46-21.47S37.61,136.23,36.86,132.09Z"/><path id="path15537" class="cls-7" d="M24.24,154.48s-2.74,20.24,3.79,31S46.38,200,55,208,70.2,233.54,70.2,233.54l5.27,4.22-4.22-8.43s-7-16.65-12.23-21.5-13.07-8.43-13.49-12-2.74-15.39-5.48-21.29S27.83,162.7,27.62,160.39,27,153.43,24.24,154.48Z"/><path id="path15539" class="cls-7" d="M22.17,192.27s4.14,20,13.88,28S59,230.12,69.78,234.8,92,257.72,92,257.72l4.11,2.8-4.52-7.12s-11.54-17.3-18.12-20.13-15.91-5.86-17.5-9.1-7.7-13.6-12.25-18.26-15.46-7.07-16.42-9.19S24.41,190.37,22.17,192.27Z"/><path id="path15541" class="cls-7" d="M29.14,222.63s11.7,21.17,25.51,26.77,27.39,10,41.27,11.54S120.8,275.7,120.8,275.7l5.64,1.72,2.71,1.81s-21.2-19.73-29.64-20.61-18-8.66-20.92-11.77-14.47-10.49-21.24-14.16-19-4.78-20.82-6.84S31,219.69,29.14,222.63Z"/><path id="path15543" class="cls-7" d="M49.43,255.31s12.72,16.81,25.08,18.64,24.37,2.62,36.23.63,32,14,32,14l6.11.84-7.7-6s-20.5-13.14-27.7-11.9-16.29-3.65-19.17-5.82-13.58-6.21-19.77-8-16.6.2-18.42-1.26S50.59,252.12,49.43,255.31Z"/><path id="path15545" class="cls-7" d="M71.3,281s15.07,14.74,27.57,14.71,24.49-1,35.92-4.76,34.24,7.8,34.24,7.8l4.95-.52-7.81-3s-22.22-10-29.16-7.66-16.65-1.19-19.83-2.91-14.35-4.12-20.74-4.94-16.38,2.66-18.4,1.49S72,277.64,71.3,281Z"/></g><g id="g15547"><path id="path15549" class="cls-7" d="M60.89,135.45S58,124.45,65,115.66s18-11.33,21.26-15.1,7.28-14.31,18.32-14.31,11.87-1.33,13.8-3c4.62-4,7-4.52,7-4.52s-5.35,8.36-6.85,9.11-6.45,10.47-16,13a100.86,100.86,0,0,1-15.56,3s-15.06,6-18.82,11-5,8.78-5,14.31S60.89,135.45,60.89,135.45Z"/><path id="path15551" class="cls-7" d="M66.44,128.9s-.13-10.1,9.69-13.33,13.33-2.42,16.83-5.12,7.54-5.65,9-5.79a31.72,31.72,0,0,1-3.5,5.65c-1.75,2-4.44,4-4.71,5.38s-7.94,12.92-14.67,14.54a74.89,74.89,0,0,1-12.52,1.88S56.21,137.08,53,152.94a53.25,53.25,0,0,0-.67,15.53l-1.88.54s-1.13-15.48.62-20.19S54.06,135.36,66.44,128.9Z"/><path id="path15553" class="cls-7" d="M83.13,130.92a44.39,44.39,0,0,1-8.88,7.54c-4.58,2.69-13.06,5.52-17,13.46s-3.5,10.5-3.5,10.5a121.23,121.23,0,0,0-8.08,14.67c-3.23,7.27-2,19.25,2.29,23.69a66.26,66.26,0,0,0,8.08,7.13l.4-4.44s-10-3.63-10-12.11,3.23-18.58,8.61-21.94,11.44-4.17,19.11-14.67,5.12-12.92,7.13-16A10.69,10.69,0,0,0,83.13,130.92Z"/><path id="path15555" class="cls-7" d="M75.86,156.22s-1.48,7.27-5,9.42-13.73,13.19-14,19.52-1.21,16.15-1.21,16.15-4.58,10.63-2.56,17.5,10.36,11,14.4,13.33a19.12,19.12,0,0,1,5.79,4.71l-1.08-5.65a47.9,47.9,0,0,1-8.35-4.58c-3.5-2.56-9.42-7.4-8.21-12.38s5.92-13.46,5.92-13.46,12-8.61,13.46-18,1.35-14.13,2.29-16.15.94-6.33.67-8.08A3.12,3.12,0,0,0,75.86,156.22Z"/><path id="path15557" class="cls-7" d="M76.67,185.3s0,9.69-1.35,11.44-9.69,16.42-7.94,25,8.21,21,9,25.58S83.13,258,90.13,261.62s12.92,5.92,12.92,5.92l-.13-3.5s-6.06-1.48-8.61-3-12.52-6.46-14.4-13.19-1.75-10.77-1.21-12.79,7.67-19.65,5-28.27-4.17-6.73-3.9-11.44a31.55,31.55,0,0,0-.27-7C79.5,186.11,76.67,185.3,76.67,185.3Z"/><path id="path15559" class="cls-7" d="M89.05,211.68s1.62,5.92.27,8.88-4.31,23.56,1.08,30a128.85,128.85,0,0,0,9.69,10.5s4.31,14.94,11.44,20.06,12.11,6.19,17,7.67,17,2.78,17,2.78l-6.11-4.25s-12.59-1.18-15.68-2.39-12.2-6.37-14.22-12.56S105.34,260,105.34,260a39.93,39.93,0,0,0,.13-17.63c-2.15-9.29-7.67-16.29-9.29-20.32S93,216.66,93,216.66,92.15,211.14,89.05,211.68Z"/><path id="path15561" class="cls-7" d="M106.28,230s3.63,7.94,3.63,11.71,3.37,20.19,9.69,28,13.33,9.83,16.15,14.94,10,6.69,10,6.69l.2-3.19s-7.4-3.77-8.21-7.54-2.56-18.84-7.81-27.19-9.83-7.81-14-14-5.52-7.4-6.33-8.75S106.28,230,106.28,230Z"/></g></g><g id="g15563"><g id="g15565"><path id="path15567" class="cls-8" d="M112.38,61.61c3.36-4,11.18-6,15-10.66,2.69-3.3,4.3-8.87,5.68-7.5s-2.41,17.82-6,23.66c-4,6.41-11.18,9.11-13.93,12.9s-8.43,13.59-15.82,17.71-12.55,4.47-14.62,7.39c0,0,.86-3.61,6.53-5.85a35.29,35.29,0,0,0,16.39-12.91c4.81-6.88,3.73-13.92,3.9-16.84S109.8,64.7,112.38,61.61Z"/><path id="path15569" class="cls-8" d="M102.93,63.33c1.31-2.22,3.27-6.36,5-6.36s-1.55,5.33-2.06,7.57S103.61,84,99.31,87.23s-17.37,14.1-19.09,22.53S71,126.07,67.94,128.82s-4.26,2.32-4.26,2.32,8.42-9.56,10.18-11.42c3.1-3.27,4.3-8.94,5.68-13.41s5.68-8.6,6.88-13.07-1.55-10.83,4.47-18.06S101.21,66.25,102.93,63.33Z"/><path id="path15571" class="cls-8" d="M78.65,80c1-2.37,4-5.32,5.7-5.53S82.29,77.6,82.81,81c.34,2.27-1,19.4-4.83,23.16s-12.56,16.08-13.24,24.66a27.72,27.72,0,0,1-7.5,16.86,20.4,20.4,0,0,0-4,7.48c-.33,1.32-.9-5-.9-5s5.78-6.58,7.29-8.64c2.68-3.62,3.18-9.4,4-14s1.62-9.2,2.27-13.78-3.15-11.63,1.94-19.53S77.3,83.15,78.65,80Z"/><path id="path15573" class="cls-8" d="M53.8,103c.35-2.55,2.42-6.2,4-6.86s-1.15,3.54.27,6.71c.94,2.09,4.71,19.54,2,24.21s-8.18,18.27-6.53,26.71-1,13.81-2.76,17.54-3.7,3.36-3.7,3.36,2.92-5.61,3.83-8c1.6-4.21,1.12-11.15.67-15.8s-.92-9.3-1.52-13.89-6.17-10.35-3.39-19.33S53.34,106.32,53.8,103Z"/><path id="path15575" class="cls-8" d="M36.86,132.09c-.57-3.15.45-8.24,2.07-9.63s0,4.61,2.91,7.8c1.91,2.1,11.51,20.4,10.12,26.95s-1.81,23.23,3.39,32.54,5.3,12,4.62,17.08-2.66,2.38-2.66,2.38.55-4.12.7-7.28c.26-5.57-3.83-8.27-6.16-13.58s-3.79-9.61-6.27-14.78-11.26-9.81-11.46-21.47S37.61,136.23,36.86,132.09Z"/><path id="path15577" class="cls-8" d="M24.24,154.48s-2.74,20.24,3.79,31S46.38,200,55,208,70.2,233.54,70.2,233.54l5.27,4.22-4.22-8.43s-7-16.65-12.23-21.5-13.07-8.43-13.49-12-2.74-15.39-5.48-21.29S27.83,162.7,27.62,160.39,27,153.43,24.24,154.48Z"/><path id="path15579" class="cls-8" d="M22.17,192.27s4.14,20,13.88,28S59,230.12,69.78,234.8,92,257.72,92,257.72l4.11,2.8-4.52-7.12s-11.54-17.3-18.12-20.13-15.91-5.86-17.5-9.1-7.7-13.6-12.25-18.26-15.46-7.07-16.42-9.19S24.41,190.37,22.17,192.27Z"/><path id="path15581" class="cls-8" d="M29.14,222.63s11.7,21.17,25.51,26.77,27.39,10,41.27,11.54S120.8,275.7,120.8,275.7l5.64,1.72,2.71,1.81s-21.2-19.73-29.64-20.61-18-8.66-20.92-11.77-14.47-10.49-21.24-14.16-19-4.78-20.82-6.84S31,219.69,29.14,222.63Z"/><path id="path15583" class="cls-8" d="M49.43,255.31s12.72,16.81,25.08,18.64,24.37,2.62,36.23.63,32,14,32,14l6.11.84-7.7-6s-20.5-13.14-27.7-11.9-16.29-3.65-19.17-5.82-13.58-6.21-19.77-8-16.6.2-18.42-1.26S50.59,252.12,49.43,255.31Z"/><path id="path15585" class="cls-8" d="M71.3,281s15.07,14.74,27.57,14.71,24.49-1,35.92-4.76,34.24,7.8,34.24,7.8l4.95-.52-7.81-3s-22.22-10-29.16-7.66-16.65-1.19-19.83-2.91-14.35-4.12-20.74-4.94-16.38,2.66-18.4,1.49S72,277.64,71.3,281Z"/></g><g id="g15587"><path id="path15589" class="cls-8" d="M60.89,135.45S58,124.45,65,115.66s18-11.33,21.26-15.1,7.28-14.31,18.32-14.31,11.87-1.33,13.8-3c4.62-4,7-4.52,7-4.52s-5.35,8.36-6.85,9.11-6.45,10.47-16,13a100.86,100.86,0,0,1-15.56,3s-15.06,6-18.82,11-5,8.78-5,14.31S60.89,135.45,60.89,135.45Z"/><path id="path15591" class="cls-8" d="M66.44,128.9s-.13-10.1,9.69-13.33,13.33-2.42,16.83-5.12,7.54-5.65,9-5.79a31.72,31.72,0,0,1-3.5,5.65c-1.75,2-4.44,4-4.71,5.38s-7.94,12.92-14.67,14.54a74.89,74.89,0,0,1-12.52,1.88S56.21,137.08,53,152.94a53.25,53.25,0,0,0-.67,15.53l-1.88.54s-1.13-15.48.62-20.19S54.06,135.36,66.44,128.9Z"/><path id="path15593" class="cls-8" d="M83.13,130.92a44.39,44.39,0,0,1-8.88,7.54c-4.58,2.69-13.06,5.52-17,13.46s-3.5,10.5-3.5,10.5a121.23,121.23,0,0,0-8.08,14.67c-3.23,7.27-2,19.25,2.29,23.69a66.26,66.26,0,0,0,8.08,7.13l.4-4.44s-10-3.63-10-12.11,3.23-18.58,8.61-21.94,11.44-4.17,19.11-14.67,5.12-12.92,7.13-16A10.69,10.69,0,0,0,83.13,130.92Z"/><path id="path15595" class="cls-8" d="M75.86,156.22s-1.48,7.27-5,9.42-13.73,13.19-14,19.52-1.21,16.15-1.21,16.15-4.58,10.63-2.56,17.5,10.36,11,14.4,13.33a19.12,19.12,0,0,1,5.79,4.71l-1.08-5.65a47.9,47.9,0,0,1-8.35-4.58c-3.5-2.56-9.42-7.4-8.21-12.38s5.92-13.46,5.92-13.46,12-8.61,13.46-18,1.35-14.13,2.29-16.15.94-6.33.67-8.08A3.12,3.12,0,0,0,75.86,156.22Z"/><path id="path15597" class="cls-8" d="M76.67,185.3s0,9.69-1.35,11.44-9.69,16.42-7.94,25,8.21,21,9,25.58S83.13,258,90.13,261.62s12.92,5.92,12.92,5.92l-.13-3.5s-6.06-1.48-8.61-3-12.52-6.46-14.4-13.19-1.75-10.77-1.21-12.79,7.67-19.65,5-28.27-4.17-6.73-3.9-11.44a31.55,31.55,0,0,0-.27-7C79.5,186.11,76.67,185.3,76.67,185.3Z"/><path id="path15599" class="cls-8" d="M89.05,211.68s1.62,5.92.27,8.88-4.31,23.56,1.08,30a128.85,128.85,0,0,0,9.69,10.5s4.31,14.94,11.44,20.06,12.11,6.19,17,7.67,17,2.78,17,2.78l-6.11-4.25s-12.59-1.18-15.68-2.39-12.2-6.37-14.22-12.56S105.34,260,105.34,260a39.93,39.93,0,0,0,.13-17.63c-2.15-9.29-7.67-16.29-9.29-20.32S93,216.66,93,216.66,92.15,211.14,89.05,211.68Z"/><path id="path15601" class="cls-8" d="M106.28,230s3.63,7.94,3.63,11.71,3.37,20.19,9.69,28,13.33,9.83,16.15,14.94,10,6.69,10,6.69l.2-3.19s-7.4-3.77-8.21-7.54-2.56-18.84-7.81-27.19-9.83-7.81-14-14-5.52-7.4-6.33-8.75S106.28,230,106.28,230Z"/></g></g><path id="path15603" class="cls-9" d="M127.52,53.29s-8.29,6.47-10.26,6.89a6.91,6.91,0,0,0-5.9,7.31c0,5.48.14,8.29.14,8.29l1-2.25.7,1.12s.84-6.32,5.48-10S127.52,53.29,127.52,53.29Z"/><path id="path15605" class="cls-9" d="M102.5,66.36s-6.89,6.18-9.42,8.85-3.51,3.65-3.65,6.89-.84,8.29-.84,8.29L89.85,88l.7,1.27s2-8.71,4.78-11a26.15,26.15,0,0,0,6-7.31A13.13,13.13,0,0,0,102.5,66.36Z"/><path id="path15607" class="cls-9" d="M89.85,99.25s4.64-9.84,11.1-10.68,13.21-1.27,13.21-1.27a18.18,18.18,0,0,1-7,4.64c-4.36,1.55-6.18.42-9.56,2.25-1.14.62-6,5.62-6,5.62l.28-1.27Z"/><path id="path15609" class="cls-9" d="M80.15,81.69S68.35,91.94,67.65,96a44,44,0,0,0-.14,9.7l1.27-4.5.84,2.25s2.81-8.71,4.36-11.1a8.48,8.48,0,0,1,2.67-3l.84,5.34s2.53-3.94,2.39-6.47A54.33,54.33,0,0,1,80.15,81.69Z"/><path id="path15611" class="cls-9" d="M91.75,113.53S76.3,115.91,73.53,119a44,44,0,0,0-5.29,8.13L71.71,124l-.49,2.35s7-5.87,9.61-7.07a8.48,8.48,0,0,1,3.83-1.07l-2.14,5s4.24-2,5.47-4.19A54.15,54.15,0,0,1,91.75,113.53Z"/><path id="path15613" class="cls-9" d="M54.79,106S47,119.51,47.66,123.59a44,44,0,0,0,3,9.21l-.27-4.66L51.95,130s-.19-9.15.49-11.92A8.48,8.48,0,0,1,54,114.41l2.54,4.77s1.11-4.55.15-6.89A54.29,54.29,0,0,1,54.79,106Z"/><path id="path15615" class="cls-9" d="M39.6,135.55s-5.22,12.75-3.13,20.58c1.19,4.43,5.5,9.26,5.5,9.26l-1.45-5,2.08,1.66s-2.48-9.83-2.45-13,.73-4.29.73-4.29l3.87,4.58s0-5.14-1.56-7.46A62.4,62.4,0,0,1,39.6,135.55Z"/><path id="path15617" class="cls-9" d="M27.94,163.93s10.78,8.59,12.76,16.44c1.12,4.45-.29,10.76-.29,10.76l-1.15-5-1,2.46s-2.62-9.79-4.17-12.51-2.73-3.39-2.73-3.39l-1.14,5.89s-2.53-4.48-2.27-7.28A62.52,62.52,0,0,0,27.94,163.93Z"/><path id="path15619" class="cls-9" d="M28.33,200s11.89,2.16,17.23,10.22c3,4.56,7.86,13.87,7.86,13.87l-4-4.06-.05,3.3s-6.81-10-9.57-12.35-4.29-2.59-4.29-2.59l1.21,7.29s-4.53-3.93-5.4-7.26A79.33,79.33,0,0,0,28.33,200Z"/><path id="path15621" class="cls-9" d="M40.68,231.06s12-1.25,19.39,5c4.17,3.54,14.57,10.43,14.57,10.43l-5.35-.67L73,250.17S58.09,239.9,54.78,238.38s-4.84-1.29-4.84-1.29l3.2,6.67s-5.44-2.51-7.21-5.47A79.75,79.75,0,0,0,40.68,231.06Z"/><path id="path15623" class="cls-9" d="M60.93,260.11s11.56-3.53,20,1.2c4.78,2.68,16.3,7.45,16.3,7.45l-5.38.37,4.44,3.56s-16.57-7.23-20.11-8.09-5-.34-5-.34l4.41,5.93s-5.82-1.42-8.12-4A79.69,79.69,0,0,0,60.93,260.11Z"/><path id="path15625" class="cls-9" d="M82.77,284.41s10.8-5.43,19.91-2.19c5.16,1.83,17.32,4.59,17.32,4.59l-5.24,1.27,5,2.76s-17.55-4.34-21.19-4.58-5,.51-5,.51l5.35,5.1s-6-.41-8.68-2.56A79.7,79.7,0,0,0,82.77,284.41Z"/><path id="path15627" class="cls-9" d="M77.54,138.77S62.1,145.95,60,150.05a50.55,50.55,0,0,0-3.3,10.25l2.76-4.38.13,2.65s5.72-8.37,8.08-10.42,3.7-2.29,3.7-2.29l-.87,5.93s3.87-3.38,4.55-6.11A62.17,62.17,0,0,1,77.54,138.77Z"/><path id="path15629" class="cls-9" d="M73,166.18S60.26,177.44,59.47,182a50.55,50.55,0,0,0-.25,10.77l1.4-5,.88,2.5S64.6,180.6,66.29,178s2.9-3.25,2.9-3.25l.85,5.94s2.76-4.34,2.63-7.15A62.53,62.53,0,0,1,73,166.18Z"/><path id="path15631" class="cls-9" d="M77.06,197.16s-9.25,17.38-8.28,22.59a58.41,58.41,0,0,0,4.1,11.76l-.5-6,2,2.35s-.55-11.7.2-15.24S76.37,208,76.37,208l3.33,6.08s1.22-5.82-.05-8.81A72,72,0,0,1,77.06,197.16Z"/><path id="path15633" class="cls-9" d="M91.84,219.78s-4.16,19.24-1.8,24A58.46,58.46,0,0,0,97.18,254l-2.11-5.6,2.54,1.73s-3.72-11.11-4-14.72.47-5,.47-5L99,235.31s-.41-5.93-2.46-8.46A72,72,0,0,1,91.84,219.78Z"/><path id="path15635" class="cls-9" d="M110.87,240.64s3.11,19.44,7,23a58.46,58.46,0,0,0,10.36,6.91l-4-4.45,3,.69s-7.5-9-9-12.28-1.38-4.84-1.38-4.84l6.33,2.84s-2.54-5.38-5.36-7A72.18,72.18,0,0,1,110.87,240.64Z"/></g><polygon id="polygon15637" class="cls-10" points="186.68 31.41 191.61 16.23 178.76 25.57 180.66 31.41 186.68 31.41"/><polygon id="polygon15639" class="cls-10" points="166.63 25.57 153.78 16.23 158.71 31.41 164.73 31.41 166.63 25.57"/><polygon id="polygon15641" class="cls-10" points="190.55 42.95 185.58 46.56 187.42 52.22 203.31 52.22 190.55 42.95"/><polygon id="polygon15643" class="cls-10" points="167.82 59.46 172.69 74.46 177.57 59.46 172.69 55.92 167.82 59.46"/><polygon id="polygon15645" class="cls-10" points="154.84 42.95 142.08 52.22 157.97 52.22 159.81 46.56 154.84 42.95"/><g id="g15647"><polygon id="polygon15649" class="cls-11" points="127.03 269.13 136.41 269.13 136.41 296.64 121.59 296.64 121.59 321.72 146.68 321.72 146.68 310.14 172.49 310.14 172.49 265.17 127.03 265.17 127.03 269.13"/><polygon id="polygon15651" class="cls-12" points="213.13 269.13 222.51 269.13 222.51 265.17 177.05 265.17 177.05 310.14 202.87 310.14 202.87 321.72 227.95 321.72 227.95 296.64 213.13 296.64 213.13 269.13"/><path id="path15653" class="cls-13" d="M222.51,256.83h-9.38v-30.4h2.28a10.62,10.62,0,1,0-10.62-10.62s0,.1,0,.14l0,.28.09,2.36h-12.1l-.35-2.21a3.12,3.12,0,0,0-.91-2.16,4.34,4.34,0,0,0-3.09-1.2,4.9,4.9,0,0,0-4.79,3.81l-.41,1.76h-16l-.41-1.76a4.92,4.92,0,0,0-9.58,0l-.41,1.76H144.63l.11-2.64c0-.05,0-.1,0-.15a10.62,10.62,0,1,0-10.62,10.62h2.28v30.4H127v3.78h95.48v-3.78Z"/><g id="g15655"><polygon id="polygon15657" class="cls-14" points="117.04 326.28 117.04 292.08 131.85 292.08 131.85 273.75 124.95 280.52 125.02 280.52 125.02 292.02 117.09 292.02 110.2 296.27 110.2 333.12 110.24 333.12 117.1 326.28 117.04 326.28"/><polygon id="polygon15659" class="cls-15" points="151.23 326.28 117.1 326.28 110.24 333.12 158.07 333.12 158.07 333.03 151.23 326.25 151.23 326.28"/><polygon id="polygon15661" class="cls-15" points="198.31 314.7 151.23 314.7 151.23 314.85 158.07 321.62 158.07 321.54 191.55 321.54 191.55 321.55 198.31 314.77 198.31 314.7"/><polygon id="polygon15663" class="cls-14" points="151.23 326.25 158.07 333.03 158.07 321.62 151.23 314.85 151.23 326.25"/><polygon id="polygon15665" class="cls-15" points="131.85 273.69 122.48 273.69 122.48 273.61 115.64 280.5 115.64 280.52 124.95 280.52 131.85 273.75 131.85 273.69"/><path id="path15667" class="cls-14" d="M122.48,252.28h9.38V230.82h0l-6.93,5H125v16.37h-2.78l-6.59,5.13v23.15l6.84-6.89V252.28Z"/><path id="path15686" class="cls-16" d="M119,215.82a15.19,15.19,0,0,1,15.17-15.17c.39,0,.78,0,1.16.05a26.51,26.51,0,0,0-4-.3c-10.58,0-19.2,8.33-19.2,18.56,0,9.42,4.62,13.88,12.76,16.88l6.93-5A15.2,15.2,0,0,1,119,215.82Z"/><polygon id="polygon15688" class="cls-14" points="239.42 296.27 232.53 292.02 224.6 292.02 224.6 280.57 217.75 273.69 217.69 273.69 217.69 292.08 232.51 292.08 232.51 326.22 239.42 333.05 239.42 296.27"/><polygon id="polygon15690" class="cls-15" points="239.42 333.05 232.51 326.22 232.51 326.28 198.31 326.28 198.31 326.19 191.56 333.12 239.42 333.12 239.42 333.05"/><polygon id="polygon15692" class="cls-15" points="224.6 280.52 233.97 280.52 227.07 273.68 227.07 273.69 217.75 273.69 224.6 280.57 224.6 280.52"/><polygon id="polygon15694" class="cls-14" points="198.31 314.77 191.55 321.55 191.55 333.12 191.56 333.12 198.31 326.19 198.31 314.77"/><path id="path15696" class="cls-14" d="M234,280.52V257.34l-6.59-5.13H224.6V235.84h0l-6.93-5h0v21.45h9.38v21.4l6.9,6.84h0Z"/><path id="path15715" class="cls-17" d="M224.73,235.84c8.14-3,12.76-7.46,12.76-16.88,0-10.23-8.61-18.56-19.2-18.56a26.49,26.49,0,0,0-3.95.29c.35,0,.7-.05,1.06-.05a15.17,15.17,0,0,1,2.3,30.17l6.93,5h.09Z"/></g><g id="g15717"><g id="g15719"><path id="polygon15721" class="cls-18" d="M198.22,277Z"/><path id="polygon15723" class="cls-18" d="M202.75,291.12Z"/><path id="path15725" class="cls-19" d="M202.74,291.13a9.3,9.3,0,0,0,1.67-5.2l2.88-.95a11.49,11.49,0,0,0-.61-3,11.84,11.84,0,0,0-1.4-2.84l-2.84.95a9.39,9.39,0,0,0-4.22-3.06h0l0-3a11.83,11.83,0,0,0-3.14-.41A11.46,11.46,0,0,0,192,274l0,3a9.38,9.38,0,0,0-4.34,3.1l-2.84-.95a11.88,11.88,0,0,0-1.4,2.84,11.48,11.48,0,0,0-.61,3l2.87,1a9.3,9.3,0,0,0,1.67,5.18l-1.74,2.47a11.84,11.84,0,0,0,2.32,2.16,11.48,11.48,0,0,0,2.71,1.46l1.72-2.44a9.33,9.33,0,0,0,5.35,0l1.72,2.44a11.48,11.48,0,0,0,2.71-1.46,11.85,11.85,0,0,0,2.32-2.16l-1.74-2.47Zm-7.68.92a6.25,6.25,0,1,1,6.25-6.25A6.26,6.26,0,0,1,195.06,292.05Z"/><path id="path15727" class="cls-20" d="M202.74,291.13a9.3,9.3,0,0,0,1.67-5.2l2.88-.95a11.49,11.49,0,0,0-.61-3,11.84,11.84,0,0,0-1.4-2.84l-2.84.95a9.39,9.39,0,0,0-4.22-3.06h0l0-3a11.83,11.83,0,0,0-3.14-.41A11.46,11.46,0,0,0,192,274l0,3a9.38,9.38,0,0,0-4.34,3.1l-2.84-.95a11.88,11.88,0,0,0-1.4,2.84,11.48,11.48,0,0,0-.61,3l2.87,1a9.3,9.3,0,0,0,1.67,5.18l-1.74,2.47a11.84,11.84,0,0,0,2.32,2.16,11.48,11.48,0,0,0,2.71,1.46l1.72-2.44a9.33,9.33,0,0,0,5.35,0l1.72,2.44a11.48,11.48,0,0,0,2.71-1.46,11.85,11.85,0,0,0,2.32-2.16l-1.74-2.47Zm-7.68.92a6.25,6.25,0,1,1,6.25-6.25A6.26,6.26,0,0,1,195.06,292.05Z"/></g><g id="g15729"><g id="g15731"><path id="path15733" class="cls-21" d="M223.4,314.65c-.46,0-3.26-.36-8.94-4.64-6.16-4.65-10-13.65-12-18.63-1.8-4.42-6.2-8.42-6.24-8.44l1.18-1.18a34.29,34.29,0,0,1,7.51,10.46c1.92,4.71,5.06,11.16,10.62,15.35,5.15,3.88,6.92,3.87,7,3.88Z"/><path id="path15735" class="cls-22" d="M223.4,314.65c-.46,0-3.26-.36-8.94-4.64-6.16-4.65-10-13.65-12-18.63-1.8-4.42-6.2-8.42-6.24-8.44l1.18-1.18a34.29,34.29,0,0,1,7.51,10.46c1.92,4.71,5.06,11.16,10.62,15.35,5.15,3.88,6.92,3.87,7,3.88Z"/></g><g id="g15737"><path id="path15739" class="cls-23" d="M196.43,284.11l0,0S196.44,284.11,196.43,284.11Z"/><g id="g15741"><path id="path15743" class="cls-24" d="M189.5,290.45a2.05,2.05,0,0,1-1.66-1.13,4.22,4.22,0,0,0-.53,1.13c-.34,1.43,2.28,2.36,3,1,.14-.29.32-.63.52-1A8,8,0,0,1,189.5,290.45Z"/><path id="path15745" class="cls-23" d="M199,282c-.25-.25-.67,0-.67,0l-1.92,2.09s0,0,0,0l0,0a13.94,13.94,0,0,0-2.55.36c-2.36.4-4.93,3.07-6,4.86a2.05,2.05,0,0,0,1.66,1.13,8,8,0,0,0,1.28,0,12.65,12.65,0,0,1,3.1-4,4.55,4.55,0,0,1,3.37-.93l2.61-2.11C200,282.94,199.28,282.27,199,282Z"/></g><path id="path15747" class="cls-25" d="M199,282c-.25-.25-.67,0-.67,0l-1.92,2.09s0,0,0,0l0,0a13.94,13.94,0,0,0-2.55.36c-2.36.4-4.93,3.07-6,4.86a4.22,4.22,0,0,0-.53,1.13c-.34,1.43,2.28,2.36,3,1,.14-.29.32-.63.52-1a12.65,12.65,0,0,1,3.1-4,4.55,4.55,0,0,1,3.37-.93l2.61-2.11C200,282.94,199.28,282.27,199,282Z"/></g></g></g><g id="g15749"><g id="g15751"><g id="g15753"><g id="g15755"><path id="path15757" class="cls-26" d="M161.77,274.41h-.08a9.18,9.18,0,0,1-2.39-.76,7.53,7.53,0,0,0-1.1-.52c-.34.42-1.17.34-1.43.31-.56-.08-.87-.28-.94-.6a2,2,0,0,0-.29-.35c-1.1.28-2.23.57-2.38.63s-.48.19-1.47-.63l-1,.65a.46.46,0,0,1-.36.06l-1.52-.39a3.22,3.22,0,0,1-.66.28,1.43,1.43,0,0,1-1.07-.16l-.15-.07a1.15,1.15,0,0,0-.34-.05c-.09.27-.46.58-2.68.52a.46.46,0,0,1-.31-.13l-.1-.09a1.08,1.08,0,0,1-.63.47c-.65.24-1.26-.29-1.62-.6l-.12-.11a1.58,1.58,0,0,0-.28.26c-.07.11-.25.37-1.31.37a.46.46,0,1,1,0-.91,3.34,3.34,0,0,0,.62-.05,1.61,1.61,0,0,1,1-.6c.24,0,.42.15.66.36s.58.49.72.43a.47.47,0,0,0,.15-.08.63.63,0,0,1,.35-.51,1,1,0,0,1,1,.29,8.9,8.9,0,0,0,1.69-.1.71.71,0,0,1,.29-.3,1.55,1.55,0,0,1,1.19,0l.22.1c.21.1.3.14.42.11a2.5,2.5,0,0,0,.59-.27.45.45,0,0,1,.36-.06l1.51.39,1.15-.72a.46.46,0,0,1,.54,0,4.72,4.72,0,0,0,.89.65c.51-.16,2.27-.6,2.64-.7a.46.46,0,0,1,.41.1,2.93,2.93,0,0,1,.69.85,1.9,1.9,0,0,0,.84,0,.69.69,0,0,1,.37-.28c.43-.14.93.11,1.85.6a8.28,8.28,0,0,0,2.11.67.46.46,0,0,1-.07.91Z"/></g><g id="g15759"><path id="path15761" class="cls-26" d="M141.41,291.86a.47.47,0,0,1-.18,0,.45.45,0,0,1-.23-.6,1.7,1.7,0,0,1,1.55-1.1,2.06,2.06,0,0,0,1.22-.38.75.75,0,0,1,.42-.55c.28-.13.76-.18,1.46.37.4.32.53.35.56.36a1.32,1.32,0,0,0,.23-.18,3,3,0,0,0,.39-.42,1.08,1.08,0,0,1,.57-.45c.23-.06.43.05.75.23.68.38,1.15.57,1.35.28a2.28,2.28,0,0,1,2.64-1.12c.43.07.48,0,.77-.46a5.31,5.31,0,0,1,.59-.78.46.46,0,0,1,.67.62,4.49,4.49,0,0,0-.49.65,1.47,1.47,0,0,1-1.67.86,1.42,1.42,0,0,0-1.75.74c-.72,1-2,.3-2.54,0l-.11-.06,0,.06a3.84,3.84,0,0,1-.5.54c-.65.57-1.07.54-2-.15a1.31,1.31,0,0,0-.44-.25.81.81,0,0,1-.24.37,2.91,2.91,0,0,1-1.93.64h0c-.35,0-.62.55-.62.56A.46.46,0,0,1,141.41,291.86Z"/></g><g id="g15763"><path id="path15765" class="cls-26" d="M141,277.15a.45.45,0,0,1-.45-.43,1.33,1.33,0,0,1,.43-1.11.9.9,0,0,1,.92,0l.13.06c.69.3.75.31,1,0s.7-.84,1.13-.86a.82.82,0,0,1,.64.28l.17.18a1.55,1.55,0,0,0,.32.3,2.11,2.11,0,0,1,.21-.36c.32-.48.86-1.28,1.93-.74a3.83,3.83,0,0,1,.8.57,2.29,2.29,0,0,0,.29.23l.1-.12c.32-.41,1.32-1.68,2.25-1.09l.12.08,0,0,.24-.16a1.4,1.4,0,0,1,1.66.23,2.21,2.21,0,0,0,.71.36c.25.05.36-.06.61-.35a1.29,1.29,0,0,1,.6-.47c.52-.15.86.34,1.06.64a2.84,2.84,0,0,0,.17.24.46.46,0,0,1-.11.9c-.39,0-.63-.35-.81-.62l-.13-.18-.08.09a1.47,1.47,0,0,1-1.48.65,2.93,2.93,0,0,1-1-.49c-.44-.29-.54-.31-.65-.24l-.23.15c-.3.21-.56.39-1,.07l-.16-.11s-.38,0-1,.88a1.09,1.09,0,0,1-.74.47,1.34,1.34,0,0,1-1-.45,3,3,0,0,0-.62-.44c-.3-.15-.38-.13-.77.44-.09.13-.17.25-.27.37a.93.93,0,0,1-.7.39,1.42,1.42,0,0,1-1-.59l-.12-.12a5.29,5.29,0,0,0-.45.5c-.74.88-1.4.59-2.11.29l-.13-.05-.09,0s0,.18,0,.3a.46.46,0,0,1-.43.47Z"/></g></g><path id="path15767" class="cls-26" d="M157.71,272.76s3.47-.72,4.63-.43,1.45-.87,2-.72,3.11,4.7,3.76,8.46.87,8.31-2.82,11.78-5.57,3.47-8.82,6.87-6.72,7.52-6.72,7.52,3.18-4.91,4.84-6.94a25.29,25.29,0,0,1,3-3.11l-2.75.72,3-1.81h-2.17l4.7-1.52-3.11.14,4.26-1.66-2.82-.29s.87-2.41,2-5.74,1.73-2.72.36-4.81-1.84-6.44-1.84-6.44Z"/><path id="path15769" class="cls-26" d="M154.84,291.91a92.07,92.07,0,0,1-8.29,4.91c-2.87,1.33-6.55,2.25-9.22,6.35a75.32,75.32,0,0,1-6,7.88,85,85,0,0,0,4.4-7.27,13.34,13.34,0,0,1,5.63-5.53c2.36-1.23,3.58-1.74,3.58-1.74l-4.2.72,4.2-1.64s-3.48.21-3.17,0,4-1.33,4-1.33a17.44,17.44,0,0,1-2.46-.1l4.71-1.64-2.15-.72s3.17-.41,4.4-.51.31-.1,2-1.43a41.42,41.42,0,0,0,4.61-4.81S157.2,289.45,154.84,291.91Z"/><path id="path15771" class="cls-26" d="M154.75,275.79s-6.51,0-9.83,1.73a13.6,13.6,0,0,0-4.91,4.26l4.19-2.17-.36,1.66,2.82-2.46-.07,1.73,2.31-1.81.22.87,2.6-1.16A31.49,31.49,0,0,0,154.75,275.79Z"/></g><g id="g15773"><g id="g15775"><g id="g15777"><g id="g15779"><path id="path15781" class="cls-27" d="M159.38,279.36c-.29-1-2,2.36-5.15,1.64s-5-4.06-5-4.06,2.45-3.54,6-3.95,4.67,2.18,4.69,3.3a5.88,5.88,0,0,0,.2,2.38c.38,1.11-.68,2.7-.58,3.22a1.72,1.72,0,0,0,.55.89.84.84,0,0,1-1.2-.56C158.69,281.26,158.74,281,159.38,279.36Z"/><path id="path15783" class="cls-28" d="M159,275s-2-2.15-4.39-1.13a12.45,12.45,0,0,0-4,2.83s1.68,2.94,4.33,2.34A4.75,4.75,0,0,0,159,275Z"/><path id="path15785" class="cls-29" d="M153.43,275.57a3.21,3.21,0,0,1,1.79-1.23,2,2,0,0,1,2.07.42S156.27,276.76,153.43,275.57Z"/></g></g></g><g id="g15787"><g id="g15789"><g id="g15791"><path id="path15793" class="cls-27" d="M155.89,287.25c-.55-1.07-1.64,3.05-5.31,3s-6.4-3.37-6.4-3.37,1.91-4.46,5.79-5.72,5.65,1.35,5.93,2.59a6.62,6.62,0,0,0,.76,2.58c.67,1.14-.14,3.14.08,3.69a2,2,0,0,0,.81.86,1,1,0,0,1-1.45-.34C155.56,289.51,155.55,289.17,155.89,287.25Z"/><path id="path15795" class="cls-28" d="M154.46,282.48s-2.66-1.93-5.11-.25a14,14,0,0,0-3.81,4s2.52,2.86,5.31,1.6S154.53,284.67,154.46,282.48Z"/><path id="path15797" class="cls-29" d="M148.47,284.41a3.63,3.63,0,0,1,1.7-1.77,2.24,2.24,0,0,1,2.38,0S151.88,285.09,148.47,284.41Z"/></g></g></g><g id="g15799"><g id="g15801"><g id="g15803"><path id="path15805" class="cls-27" d="M163.17,285.44c-1-.46.73,3.71-2,5.78s-6.62,1.25-6.62,1.25-1.19-4.36.91-7.52,4.9-2.29,5.82-1.54a2.17,2.17,0,0,0,1.36,1.41Z"/><path id="path15807" class="cls-28" d="M159.53,283.32s-3.06.12-3.87,2.77a13.06,13.06,0,0,0-.45,5.15s3.5.63,4.8-1.91S160.85,284.88,159.53,283.32Z"/><path id="path15809" class="cls-29" d="M156.28,288.2a3.38,3.38,0,0,1,.22-2.27,2.09,2.09,0,0,1,1.74-1.38S159.15,286.72,156.28,288.2Z"/></g></g></g><g id="g15811"><g id="g15813"><g id="g15815"><path id="path15817" class="cls-27" d="M164.41,281.67c-.51-1-1.52,2.84-4.95,2.77s-6-3.13-6-3.13,1.77-4.15,5.39-5.33,5.26,1.26,5.52,2.41a6.17,6.17,0,0,0,.71,2.4c.62,1.06-.13,2.92.08,3.44a1.81,1.81,0,0,0,.75.8.89.89,0,0,1-1.35-.32C164.1,283.78,164.09,283.46,164.41,281.67Z"/><path id="path15819" class="cls-28" d="M163.07,277.23s-2.47-1.8-4.75-.23a13.06,13.06,0,0,0-3.55,3.76s2.35,2.66,4.95,1.49S163.13,279.27,163.07,277.23Z"/><path id="path15821" class="cls-29" d="M157.49,279a3.37,3.37,0,0,1,1.58-1.64,2.08,2.08,0,0,1,2.22,0S160.66,279.66,157.49,279Z"/></g></g></g></g></g><g id="g15823"><path id="path15825" class="cls-15" d="M140.9,221.31h16.27s.17-5.1,3.55-5.1c4.43,0,4.16,5.16,4.16,5.16l19.15.16s-.28-5.21,4.2-5.21c3.42,0,3.59,5.16,3.59,5.16h16.45c-2.21-10.65,5.52-13.85,12.32-14.13.37,0,.74,0,1.1,0a10.6,10.6,0,0,0-17,8.46s0,.1,0,.14l0,.28.09,2.36H192.7l-.35-2.21a3.12,3.12,0,0,0-.91-2.16,4.34,4.34,0,0,0-3.09-1.2,4.9,4.9,0,0,0-4.79,3.81l-.41,1.76h-16l-.41-1.76a4.92,4.92,0,0,0-9.58,0l-.41,1.76H144.53l.11-2.64c0-.05,0-.1,0-.15a10.6,10.6,0,0,0-17-8.46c.35,0,.71,0,1.07,0C135.44,207.61,143.09,210.78,140.9,221.31Z"/></g><rect id="rect15827" class="cls-15" x="126.94" y="265.11" width="95.35" height="1.52"/><polygon id="polygon15829" class="cls-15" points="133.62 258.23 126.94 258.23 126.94 256.74 136.24 256.74 133.62 258.23"/><polygon id="polygon15831" class="cls-15" points="215.72 258.23 222.4 258.23 222.4 256.74 213.1 256.74 215.72 258.23"/><polygon id="polygon15833" class="cls-15" points="133.62 298.1 121.63 298.1 121.63 296.61 136.24 296.61 133.62 298.1"/><polygon id="polygon15835" class="cls-14" points="145.2 312.85 145.2 321.76 146.69 321.76 146.69 310.23 145.2 312.85"/><polygon id="polygon15837" class="cls-14" points="171.01 266.71 171.01 310.18 172.5 310.18 172.5 265.17 171.01 266.71"/><polygon id="polygon15839" class="cls-14" points="178.49 266.71 178.49 310.18 177 310.18 177 265.17 178.49 266.71"/><polygon id="polygon15841" class="cls-14" points="204.38 312.85 204.38 321.76 202.9 321.76 202.9 310.23 204.38 312.85"/><polygon id="polygon15843" class="cls-15" points="215.72 298.1 228.04 298.1 228.04 296.61 213.1 296.61 215.72 298.1"/><g id="g15845"><path id="path15847" class="cls-30" d="M217.69,292.08v-18.4h9.38V252.28h-9.38V230.82A15.18,15.18,0,1,0,200.34,214h-3.72a7.52,7.52,0,0,0-1.84-3,8.93,8.93,0,0,0-6.33-2.55,9.43,9.43,0,0,0-8.64,5.57h-9.12a9.48,9.48,0,0,0-17.27,0h-4.21a15.17,15.17,0,1,0-17.35,16.77v21.45h-9.38v21.41h9.38v18.4H117v34.2h34.2V314.7h47.08v11.58h34.2v-34.2H217.69ZM127,256.83h9.38v-30.4h-2.28a10.62,10.62,0,1,1,10.62-10.62c0,.05,0,.1,0,.15l-.11,2.64h12.22l.41-1.76a4.92,4.92,0,0,1,9.58,0l.41,1.76h16l.41-1.76a4.9,4.9,0,0,1,4.79-3.81,4.34,4.34,0,0,1,3.09,1.2,3.12,3.12,0,0,1,.91,2.16l.35,2.21h12.1l-.09-2.36,0-.28s0-.09,0-.14a10.62,10.62,0,1,1,10.62,10.62h-2.28v30.4h9.38v3.78H127Zm45.46,53.31H146.68v11.58H121.59V296.64h14.82V269.13H127v-4h45.46ZM228,321.72H202.87V310.14H177.05v-45h45.46v4h-9.38v27.51H228v25.08Z"/></g><g id="g15849"><polygon id="polygon15851" class="cls-31" points="196.22 246.47 195.88 244.79 196.72 244.52 196.6 243.92 184.04 242.94 184.07 243.66 185.77 243.74 186.24 250.51 193.18 249.83 196.22 246.47"/><g id="g15853"><path id="path15855" class="cls-3" d="M175.84,220.75a15.81,15.81,0,0,0,4.29,4.77,46.49,46.49,0,0,0,5.53,2.82s-3.79.1-5.42,1.36a16.7,16.7,0,0,0-3.1,3.57,52.12,52.12,0,0,0,.09-6.4A37.37,37.37,0,0,0,175.84,220.75Z"/><path id="path15857" class="cls-3" d="M185.64,228.58s.17,5.64,1.83,9.31a66.68,66.68,0,0,0,4.72,8.19A24.3,24.3,0,0,0,184,245c-4.25.23-5.84,2-5.84,2a64.35,64.35,0,0,0-.26-8.6,31.78,31.78,0,0,0-1.2-4.39s1.47.25,4-1.15A22.13,22.13,0,0,0,185.64,228.58Z"/><polygon id="polygon15859" class="cls-32" points="177.07 249.49 175.54 220.38 175.98 220.5 177.84 249.85 177.07 249.49"/><polygon id="polygon15861" class="cls-32" points="176.48 233.68 185.68 228.18 185.95 228.45 176.53 234.41 176.48 233.68"/><polygon id="polygon15863" class="cls-32" points="177.18 246.54 192.33 245.85 192.46 246.2 177.31 247.41 177.18 246.54"/></g><g id="g15865"><path id="path15867" class="cls-3" d="M162.24,219.45a15.81,15.81,0,0,0,4.29,4.77,46.54,46.54,0,0,0,5.53,2.82s-3.79.1-5.42,1.36a16.67,16.67,0,0,0-3.1,3.57,52.32,52.32,0,0,0,.09-6.4A37.48,37.48,0,0,0,162.24,219.45Z"/><path id="path15869" class="cls-3" d="M172,227.28s.18,5.64,1.83,9.31a66.81,66.81,0,0,0,4.72,8.19,24.26,24.26,0,0,0-8.17-1.12c-4.25.23-5.84,2-5.84,2a64.21,64.21,0,0,0-.26-8.6,31.93,31.93,0,0,0-1.2-4.39s1.47.25,4-1.15A22.07,22.07,0,0,0,172,227.28Z"/><polygon id="polygon15871" class="cls-32" points="163.48 248.19 161.95 219.08 162.38 219.2 164.24 248.56 163.48 248.19"/><polygon id="polygon15873" class="cls-32" points="162.88 232.38 172.08 226.88 172.35 227.15 162.94 233.11 162.88 232.38"/><polygon id="polygon15875" class="cls-32" points="163.59 245.24 178.73 244.55 178.87 244.9 163.71 246.11 163.59 245.24"/></g><g id="g15877"><path id="path15879" class="cls-3" d="M142.13,241.77a30.46,30.46,0,0,0,5.89-1.31,43.26,43.26,0,0,0,7.06-3.16s-3.52,3.4-3.31,5.06a7,7,0,0,0,2,3.33s-3.36-2.7-5.48-3.17A57.3,57.3,0,0,0,142.13,241.77Z"/><path id="path15881" class="cls-3" d="M153.81,239.26a11,11,0,0,0,3.29-.95,10.48,10.48,0,0,0,2.34-2.43s-3,4.84-2.73,6.67a14.36,14.36,0,0,0,2.07,4.42s-3.42-2.74-4.84-3.23-1.57-.72-1.57-.72a2.47,2.47,0,0,1,.11-1.89A12.7,12.7,0,0,1,153.81,239.26Z"/><path id="path15883" class="cls-3" d="M158.26,238.93a9.56,9.56,0,0,0,2.51-1.48c.63-.58,1.93-4,1.93-4s-1.88,6.91-1.44,9.11a20.25,20.25,0,0,0,2.27,5.14s-3.25-2.92-4.52-3.33-1.43-.68-1.43-.68a4.13,4.13,0,0,1-.36-2.36A11,11,0,0,1,158.26,238.93Z"/><path id="path15885" class="cls-32" d="M155.6,237.06a22,22,0,0,0,3.92-1.83,16.49,16.49,0,0,0,3.14-2.22,10,10,0,0,1-2.7,2.29A15.11,15.11,0,0,1,155.6,237.06Z"/></g><path id="path15887" class="cls-33" d="M158.87,253.06c.55.24,1.11.51,1.68.79a13.51,13.51,0,0,0,5.66,1.82,9.24,9.24,0,0,0,4.7-1.67,10.8,10.8,0,0,1,5.61-1.91,11.67,11.67,0,0,1,5.78,1.91,10,10,0,0,0,4.82,1.67,6.64,6.64,0,0,0,4-1.58,9,9,0,0,1,5.43-2c2-2.72,3.32-7.61,3.32-7.61l-5.64,1.63-1.36,2s-7.32.67-18.92.47c-16.65-.27-32.76-7.12-32.76-7.12l.11.53,11.94,4.8S157.67,251,158.87,253.06Z"/><path id="path15889" class="cls-34" d="M156.36,248a65.81,65.81,0,0,0,12.3,2.52c9.74,1.19,28.13-1.26,28.13-1.26S177.55,252,169,251C155.95,249.46,156.36,248,156.36,248Z"/><path id="path15891" class="cls-34" d="M158.39,250.27a83.32,83.32,0,0,0,13.23,2.38c9.52.94,23.75-1.37,23.75-1.37s-15,2.58-23.29,1.83C159.49,252,158.39,250.27,158.39,250.27Z"/><g id="g15893"><g id="g15895"><path id="path15897" class="cls-3" d="M187.1,257.32a11.56,11.56,0,0,1-5.7-1.89,10.11,10.11,0,0,0-4.89-1.69,9.23,9.23,0,0,0-4.7,1.67,10.79,10.79,0,0,1-5.61,1.91,14.85,14.85,0,0,1-6.46-2,11.69,11.69,0,0,0-4.64-1.57,11.45,11.45,0,0,0-5.85,2,.91.91,0,0,1-1.23-.16.79.79,0,0,1,.16-1.16,13.22,13.22,0,0,1,6.91-2.3,12.89,12.89,0,0,1,5.45,1.76,13.51,13.51,0,0,0,5.66,1.82,9.24,9.24,0,0,0,4.7-1.67,10.8,10.8,0,0,1,5.61-1.91,11.67,11.67,0,0,1,5.78,1.91,10,10,0,0,0,4.82,1.67,6.64,6.64,0,0,0,4-1.58,9,9,0,0,1,5.45-2,11.79,11.79,0,0,1,7.43,2.35.79.79,0,0,1,0,1.17.92.92,0,0,1-1.24,0,10.2,10.2,0,0,0-6.24-1.91,7.26,7.26,0,0,0-4.42,1.69A8.4,8.4,0,0,1,187.1,257.32Z"/></g></g></g></g><g id="g15899"><g id="g15901"><polygon id="polygon15903" class="cls-35" points="104 177.82 87.95 185.38 107.39 185.38 119.81 177.82 104 177.82"/><polygon id="polygon15905" class="cls-35" points="119.81 177.82 130.54 171.3 117.87 171.3 104 177.82 119.81 177.82"/><polygon id="polygon15907" class="cls-35" points="117.87 171.3 102.63 171.3 85.23 177.82 104 177.82 117.87 171.3"/><polygon id="polygon15909" class="cls-35" points="125.44 185.38 142.51 185.38 148.5 177.82 134.62 177.82 125.44 185.38"/><polygon id="polygon15911" class="cls-35" points="148.5 177.82 153.66 171.3 142.54 171.3 134.62 177.82 148.5 177.82"/><polygon id="polygon15913" class="cls-35" points="134.62 177.82 142.54 171.3 130.54 171.3 119.81 177.82 134.62 177.82"/><polygon id="polygon15915" class="cls-35" points="134.62 177.82 119.81 177.82 107.39 185.38 125.44 185.38 134.62 177.82"/><polygon id="polygon15917" class="cls-35" points="142.51 185.38 156.55 185.38 159.85 177.82 148.5 177.82 142.51 185.38"/><polygon id="polygon15919" class="cls-35" points="107.39 185.38 90.17 195.85 112.73 195.85 125.44 185.38 107.39 185.38"/><polygon id="polygon15921" class="cls-35" points="125.44 185.38 112.73 195.85 134.22 195.85 142.51 185.38 125.44 185.38"/><polygon id="polygon15923" class="cls-35" points="134.22 195.85 151.97 195.85 156.55 185.38 142.51 185.38 134.22 195.85"/></g><g id="g15925"><polygon id="polygon15927" class="cls-35" points="244.99 177.82 261.04 185.38 241.6 185.38 229.18 177.82 244.99 177.82"/><polygon id="polygon15929" class="cls-35" points="229.18 177.82 218.46 171.3 231.13 171.3 244.99 177.82 229.18 177.82"/><polygon id="polygon15931" class="cls-35" points="231.13 171.3 246.36 171.3 263.77 177.82 244.99 177.82 231.13 171.3"/><polygon id="polygon15933" class="cls-35" points="223.55 185.38 206.48 185.38 200.5 177.82 214.38 177.82 223.55 185.38"/><polygon id="polygon15935" class="cls-35" points="200.5 177.82 195.34 171.3 206.46 171.3 214.38 177.82 200.5 177.82"/><polygon id="polygon15937" class="cls-35" points="214.38 177.82 206.46 171.3 218.46 171.3 229.18 177.82 214.38 177.82"/><polygon id="polygon15939" class="cls-35" points="214.38 177.82 229.18 177.82 241.6 185.38 223.55 185.38 214.38 177.82"/><polygon id="polygon15941" class="cls-35" points="206.48 185.38 192.45 185.38 189.14 177.82 200.5 177.82 206.48 185.38"/><polygon id="polygon15943" class="cls-35" points="241.6 185.38 258.83 195.85 236.27 195.85 223.55 185.38 241.6 185.38"/><polygon id="polygon15945" class="cls-35" points="223.55 185.38 236.27 195.85 214.78 195.85 206.48 185.38 223.55 185.38"/><polygon id="polygon15947" class="cls-35" points="214.78 195.85 197.03 195.85 192.45 185.38 206.48 185.38 214.78 195.85"/></g></g><g id="g15949"><path id="path15951" class="cls-36" d="M167.41,181.63H179s-.41,2.85-.41,4.1c0,2,.74,5.74,4.35,6.73s11.4.08,13,4.68a37.5,37.5,0,0,1,1.8,6.73H184.06c-4.59,0-10.5-1.15-13.37-9.85S167.41,181.63,167.41,181.63Z"/><path id="path15953" class="cls-37" d="M170.45,182.25s1,11.21,6.84,15.65,17.86,5,17.86,5-9.39-.13-13.3-.13-8-2.93-10.1-8.08a63.78,63.78,0,0,1-3.26-12.39Z"/><path id="path15955" class="cls-38" d="M176.86,182.29s-.81,8.37,3.32,10.61c4.57,2.48,11,.63,13.09,3.5a9.14,9.14,0,0,1,1.88,5.47s-2.06-4.66-4-4.93-10.49-.81-13-3-3.41-7.8-3.14-11.6h1.88Z"/><path id="path15957" class="cls-39" d="M181.67,179.15a3.21,3.21,0,0,1-3.21,3.21H166.83a3.21,3.21,0,0,1-3.21-3.21h0a3.21,3.21,0,0,1,3.21-3.21h11.64a3.21,3.21,0,0,1,3.21,3.21Z"/><g id="g15959"><g id="g15961"><path id="path15963" class="cls-40" d="M170.07,168.77c2.76-2.57,3.86-5.14,1.29-12.12s1.1-11.39,5-20.76-2.2-21.86-3.12-29.58c-.69-5.76-.76-16-.75-20.85l-.17-.46s-4.78,18.55-5.7,45,.37,47.76.37,47.76l2.33,0C168.75,174.58,168.42,170.32,170.07,168.77Z"/><path id="path15965" class="cls-3" d="M172.45,85.46c0,4.84.06,15.09.75,20.85.92,7.72,7,20.21,3.12,29.58s-7.53,13.78-5,20.76,1.47,9.55-1.29,12.12c-1.66,1.55-1.32,5.81-.79,9l8.69-.14a41.87,41.87,0,0,1-1.29-8.08c-.55-5.88,4.22-20.39,5.33-38C183,115.13,173.8,89.16,172.45,85.46Z"/></g><path id="path15967" class="cls-25" d="M167.16,177.78s-1.29-21.31-.37-47.76,5.7-45,5.7-45,10.84,28.84,9.74,46.48-5.88,32.15-5.33,38a41.75,41.75,0,0,0,1.29,8.08Z"/></g><path id="path15969" class="cls-41" d="M180,179.64a.76.76,0,0,1-.76.76H166.34a.76.76,0,0,1-.76-.76h0a.76.76,0,0,1,.76-.76h12.92a.76.76,0,0,1,.76.76Z"/></g><path id="path15971" class="cls-42" d="M49.94,288.75l.7,29.32-20.17-1.41s30.26,42.69,58.4,53.47l15.25-25.33a182.21,182.21,0,0,1-30.72-23.69C59.32,307.27,49.94,288.75,49.94,288.75Z"/><g id="g15973"><g id="g15975"><polygon id="polygon15977" class="cls-43" points="71.05 346.91 88.61 370.7 103.88 344.8 89.4 322.48 71.05 346.91"/></g></g><path id="path15979" class="cls-42" d="M299.74,288.75l-.7,29.32,20.17-1.41s-30.26,42.69-58.4,53.47L245.56,344.8a182.21,182.21,0,0,0,30.72-23.69C290.36,307.27,299.74,288.75,299.74,288.75Z"/><polygon id="polygon15981" class="cls-43" points="278.63 346.91 261.07 370.7 245.8 344.8 260.28 322.48 278.63 346.91"/><path id="path15983" class="cls-42" d="M176.61,384.43c8.91,0,27-2.11,49.72-8.44s52.3-29.08,52.3-29.08l-18.35-24.43s-31.6,31.47-85.08,31.47h-.73c-53.47,0-85.08-31.47-85.08-31.47L71,346.91s29.55,22.75,52.3,29.08,40.81,8.44,49.72,8.44Z"/><g id="g15985"><path id="path15987" class="cls-3" d="M88.07,344.25l2.12,1a4,4,0,0,0-.45,2.3,2.25,2.25,0,0,0,1.09,1.52,2.29,2.29,0,0,0,1.8.42,2,2,0,0,0,1.27-.91,1.61,1.61,0,0,0,.28-.9,2,2,0,0,0-.38-1q-.26-.38-1.26-1.58a6,6,0,0,1-1.48-2.7,4.41,4.41,0,0,1,.7-3.13,4.61,4.61,0,0,1,1.59-1.53,3.51,3.51,0,0,1,2.07-.48,4.84,4.84,0,0,1,2.25.81,4.32,4.32,0,0,1,2.17,2.85,4.94,4.94,0,0,1-.78,3.42L97,343.16a2.85,2.85,0,0,0,.34-1.76,2.05,2.05,0,0,0-1-1.24,2.33,2.33,0,0,0-1.67-.42,1.2,1.2,0,0,0-.82.58,1.28,1.28,0,0,0-.19,1,5.57,5.57,0,0,0,1.31,2,10.06,10.06,0,0,1,1.6,2.3,3.81,3.81,0,0,1,.28,2,5.41,5.41,0,0,1-.89,2.27,5.3,5.3,0,0,1-1.78,1.73,3.72,3.72,0,0,1-2.25.55,5.46,5.46,0,0,1-2.47-.93,4.45,4.45,0,0,1-2.2-3A6.42,6.42,0,0,1,88.07,344.25Z"/><path id="path15989" class="cls-3" d="M103,341.67l2.11,1.12L101.28,350a21.08,21.08,0,0,0-1.1,2.26,2.58,2.58,0,0,0,0,1.65,2.18,2.18,0,0,0,1.13,1.23,2.06,2.06,0,0,0,1.6.26,2.22,2.22,0,0,0,1.16-.85,21.35,21.35,0,0,0,1.29-2.2l3.9-7.33,2.11,1.12-3.7,7a25.64,25.64,0,0,1-2,3.28,4.75,4.75,0,0,1-1.52,1.33,3.74,3.74,0,0,1-1.81.43,5,5,0,0,1-2.23-.67,5.33,5.33,0,0,1-2-1.65,3.9,3.9,0,0,1-.62-1.79,4.61,4.61,0,0,1,.19-1.78,23,23,0,0,1,1.58-3.47Z"/><path id="path15991" class="cls-3" d="M107.23,360.75l6-13.61,2.19,1-5,11.3,5.44,2.41-1,2.31Z"/><path id="path15993" class="cls-3" d="M127.14,368.61l-2.45-.88.17-3.56-4.46-1.59-2.07,2.88-2.39-.85,9.4-12.58,2.38.85ZM125,361.54l.33-5.79-3.38,4.71Z"/><path id="path15995" class="cls-3" d="M129.88,369.42l1.05-15.24,2.37.62-.87,10.43,4.7-9.43,2.75.72-.64,10.67,4.41-9.68,2.33.61-6.57,13.79-2.46-.64.55-11.45-5.11,10.26Z"/><path id="path15997" class="cls-3" d="M144.3,372.91l2.4-14.81,8.68,1.41L155,362l-6.31-1-.53,3.28,5.88,1-.4,2.5-5.88-1-.65,4,6.54,1.06-.4,2.5Z"/><path id="path15999" class="cls-3" d="M155.74,369.76l2.34-.1a4,4,0,0,0,.68,2.24,2.24,2.24,0,0,0,1.67.83,2.29,2.29,0,0,0,1.79-.48,2,2,0,0,0,.7-1.4,1.61,1.61,0,0,0-.17-.92,2,2,0,0,0-.81-.72q-.4-.22-1.86-.81a6,6,0,0,1-2.57-1.7,4.41,4.41,0,0,1-.85-3.1,4.61,4.61,0,0,1,.68-2.1,3.51,3.51,0,0,1,1.6-1.4,4.87,4.87,0,0,1,2.37-.33,4.33,4.33,0,0,1,3.25,1.5,4.93,4.93,0,0,1,.92,3.39l-2.4-.06a2.85,2.85,0,0,0-.52-1.71,2.06,2.06,0,0,0-1.47-.63,2.32,2.32,0,0,0-1.67.41,1.21,1.21,0,0,0-.45.9,1.28,1.28,0,0,0,.28.94,5.57,5.57,0,0,0,2.11,1.18,10,10,0,0,1,2.49,1.28,3.79,3.79,0,0,1,1.18,1.63,5.42,5.42,0,0,1,.28,2.42,5.32,5.32,0,0,1-.76,2.36,3.72,3.72,0,0,1-1.73,1.54,5.47,5.47,0,0,1-2.62.34,4.45,4.45,0,0,1-3.34-1.59A6.41,6.41,0,0,1,155.74,369.76Z"/><path id="path16001" class="cls-3" d="M167.43,375.42l.33-15,2.39.05-.33,15Z"/><path id="path16003" class="cls-3" d="M185.92,370.12l2.29-.53a4,4,0,0,0,1.08,2.08,2.24,2.24,0,0,0,1.8.51,2.29,2.29,0,0,0,1.67-.8,2,2,0,0,0,.43-1.5,1.61,1.61,0,0,0-.34-.88,2,2,0,0,0-.93-.55q-.44-.14-2-.45a6,6,0,0,1-2.84-1.19,4.4,4.4,0,0,1-1.41-2.89,4.62,4.62,0,0,1,.28-2.19,3.51,3.51,0,0,1,1.31-1.67,4.84,4.84,0,0,1,2.26-.77,4.32,4.32,0,0,1,3.47.88,4.93,4.93,0,0,1,1.53,3.16l-2.37.39a2.85,2.85,0,0,0-.83-1.58,2.06,2.06,0,0,0-1.56-.34,2.33,2.33,0,0,0-1.57.71,1.2,1.2,0,0,0-.28,1,1.29,1.29,0,0,0,.45.87,5.56,5.56,0,0,0,2.29.76,10,10,0,0,1,2.68.8,3.79,3.79,0,0,1,1.46,1.38,5.43,5.43,0,0,1,.72,2.33,5.31,5.31,0,0,1-.31,2.46,3.72,3.72,0,0,1-1.42,1.83,5.47,5.47,0,0,1-2.51.82,4.45,4.45,0,0,1-3.57-.94A6.42,6.42,0,0,1,185.92,370.12Z"/><path id="path16005" class="cls-3" d="M198.63,373.58,196,358.79l8.66-1.52.44,2.5-6.3,1.1.57,3.28,5.86-1,.44,2.49-5.86,1,.7,4,6.52-1.14.44,2.49Z"/><path id="path16007" class="cls-3" d="M210.17,371.43,206.62,357l2.33-.57,2.95,12,5.78-1.42.6,2.45Z"/><path id="path16009" class="cls-3" d="M230.75,365.49l-2.48.81-2-2.92-4.51,1.47.12,3.54-2.41.79-.25-15.7,2.41-.78Zm-6-4.28-3.28-4.79.2,5.79Z"/><path id="path16011" class="cls-3" d="M233.83,364.19l-4.66-11.56-3.26,1.32-.95-2.35,8.74-3.52.95,2.35-3.25,1.31,4.66,11.56Z"/><path id="path16013" class="cls-3" d="M249.81,356.88,247.47,358l-2.43-2.6-4.25,2.09.63,3.49-2.28,1.12-2.47-15.51,2.27-1.12Zm-6.57-3.39-3.92-4.28,1,5.7Z"/><path id="path16015" class="cls-3" d="M251.74,355.76,243.81,343l2-1.23,9.42,5.94-5.3-8.51,1.89-1.17,7.93,12.74-2,1.27-9.23-5.78,5.17,8.31Z"/></g><g id="g16017"><path id="path16019" d="M141.49,342.25s4.23-4.36,5.13-4.49,3.44,2.62,4.72,4.29,3.1,3.28,2.71,3.41a10.85,10.85,0,0,1-1.28.26l-5.7-5S144.5,342.79,144,343l-.51.26Z"/><path id="path16021" d="M153.16,339.3h3.21a4.81,4.81,0,0,1,2.82,2.44,22,22,0,0,0,2.18,3.72s-.64.64-1,.64-3.08-5-3.08-5h-2.05C154.18,341.1,153.16,339.3,153.16,339.3Z"/><path id="path16023" d="M160.59,339.94a2.57,2.57,0,0,1,1.67.77,33.87,33.87,0,0,1,2.31,2.95,39.34,39.34,0,0,1,3.72-3.08c.77-.38,2.95.9,2.95.9l2.56.13a3.37,3.37,0,0,1,2.44,1.67c.34.55,3.85,3.72,3.46,4.1a1.9,1.9,0,0,1-1.15.38l-5.1-5.14-2.69-.13-1.41.38-3.87,3.73s-1.16-.13-1.29-.51S160.59,339.94,160.59,339.94Z"/><path id="path16025" d="M166.45,338.6a.27.27,0,0,1,0,.41l-1,.86a.35.35,0,0,1-.45,0l-1-.86a.27.27,0,0,1,0-.41l1-.86a.35.35,0,0,1,.45,0Z"/><path id="path16027" d="M191.13,347.94a.27.27,0,0,1,0,.41l-1,.86a.35.35,0,0,1-.45,0l-1-.86a.27.27,0,0,1,0-.41l1-.86a.35.35,0,0,1,.45,0Z"/><path id="path16029" d="M194.4,338.48a.27.27,0,0,1,0,.41l-1,.86a.35.35,0,0,1-.45,0l-1-.86a.27.27,0,0,1,0-.41l1-.86a.35.35,0,0,1,.45,0Z"/><path id="path16031" d="M177.67,343s2.56-2.75,4-2.24,3.7,3.44,4.28,3.38,1.94-.46,1.94-.91a8.93,8.93,0,0,0-1.48-3.3c-.7-.83-2.11-2.37-1.73-2.62a1.92,1.92,0,0,1,1.85.06c.45.38,3.71,5.95,3.71,7s-3.13,2.56-4.16,2.56-4-3.84-4.41-4.09-2.56.77-2.75.9a2.64,2.64,0,0,1-1,.06Z"/><path id="path16033" d="M191.93,343.22s3.33-3.07,4.29-2.81,4.48,3.84,5.37,3.39a6.58,6.58,0,0,0,1.53-1.09s1.15,1.79.83,2.24-1.33,1.43-1.91,1.43a6.29,6.29,0,0,1-2-1l-2.68-2.16a8.86,8.86,0,0,1-2.63,1.64C193.6,345.22,191.93,343.22,191.93,343.22Z"/><path id="path16035" d="M200.18,340.4a16,16,0,0,1,3.26-1.66c1.09-.26,2.62,1.22,3.33,1.6a14.3,14.3,0,0,1,2.11,1.85s-1,1-1.47.64-3-2.56-3.33-2.43a11.63,11.63,0,0,1-1.79.9A1.7,1.7,0,0,1,200.18,340.4Z"/></g><g id="g16037"><polygon id="polygon16039" class="cls-10" points="179.01 34.48 172.81 16.79 172.78 16.87 172.78 42.05 179.05 34.48 179.01 34.48"/><polygon id="polygon16041" class="cls-44" points="172.78 42.05 148.61 34.51 163.09 45.19 163.08 45.21 172.78 42.07 172.78 42.05"/><g id="g16043"><polygon id="polygon16045" class="cls-44" points="172.78 42.05 172.78 16.87 166.65 34.45 172.77 42.04 172.78 42.05"/><polygon id="polygon16047" class="cls-10" points="166.65 34.45 166.64 34.48 148.52 34.44 148.61 34.51 172.77 42.04 166.65 34.45"/></g><g id="g16049"><polygon id="polygon16051" class="cls-44" points="197.12 34.44 179.05 34.48 172.8 42.03 197.09 34.46 197.12 34.44"/><polygon id="polygon16053" class="cls-10" points="172.8 42.03 172.78 42.05 172.78 42.05 182.31 45.02 197.09 34.46 172.8 42.03"/></g><g id="g16055"><polygon id="polygon16057" class="cls-44" points="182.31 45.02 182.31 45.02 172.78 42.05 172.78 42.07 187.83 62.31 182.31 45.02"/><polygon id="polygon16059" class="cls-10" points="172.78 42.07 172.78 52.22 172.81 52.2 187.84 62.34 187.83 62.31 172.78 42.07"/></g><g id="g16061"><polygon id="polygon16063" class="cls-10" points="163.08 45.21 157.8 63 157.91 62.92 172.74 42.08 163.08 45.21"/><polygon id="polygon16065" class="cls-44" points="157.91 62.92 172.78 52.22 172.78 42.07 172.74 42.08 157.91 62.92"/></g></g><polygon id="polygon16067" class="cls-44" points="191.61 16.23 178.76 25.57 180.66 31.41 191.61 16.23"/><polyline id="polyline16069" class="cls-44" points="153.78 16.23 158.71 31.41 164.73 31.41"/><polygon id="polygon16071" class="cls-44" points="203.31 52.22 190.55 42.95 185.58 46.56 203.31 52.22"/><polygon id="polygon16073" class="cls-44" points="172.69 74.46 177.57 59.46 172.69 55.92 172.69 74.46"/><polygon id="polygon16075" class="cls-44" points="142.08 52.22 157.97 52.22 159.81 46.56 142.08 52.22"/><g id="g16077"><polygon id="polygon16079" class="cls-45" points="186.68 31.41 191.61 16.23 178.76 25.57 180.66 31.41 186.68 31.41"/><polygon id="polygon16081" class="cls-45" points="167.82 59.46 172.69 74.46 177.57 59.46 172.69 55.92 167.82 59.46"/><polygon id="polygon16083" class="cls-45" points="163.08 45.21 157.8 63 157.91 62.92 172.78 52.22 172.81 52.2 187.84 62.34 187.83 62.31 182.31 45.02 182.31 45.02 197.09 34.46 197.12 34.44 179.05 34.48 179.01 34.48 172.81 16.79 172.78 16.87 166.65 34.45 166.64 34.48 148.52 34.44 148.61 34.51 163.09 45.19 163.08 45.21"/><polygon id="polygon16085" class="cls-45" points="164.73 31.41 166.63 25.57 153.78 16.23 158.71 31.41 164.73 31.41"/><polygon id="polygon16087" class="cls-45" points="185.58 46.56 187.42 52.22 203.31 52.22 190.55 42.95 185.58 46.56"/><polygon id="polygon16089" class="cls-45" points="159.81 46.56 154.84 42.95 142.08 52.22 157.97 52.22 159.81 46.56"/></g></g></svg>