<svg id="Layer_1" data-name="Layer 1" xmlns="http://www.w3.org/2000/svg" xmlns:xlink="http://www.w3.org/1999/xlink" viewBox="0 0 1080 406.02"><defs><style>.cls-1{font-size:80.86px;fill:#7a8288;font-family:Arial-BoldMT, Arial;font-weight:700;}.cls-2,.cls-29{fill:#fff;}.cls-3{fill:#5d6f7a;}.cls-4{fill:#c3d4dd;}.cls-13,.cls-14,.cls-15,.cls-16,.cls-24,.cls-29,.cls-4{stroke:#636466;}.cls-13,.cls-14,.cls-15,.cls-16,.cls-17,.cls-18,.cls-19,.cls-20,.cls-21,.cls-24,.cls-25,.cls-26,.cls-29,.cls-34,.cls-35,.cls-38,.cls-4,.cls-41,.cls-42,.cls-44,.cls-5,.cls-6,.cls-7{stroke-linejoin:round;}.cls-5{fill:#009042;}.cls-25,.cls-5{stroke:#064926;}.cls-13,.cls-14,.cls-15,.cls-16,.cls-17,.cls-18,.cls-19,.cls-20,.cls-21,.cls-24,.cls-25,.cls-26,.cls-34,.cls-35,.cls-38,.cls-41,.cls-42,.cls-44,.cls-5,.cls-6,.cls-7{stroke-linecap:round;}.cls-6,.cls-7{fill:#e8b909;}.cls-18,.cls-19,.cls-20,.cls-21,.cls-35,.cls-44,.cls-6,.cls-7{stroke:#8e4a02;}.cls-6{stroke-width:2px;}.cls-17,.cls-19,.cls-21,.cls-25,.cls-26,.cls-7{stroke-width:0.5px;}.cls-8{fill:#ffe85e;}.cls-19,.cls-9{fill:#d3a809;}.cls-10{fill:#28903b;}.cls-11{fill:#ffd400;}.cls-12{fill:#0072bc;}.cls-13{fill:#8c8c8c;}.cls-14{fill:#636466;}.cls-15{fill:url(#linear-gradient);}.cls-16{fill:url(#linear-gradient-2);}.cls-17,.cls-18,.cls-37,.cls-38{fill:#dd954d;}.cls-17,.cls-26{stroke:#8d3803;}.cls-20,.cls-21,.cls-35{fill:#915a26;}.cls-22{fill:#666;}.cls-23{fill:#bcbec0;}.cls-24,.cls-44{fill:none;}.cls-25{fill:#9cb227;}.cls-26{fill:#b76e11;}.cls-27{fill:#f7941e;}.cls-28{fill:#ffd15e;}.cls-30{fill:#91672f;}.cls-31{fill:#9b6e33;}.cls-32{fill:#ba8440;}.cls-33{fill:#eea852;}.cls-34{fill:#4bb857;stroke:#2e7537;}.cls-35,.cls-38{stroke-width:0.75px;}.cls-36{fill:#7c3f00;}.cls-38{stroke:#905501;}.cls-39{fill:#bacad3;}.cls-40{fill:#ffd830;}.cls-41{fill:#d71920;}.cls-41,.cls-42{stroke:#8b0304;stroke-width:1.5px;}.cls-42{fill:#b11116;}.cls-43{fill:#f2c24b;}</style><linearGradient id="linear-gradient" x1="106.58" y1="-637.5" x2="106.58" y2="-611.28" gradientTransform="matrix(1, 0, 0, -1, 0, -400.6)" gradientUnits="userSpaceOnUse"><stop offset="0" stop-color="#636466"/><stop offset="0.01" stop-color="#656668"/><stop offset="0.16" stop-color="#838588"/><stop offset="0.31" stop-color="#9b9da0"/><stop offset="0.46" stop-color="#adafb2"/><stop offset="0.6" stop-color="#b8babc"/><stop offset="0.72" stop-color="#bcbec0"/><stop offset="1" stop-color="#dcddde"/></linearGradient><linearGradient id="linear-gradient-2" x1="182.19" y1="-637.5" x2="182.19" y2="-611.28" xlink:href="#linear-gradient"/></defs><title>Perpustakaan SulSel</title><text class="cls-1" transform="translate(286.03 156.35)">Dinas Perpustakaan<tspan x="0" y="85.1">Dan Kearsipan</tspan><tspan x="0" y="170.2">SulSel</tspan></text><g id="g18228"><path id="path15449" class="cls-2" d="M149.23,352.31c32.4,0,52.17-14,52.17-14s2.92,4.23,4.21,4.56,3.56-.65,3.56-.65c15.23-5.53,41.47-36.13,43.74-40.36s2.8-10.42,2.8-10.42l-14.79-.33s.07-19.2.07-21.81-5.58-3.91-5.58-3.91c23.33-26.69,37.91-78.44,7.45-124s-83.95-59.89-83.95-59.89l.65-11.07-11.72,5.86-4-8.46h-1.19l-4.39,8.79L126,69.13l0,13S75.14,95.82,44.68,141.38s-15.88,97.32,7.45,124c0,0-4.91,1.3-4.91,3.91S48,291.1,48,291.1l-16.13.33s.53,6.18,2.8,10.42,28.51,34.83,43.74,40.36c0,0,2.27,1,3.56.65s4.21-4.56,4.21-4.56,19.76,14,52.17,14Z"/><path id="path15451" class="cls-3" d="M86.91,163.34c.24-.08,7.36-6.55,13.1-12.29s7.84-8.17,11.81-8.81a14.11,14.11,0,0,1,7,.57s9.95-12,11.89-14.39,7.74-7.91,9.7-8.65c1.67-.63,2.51,0,3.56.57s10,8.37,14.64,13.75c4,4.58,15.45,15,15.45,15a5,5,0,0,1,5.09-1.37c3.4.81,12.21,6.71,17.06,11.56s6.31,5.9,7,6.15-1.78.73-3.15-.08-8.49-8.81-12.13-11.24-9.06-5.5-10.51-4.69-2.67,2.83-3.48,2.67a1.72,1.72,0,0,1-1.13-.73S158.38,136,149.51,128c-2.35-2.1-7.75-6.35-9.2-6.17-2.25.28-10,8.92-12.07,11.75s-8.9,10.84-9.3,12a8.21,8.21,0,0,0-8.57.24A59.21,59.21,0,0,0,98,156.47c-2.67,3.07-5.9,6.55-7.44,7.12A6.17,6.17,0,0,1,86.91,163.34Z"/><path id="path15453" class="cls-3" d="M81.66,171s7.93-4.45,13.1-2.51a27.58,27.58,0,0,1,8.81,5.58,10.84,10.84,0,0,1,10-4.69c6.87.57,9.46,3.15,9.46,3.15s9.22-14.39,22.89-12.21a30.8,30.8,0,0,1,20.14,12.29s4.93-4.69,10.43-3.48a18.18,18.18,0,0,1,8.73,4.69s6.39-6.55,12.21-6a21.33,21.33,0,0,1,9.95,3.72l-1.37,1s-5.9-3.48-9.62-2.91a17.55,17.55,0,0,0-9.14,5.09,15.52,15.52,0,0,1-1.7,1.94s-5.5-6.47-11.48-5.26-8.73,4-8.73,4-9-13.18-20.14-13.42-21.92,13.26-21.92,13.26-6.23-5.09-11.16-3.72-8.81,5.9-8.81,5.9-5.66-7.52-10.76-7.36a39,39,0,0,0-9.38,1.78A3.7,3.7,0,0,1,81.66,171Z"/><g id="g15455"><g id="g15457"><path id="path15459" class="cls-4" d="M194.4,104.07a4,4,0,0,0-6.23-3.11,4,4,0,0,0-6.59-2c-3.84-3.11-7.42-4.51-8.84-3.18s-.39,4.6,2.11,8.37a4,4,0,0,0,2.6,7.41,4,4,0,1,0,7.4,2.46c2.67,1.61,4.92,2.13,6,1.14s.59-3.81-1.26-7a4,4,0,0,0,4.83-4Z"/><path id="path15461" class="cls-5" d="M176,120.52s-.62-2.87,1.68-3.69a10.46,10.46,0,0,1,4.48-.51s-.8-3.75,1.48-5.13,4.65.41,4.65.41-.92-3.62.71-4.82a5.47,5.47,0,0,1,3.42-1s.76-5,5-3.83a4.28,4.28,0,0,0-.36,5c1.72,2.58,4.59,7.77,3.78,11.67s-4.67,7.67-9.53,6.67-9.6-6.52-11.85-6.42A4.83,4.83,0,0,0,176,120.52Z"/><path id="path15463" class="cls-2" d="M173.56,97c.07-.44,3.43-.27,5.25,1.61s2.7,2.07,2.7,2.07,2-2.09,3.47-1.36a6.9,6.9,0,0,1,2.39,3s2.19-1.7,3.47-.49,1.3,1.86,0,2-1.79-.14-2.28.75-1.07,1.61-1.77,1.47-1.58.81-1.69,1.38-.39,1.11-.82,1.21-.85-.62-1.82.16-2.28,1.71-2.21,2.4-1.35-1-.3-2,2-2,1.26-2.1a8.72,8.72,0,0,0-2.34.23c-.82.12-4,.6-3.73-.59a3.5,3.5,0,0,1,2.09-2.09,10.13,10.13,0,0,0,2.21-1.44c.12-.27-1.55-.72-3-1.71s-1-2.31-1.17-2.87S173.56,97,173.56,97Z"/></g><g id="g15465"><path id="path15467" class="cls-4" d="M196.35,125.18s-3.16-6.52-1-7.7,6.62,1.09,6.62,1.09.1-4.74,2.07-4.94,4.15,4.94,4.15,4.94,2.37-3.56,4.44-3.46,1.78,9.48.59,12.74-7.11,6.22-9.58,6.52a37.88,37.88,0,0,1-9.48-.69c-1.09-.4-1-.89-1-1.48s3.85-2.57,3.85-2.57-6.22-1.48-5.83-3.16S196.35,125.18,196.35,125.18Z"/><path id="path15469" class="cls-5" d="M207,129.13s-.2-3.56,1.48-4.25a15.89,15.89,0,0,1,4.94-.59s1.09-4.44,4-4.74c.4,2-.79,5.53-.49,9.28s-.1,8.79-2.47,10-9.78.3-12-.3-5.63-1.38-7.31-.49c0,0,2.17-3.26,4.25-3.85a12.46,12.46,0,0,1,2.77-.59,2.21,2.21,0,0,1-.4-3.16C203.06,128.64,207,129.13,207,129.13Z"/><path id="path15471" class="cls-2" d="M196,119c.67-.78,2.85-1,4.37.07a26.15,26.15,0,0,1,2.82,2.26,11.06,11.06,0,0,1,0-3.44c.33-1.26.74-2.67.74-2.67s1,3.85,1.22,4.89,1.19,1.93,1.41,1.78a17.64,17.64,0,0,0,2.82-3.07,7.63,7.63,0,0,1,2.67-2.3c.22-.07-.89,3.37-1.15,4.7s0,1.41,0,1.41-2.93.26-4.15,1.52a14.2,14.2,0,0,0-2.07,2.89s-3,.85-4,2.15-.56,1.89-2.22,2.52a13.3,13.3,0,0,1-4.11.7c.15-.07,3-1.67,4.07-2.48a2.47,2.47,0,0,0,1.11-1.67,17.76,17.76,0,0,0-4.22-1.22,8,8,0,0,1-2.59-.56,5.25,5.25,0,0,1,3.33-.48c2.33.22,3.59.37,3.59.37a8.22,8.22,0,0,1-2-2.26c-.7-1.3.41-1.93.15-2.59A16.73,16.73,0,0,0,196,119Z"/></g><g id="g15473"><path id="path15475" class="cls-4" d="M210.24,139.69s-2.19-8.1.53-9,7.3,2.66,7.3,2.66,1.13-5.37,3.42-5.17,3.66,6.51,3.66,6.51,3.46-3.54,5.8-3,0,11.17-2.07,14.63-9.43,5.55-12.31,5.36a43.85,43.85,0,0,1-10.64-2.83c-1.15-.68-.93-1.22-.81-1.9s4.94-2.09,4.94-2.09-6.76-3-6-4.85S210.24,139.69,210.24,139.69Z"/><path id="path15477" class="cls-5" d="M221.53,146.48s.54-4.09,2.6-4.51,5.75.39,5.75.39,2.19-4.82,5.52-4.55c0,2.33-2.09,6.13-2.56,10.46s-2,10-5,10.82-11.19-1.77-13.65-2.93-6.11-2.79-8.21-2.14c0,0,3.17-3.24,5.66-3.47a14.47,14.47,0,0,1,3.27-.08,2.56,2.56,0,0,1,.23-3.68C217.14,145.07,221.53,146.48,221.53,146.48Z"/><path id="path15479" class="cls-2" d="M211.24,132.55c.93-.74,3.45-.48,5,1a30.37,30.37,0,0,1,2.72,3.18,12.79,12.79,0,0,1,.74-3.92c.65-1.36,1.42-2.88,1.42-2.88s.31,4.6.34,5.83.93,2.45,1.22,2.33a20.46,20.46,0,0,0,3.87-2.89,8.86,8.86,0,0,1,3.53-2c.27,0-1.74,3.65-2.32,5.11s-.26,1.61-.26,1.61-3.39-.33-5,.84a16.43,16.43,0,0,0-3,2.84s-3.64.32-5,1.59-1,2-3.07,2.39a15.43,15.43,0,0,1-4.83-.08c.18-.05,3.77-1.25,5.17-1.95a2.86,2.86,0,0,0,1.62-1.66,20.56,20.56,0,0,0-4.54-2.3,9.32,9.32,0,0,1-2.83-1.19s1.29-.59,3.9.17,4,1.19,4,1.19a9.52,9.52,0,0,1-1.75-3c-.52-1.63.88-2.11.73-2.92A19.38,19.38,0,0,0,211.24,132.55Z"/></g><g id="g15481"><path id="path15483" class="cls-4" d="M223.62,157.44s.14-8.39,3-8.48,6.27,4.58,6.27,4.58,2.58-4.85,4.72-4,1.71,7.27,1.71,7.27,4.31-2.44,6.4-1.25-3.11,10.73-6,13.48-10.6,2.72-13.31,1.74a43.83,43.83,0,0,1-9.44-5.67,1.4,1.4,0,0,1-.25-2c.31-.61,5.32-.64,5.32-.64s-5.66-4.78-4.37-6.31S223.62,157.44,223.62,157.44Z"/><path id="path15485" class="cls-5" d="M232.59,167.09s1.65-3.78,3.75-3.62,5.42,2,5.42,2,3.44-4,6.56-2.84c-.62,2.25-3.71,5.31-5.36,9.34s-4.69,9-7.76,9-10.26-4.8-12.3-6.6-5.1-4.37-7.3-4.33c0,0,3.95-2.24,6.4-1.77a14.42,14.42,0,0,1,3.17.83,2.55,2.55,0,0,1,1.24-3.47C228.76,164.52,232.59,167.09,232.59,167.09Z"/><path id="path15487" class="cls-2" d="M226.56,150.85c1.1-.46,3.45.49,4.48,2.36a30.35,30.35,0,0,1,1.73,3.81,12.79,12.79,0,0,1,1.8-3.56c1-1.13,2.16-2.37,2.16-2.37s-1,4.51-1.29,5.69.22,2.61.53,2.57a20.43,20.43,0,0,0,4.52-1.71,8.85,8.85,0,0,1,4-1c.27,0-2.68,3-3.64,4.26s-.7,1.47-.7,1.47-3.16-1.26-5.08-.6a16.46,16.46,0,0,0-3.65,1.9s-3.59-.71-5.22.15-1.56,1.66-3.61,1.44a15.41,15.41,0,0,1-4.62-1.42c.19,0,4-.16,5.51-.44a2.86,2.86,0,0,0,2-1.14,20.57,20.57,0,0,0-3.73-3.47,9.32,9.32,0,0,1-2.39-1.93s1.4-.21,3.7,1.24,3.52,2.26,3.52,2.26a9.51,9.51,0,0,1-.85-3.36c-.05-1.71,1.43-1.78,1.51-2.6A19.42,19.42,0,0,0,226.56,150.85Z"/></g><g id="g15489"><path id="path15491" class="cls-4" d="M229.14,178.25s2.26-8.38,5.38-7.8,5.63,6.06,5.63,6.06,4-4.26,6.12-2.93,0,7.69,0,7.69,5.27-1.44,7.23.24-6.07,10-9.92,12.11-12.14.25-14.82-1.37a47.17,47.17,0,0,1-8.77-7.89c-.75-1.19-.24-1.57.25-2.11s5.91.6,5.91.6-4.91-6.12-3.14-7.35S229.14,178.25,229.14,178.25Z"/><path id="path15493" class="cls-5" d="M236.39,189.67s2.74-3.67,5-3,5.36,3.49,5.36,3.49,4.74-3.48,7.8-1.42c-1.24,2.27-5.34,4.8-8.14,8.74s-7.34,8.58-10.66,7.8-9.88-7.77-11.63-10.23-4.41-6-6.8-6.51c0,0,4.83-1.42,7.36-.29a16,16,0,0,1,3.21,1.7,2.83,2.83,0,0,1,2.22-3.44C232.91,185.93,236.39,189.67,236.39,189.67Z"/><path id="path15495" class="cls-2" d="M234,172.33c1.3-.2,3.61,1.3,4.25,3.41a29.23,29.23,0,0,1,.91,4.22,13.41,13.41,0,0,1,2.84-3.15c1.37-.9,2.93-1.87,2.93-1.87s-2.19,4.29-2.83,5.41-.42,2.67-.08,2.7a24.36,24.36,0,0,0,5.31-.66,10.55,10.55,0,0,1,4.52-.06c.28.1-3.66,2.4-5,3.42s-1.12,1.32-1.12,1.32-3.1-2-5.34-1.79a19.36,19.36,0,0,0-4.43,1.06s-3.7-1.54-5.68-1.07-2.11,1.3-4.27.6a17.38,17.38,0,0,1-4.63-2.5c.21,0,4.33.77,6.06.85a3.32,3.32,0,0,0,2.47-.67,21.11,21.11,0,0,0-3.15-4.35,9.7,9.7,0,0,1-2.1-2.49,6.91,6.91,0,0,1,3.68,2.11c2.12,2,3.24,3.09,3.24,3.09a9.12,9.12,0,0,1-.07-3.57c.38-1.72,2-1.45,2.28-2.26A18.6,18.6,0,0,0,234,172.33Z"/></g><g id="g15497"><path id="path15499" class="cls-4" d="M227.58,201.94s4.3-8.23,7.43-6.9,4.47,7.63,4.47,7.63,5.17-3.52,7.07-1.64-1.77,8-1.77,8,5.84-.28,7.5,1.93-8.66,9.07-13.17,10.35-12.74-2.55-15.16-4.86a50.53,50.53,0,0,1-7.34-10.27c-.5-1.42.11-1.69.75-2.15s6,2,6,2-3.71-7.53-1.57-8.4S227.58,201.94,227.58,201.94Z"/><path id="path15501" class="cls-5" d="M232.51,215.56s3.71-3.2,5.87-1.95,4.79,4.89,4.79,4.89,5.75-2.54,8.48.33c-1.82,2.09-6.69,3.78-10.53,7.25s-9.66,7.26-12.94,5.67-8.52-10.41-9.78-13.38-3.21-7.29-5.59-8.38c0,0,5.37-.36,7.76,1.4a17.13,17.13,0,0,1,3,2.52,3,3,0,0,1,3.11-3.08C229.74,210.84,232.51,215.56,232.51,215.56Z"/><path id="path15503" class="cls-2" d="M234,196.88c1.4.09,3.47,2.2,3.65,4.55a31.26,31.26,0,0,1,0,4.62,14.36,14.36,0,0,1,3.7-2.63c1.64-.62,3.49-1.28,3.49-1.28s-3.28,4-4.21,5-1.06,2.69-.71,2.81a26,26,0,0,0,5.7.54,11.28,11.28,0,0,1,4.74,1c.27.17-4.38,1.66-6,2.42s-1.48,1.11-1.48,1.11-2.77-2.81-5.17-3.1a20.71,20.71,0,0,0-4.87.08s-3.5-2.47-5.68-2.43-2.5.87-4.6-.36a18.59,18.59,0,0,1-4.26-3.69c.21.1,4.35,1.81,6.14,2.29a3.55,3.55,0,0,0,2.74-.13s-1.16-3.84-2.29-5.27a10.36,10.36,0,0,1-1.61-3.09s1.61.49,3.36,3.06,2.67,4,2.67,4a9.75,9.75,0,0,1,.75-3.75c.79-1.71,2.42-1.05,2.91-1.83A20,20,0,0,0,234,196.88Z"/></g><g id="g15505"><path id="path15507" class="cls-4" d="M217.42,225.15s8-6.81,10.69-4.11,1.48,9.88,1.48,9.88,6.9-1.52,8.1,1.25-5.23,7.68-5.23,7.68,6.23,2.16,7,5.17-12.89,5.87-18.15,5.3-12.28-8-13.84-11.47-3.44-12.15-3.37-13.85.83-1.73,1.69-1.94,5.49,4.63,5.49,4.63-.72-9.45,1.89-9.47S217.42,225.15,217.42,225.15Z"/><path id="path15509" class="cls-5" d="M216.86,241.49s5.23-1.79,7,.43,3,7.13,3,7.13,7.1-.24,8.75,3.91c-2.79,1.42-8.6,1.14-14.08,3.16s-13.18,3.55-15.95.5-4.55-14.49-4.62-18.14-.3-9-2.33-11.13c0,0,5.79,1.88,7.54,4.73a19.32,19.32,0,0,1,2,3.88,3.42,3.42,0,0,1,4.56-1.92C215.94,235.38,216.86,241.49,216.86,241.49Z"/><path id="path15511" class="cls-2" d="M226.27,222.54c1.43.69,2.71,3.76,1.91,6.3a35.39,35.39,0,0,1-2,4.83,16.21,16.21,0,0,1,5-1.2c2,0,4.2.13,4.2.13s-5.11,2.78-6.51,3.46-2.24,2.37-1.92,2.64a29.45,29.45,0,0,0,5.74,3,12.75,12.75,0,0,1,4.55,3c.21.29-5.29-.1-7.33,0s-2,.54-2,.54-1.72-4.11-4.11-5.43a23.39,23.39,0,0,0-5.14-2s-2.63-4.06-4.93-4.94-3-.14-4.67-2.31a21,21,0,0,1-2.91-5.66c.18.19,3.79,3.73,5.47,5a4,4,0,0,0,2.92,1s.4-4.51-.18-6.49a11.71,11.71,0,0,1-.39-3.92s1.48,1.19,2.23,4.62,1.12,5.29,1.12,5.29a11,11,0,0,1,2.36-3.61c1.55-1.46,3-.09,3.82-.69A22.41,22.41,0,0,0,226.27,222.54Z"/></g><g id="g15513"><path id="path15515" class="cls-4" d="M204.9,248.49s8.7-2.62,10,1-2.26,8.46-2.26,8.46,6.34,2.65,6.25,5.67-8,4.76-8,4.76,4.74,4.59,4.21,7.66-14.16-.12-18.7-2.85-7.74-12.46-7.71-16.24,1.57-12.83,2.35-14.34,2.84-3.88,3.71-3.71,3,5.56,3,5.56S200.67,238,203,239,204.9,248.49,204.9,248.49Z"/><path id="path15517" class="cls-5" d="M196.09,263.26s5.5.58,6.14,3.33-.32,7.72-.32,7.72,6.54,2.77,6.28,7.24c-3.13.11-8.28-2.59-14.11-3.07s-13.45-2.34-14.67-6.27,2-15.06,3.46-18.39,3.52-8.28,2.58-11.08c0,0,4.45,4.14,4.84,7.47a19.34,19.34,0,0,1,.22,4.39,3.42,3.42,0,0,1,4.94.18C197.84,257.33,196.09,263.26,196.09,263.26Z"/><path id="path15519" class="cls-2" d="M212.62,250.05c1,1.23.87,4.55-.93,6.52a35.39,35.39,0,0,1-3.82,3.55,16.2,16.2,0,0,1,5,1c1.77.87,3.75,1.89,3.75,1.89s-5.81.37-7.36.4-3,1.21-2.86,1.58a29.45,29.45,0,0,0,4,5.11,12.75,12.75,0,0,1,2.85,4.66c.07.35-4.75-2.32-6.65-3.1s-2.06-.36-2.06-.36.17-4.45-1.44-6.65a23.4,23.4,0,0,0-3.83-4s-.67-4.79-2.39-6.56-2.65-1.38-3.26-4.06.75-8.93.83-8.69.87,5.4,1.85,7.25,2.14,4.06,2.14,4.06,2.26-3.92,2.58-6a35.54,35.54,0,0,1,1-4.34,9.46,9.46,0,0,1,.35,5.75c-.76,3.43-1.21,5.27-1.21,5.27a11,11,0,0,1,3.66-2.27c2-.67,2.72,1,3.75,1A6.29,6.29,0,0,0,212.62,250.05Z"/></g></g><g id="g15521"><g id="g15523"><g id="g15525"><path id="path15527" class="cls-6" d="M98.21,108c2.48-3,8.27-4.45,11.07-7.89,2-2.44,3.18-6.56,4.2-5.55s-1.78,13.18-4.45,17.5c-2.93,4.74-8.27,6.74-10.3,9.54s-6.23,10-11.7,13.1S77.73,138,76.2,140.2c0,0,.64-2.67,4.83-4.32a26.11,26.11,0,0,0,12.13-9.55c3.56-5.09,2.76-10.3,2.88-12.46A8.22,8.22,0,0,1,98.21,108Z"/><path id="path15529" class="cls-6" d="M91.21,109.29c1-1.64,2.42-4.71,3.69-4.71s-1.14,3.94-1.53,5.6S91.72,124.56,88.54,127s-12.85,10.43-14.12,16.66-6.8,12.07-9.09,14.1-3.15,1.72-3.15,1.72,6.23-7.07,7.53-8.44c2.29-2.42,3.18-6.61,4.2-9.92s4.2-6.36,5.09-9.67-1.14-8,3.31-13.36S89.94,111.46,91.21,109.29Z"/><path id="path15531" class="cls-6" d="M73.25,121.65c.76-1.75,3-3.94,4.22-4.09s-1.53,2.29-1.14,4.83c.25,1.68-.71,14.35-3.58,17.13s-9.29,11.9-9.79,18.24a20.5,20.5,0,0,1-5.54,12.47,15.09,15.09,0,0,0-3,5.53c-.24,1-.67-3.72-.67-3.72s4.27-4.87,5.4-6.39c2-2.68,2.35-7,3-10.36s1.2-6.81,1.68-10.2-2.33-8.6,1.44-14.44S72.25,124,73.25,121.65Z"/><path id="path15533" class="cls-6" d="M54.87,138.61c.26-1.89,1.79-4.59,3-5.08s-.85,2.62.2,5c.69,1.55,3.49,14.46,1.48,17.91s-6.05,13.51-4.83,19.76a18.81,18.81,0,0,1-2,13c-1.33,2.76-2.74,2.48-2.74,2.48s2.16-4.15,2.83-5.92c1.18-3.11.83-8.25.5-11.69s-.68-6.88-1.13-10.27-4.56-7.65-2.51-14.3S54.53,141.1,54.87,138.61Z"/><path id="path15535" class="cls-6" d="M42.34,160.16c-.42-2.33.33-6.1,1.53-7.13s0,3.41,2.15,5.77c1.42,1.56,8.52,15.09,7.49,19.93S52.16,195.92,56,202.8s3.92,8.87,3.42,12.64-2,1.76-2,1.76.41-3,.52-5.39c.19-4.12-2.84-6.12-4.56-10s-2.8-7.11-4.64-10.94S40.45,183.57,40.3,175,42.89,163.22,42.34,160.16Z"/><path id="path15537" class="cls-6" d="M33,176.72s-2,15,2.81,22.92,13.57,10.76,20,16.69S67,235.2,67,235.2l3.9,3.12-3.12-6.24s-5.15-12.32-9-15.91-9.67-6.24-10-8.89-2-11.38-4.05-15.75-9-8.73-9.2-10.45S35,175.94,33,176.72Z"/><path id="path15539" class="cls-6" d="M31.47,204.68s3.06,14.79,10.26,20.69,17,7.31,25,10.77,16.45,17,16.45,17l3,2.07-3.35-5.27S74.3,237.09,69.43,235s-11.77-4.34-12.95-6.73-5.69-10.06-9.06-13.51S36,209.53,35.28,208,33.13,203.27,31.47,204.68Z"/><path id="path15541" class="cls-6" d="M36.63,227.13s8.65,15.66,18.87,19.81,20.26,7.42,30.53,8.53,18.4,10.92,18.4,10.92l4.17,1.27,2,1.34s-15.68-14.59-21.92-15.25-13.3-6.4-15.48-8.7-10.7-7.76-15.71-10.48-14-3.54-15.4-5.06S38,225,36.63,227.13Z"/><path id="path15543" class="cls-6" d="M51.64,251.3S61,263.74,70.19,265.09s18,1.94,26.8.47,23.66,10.34,23.66,10.34l4.52.62-5.7-4.4S104.31,262.4,99,263.32s-12-2.7-14.18-4.3-10-4.59-14.63-5.89-12.28.15-13.63-.93S52.5,248.95,51.64,251.3Z"/><path id="path15545" class="cls-6" d="M67.81,270.28S79,281.18,88.21,281.16s18.12-.76,26.57-3.52,25.33,5.77,25.33,5.77l3.66-.38L138,280.79s-16.44-7.36-21.57-5.66-12.31-.88-14.67-2.15-10.62-3.05-15.34-3.66-12.12,2-13.61,1.1S68.31,267.82,67.81,270.28Z"/></g><g id="g15547"><path id="path15549" class="cls-6" d="M60.11,162.65s-2.17-8.14,3-14.64,13.31-8.38,15.72-11.17,5.38-10.58,13.55-10.58,8.78-1,10.21-2.23c3.41-3,5.2-3.34,5.2-3.34s-4,6.18-5.07,6.74S98,135.17,90.93,137a74.61,74.61,0,0,1-11.51,2.23s-11.14,4.46-13.92,8.17-3.71,6.5-3.71,10.58S60.11,162.65,60.11,162.65Z"/><path id="path15551" class="cls-6" d="M64.22,157.8s-.1-7.47,7.17-9.86,9.86-1.79,12.45-3.78,5.58-4.18,6.67-4.28a23.46,23.46,0,0,1-2.59,4.18c-1.29,1.49-3.29,3-3.48,4s-5.87,9.56-10.85,10.75a55.4,55.4,0,0,1-9.26,1.39s-7.67,3.66-10.06,15.4a39.39,39.39,0,0,0-.5,11.49l-1.39.4s-.83-11.45.46-14.94S55.06,162.58,64.22,157.8Z"/><path id="path15553" class="cls-6" d="M76.57,159.29A32.84,32.84,0,0,1,70,164.87c-3.39,2-9.66,4.08-12.55,10s-2.59,7.77-2.59,7.77a89.68,89.68,0,0,0-6,10.85c-2.39,5.38-1.49,14.24,1.69,17.52a49,49,0,0,0,6,5.28l.3-3.29s-7.37-2.69-7.37-9,2.39-13.74,6.37-16.23,8.46-3.09,14.14-10.85,3.78-9.56,5.28-11.85A7.91,7.91,0,0,0,76.57,159.29Z"/><path id="path15555" class="cls-6" d="M71.19,178s-1.1,5.38-3.68,7-10.16,9.76-10.36,14.44-.9,11.95-.9,11.95-3.39,7.87-1.89,12.94S62,232.47,65,234.17a14.15,14.15,0,0,1,4.28,3.48l-.8-4.18a35.44,35.44,0,0,1-6.17-3.39c-2.59-1.89-7-5.48-6.07-9.16s4.38-10,4.38-10,8.86-6.37,10-13.34,1-10.45,1.69-11.95.7-4.68.5-6A2.31,2.31,0,0,0,71.19,178Z"/><path id="path15557" class="cls-6" d="M71.79,199.52s0,7.17-1,8.46-7.17,12.15-5.87,18.52S71,242,71.59,245.42s5,7.87,10.16,10.55,9.56,4.38,9.56,4.38l-.1-2.59a34,34,0,0,1-6.37-2.19c-1.89-1.09-9.26-4.78-10.65-9.76s-1.29-8-.9-9.46S79,221.82,77,215.45s-3.09-5-2.89-8.46a23.34,23.34,0,0,0-.2-5.18C73.88,200.11,71.79,199.52,71.79,199.52Z"/><path id="path15559" class="cls-6" d="M80.95,219s1.19,4.38.2,6.57-3.19,17.42.8,22.2a95.32,95.32,0,0,0,7.17,7.77s3.19,11.05,8.46,14.84,9,4.58,12.55,5.68,12.6,2.06,12.6,2.06L118.2,275s-9.31-.87-11.6-1.77-9-4.71-10.52-9.29S93,254.78,93,254.78a29.54,29.54,0,0,0,.1-13c-1.59-6.87-5.68-12-6.87-15a10.51,10.51,0,0,0-2.39-4S83.24,218.63,80.95,219Z"/><path id="path15561" class="cls-6" d="M93.69,232.57s2.69,5.87,2.69,8.66,2.49,14.94,7.17,20.71,9.86,7.27,11.95,11.05,7.42,4.95,7.42,4.95l.14-2.36S117.59,272.8,117,270s-1.89-13.94-5.78-20.11-7.27-5.78-10.36-10.36-4.08-5.48-4.68-6.47S93.69,232.57,93.69,232.57Z"/></g></g><g id="g15563"><g id="g15565"><path id="path15567" class="cls-7" d="M98.21,108c2.48-3,8.27-4.45,11.07-7.89,2-2.44,3.18-6.56,4.2-5.55s-1.78,13.18-4.45,17.5c-2.93,4.74-8.27,6.74-10.3,9.54s-6.23,10-11.7,13.1S77.73,138,76.2,140.2c0,0,.64-2.67,4.83-4.32a26.11,26.11,0,0,0,12.13-9.55c3.56-5.09,2.76-10.3,2.88-12.46A8.22,8.22,0,0,1,98.21,108Z"/><path id="path15569" class="cls-7" d="M91.21,109.29c1-1.64,2.42-4.71,3.69-4.71s-1.14,3.94-1.53,5.6S91.72,124.56,88.54,127s-12.85,10.43-14.12,16.66-6.8,12.07-9.09,14.1-3.15,1.72-3.15,1.72,6.23-7.07,7.53-8.44c2.29-2.42,3.18-6.61,4.2-9.92s4.2-6.36,5.09-9.67-1.14-8,3.31-13.36S89.94,111.46,91.21,109.29Z"/><path id="path15571" class="cls-7" d="M73.25,121.65c.76-1.75,3-3.94,4.22-4.09s-1.53,2.29-1.14,4.83c.25,1.68-.71,14.35-3.58,17.13s-9.29,11.9-9.79,18.24a20.5,20.5,0,0,1-5.54,12.47,15.09,15.09,0,0,0-3,5.53c-.24,1-.67-3.72-.67-3.72s4.27-4.87,5.4-6.39c2-2.68,2.35-7,3-10.36s1.2-6.81,1.68-10.2-2.33-8.6,1.44-14.44S72.25,124,73.25,121.65Z"/><path id="path15573" class="cls-7" d="M54.87,138.61c.26-1.89,1.79-4.59,3-5.08s-.85,2.62.2,5c.69,1.55,3.49,14.46,1.48,17.91s-6.05,13.51-4.83,19.76a18.81,18.81,0,0,1-2,13c-1.33,2.76-2.74,2.48-2.74,2.48s2.16-4.15,2.83-5.92c1.18-3.11.83-8.25.5-11.69s-.68-6.88-1.13-10.27-4.56-7.65-2.51-14.3S54.53,141.1,54.87,138.61Z"/><path id="path15575" class="cls-7" d="M42.34,160.16c-.42-2.33.33-6.1,1.53-7.13s0,3.41,2.15,5.77c1.42,1.56,8.52,15.09,7.49,19.93S52.16,195.92,56,202.8s3.92,8.87,3.42,12.64-2,1.76-2,1.76.41-3,.52-5.39c.19-4.12-2.84-6.12-4.56-10s-2.8-7.11-4.64-10.94S40.45,183.57,40.3,175,42.89,163.22,42.34,160.16Z"/><path id="path15577" class="cls-7" d="M33,176.72s-2,15,2.81,22.92,13.57,10.76,20,16.69S67,235.2,67,235.2l3.9,3.12-3.12-6.24s-5.15-12.32-9-15.91-9.67-6.24-10-8.89-2-11.38-4.05-15.75-9-8.73-9.2-10.45S35,175.94,33,176.72Z"/><path id="path15579" class="cls-7" d="M31.47,204.68s3.06,14.79,10.26,20.69,17,7.31,25,10.77,16.45,17,16.45,17l3,2.07-3.35-5.27S74.3,237.09,69.43,235s-11.77-4.34-12.95-6.73-5.69-10.06-9.06-13.51S36,209.53,35.28,208,33.13,203.27,31.47,204.68Z"/><path id="path15581" class="cls-7" d="M36.63,227.13s8.65,15.66,18.87,19.81,20.26,7.42,30.53,8.53,18.4,10.92,18.4,10.92l4.17,1.27,2,1.34s-15.68-14.59-21.92-15.25-13.3-6.4-15.48-8.7-10.7-7.76-15.71-10.48-14-3.54-15.4-5.06S38,225,36.63,227.13Z"/><path id="path15583" class="cls-7" d="M51.64,251.3S61,263.74,70.19,265.09s18,1.94,26.8.47,23.66,10.34,23.66,10.34l4.52.62-5.7-4.4S104.31,262.4,99,263.32s-12-2.7-14.18-4.3-10-4.59-14.63-5.89-12.28.15-13.63-.93S52.5,248.95,51.64,251.3Z"/><path id="path15585" class="cls-7" d="M67.81,270.28S79,281.18,88.21,281.16s18.12-.76,26.57-3.52,25.33,5.77,25.33,5.77l3.66-.38L138,280.79s-16.44-7.36-21.57-5.66-12.31-.88-14.67-2.15-10.62-3.05-15.34-3.66-12.12,2-13.61,1.1S68.31,267.82,67.81,270.28Z"/></g><g id="g15587"><path id="path15589" class="cls-7" d="M60.11,162.65s-2.17-8.14,3-14.64,13.31-8.38,15.72-11.17,5.38-10.58,13.55-10.58,8.78-1,10.21-2.23c3.41-3,5.2-3.34,5.2-3.34s-4,6.18-5.07,6.74S98,135.17,90.93,137a74.61,74.61,0,0,1-11.51,2.23s-11.14,4.46-13.92,8.17-3.71,6.5-3.71,10.58S60.11,162.65,60.11,162.65Z"/><path id="path15591" class="cls-7" d="M64.22,157.8s-.1-7.47,7.17-9.86,9.86-1.79,12.45-3.78,5.58-4.18,6.67-4.28a23.46,23.46,0,0,1-2.59,4.18c-1.29,1.49-3.29,3-3.48,4s-5.87,9.56-10.85,10.75a55.4,55.4,0,0,1-9.26,1.39s-7.67,3.66-10.06,15.4a39.39,39.39,0,0,0-.5,11.49l-1.39.4s-.83-11.45.46-14.94S55.06,162.58,64.22,157.8Z"/><path id="path15593" class="cls-7" d="M76.57,159.29A32.84,32.84,0,0,1,70,164.87c-3.39,2-9.66,4.08-12.55,10s-2.59,7.77-2.59,7.77a89.68,89.68,0,0,0-6,10.85c-2.39,5.38-1.49,14.24,1.69,17.52a49,49,0,0,0,6,5.28l.3-3.29s-7.37-2.69-7.37-9,2.39-13.74,6.37-16.23,8.46-3.09,14.14-10.85,3.78-9.56,5.28-11.85A7.91,7.91,0,0,0,76.57,159.29Z"/><path id="path15595" class="cls-7" d="M71.19,178s-1.1,5.38-3.68,7-10.16,9.76-10.36,14.44-.9,11.95-.9,11.95-3.39,7.87-1.89,12.94S62,232.47,65,234.17a14.15,14.15,0,0,1,4.28,3.48l-.8-4.18a35.44,35.44,0,0,1-6.17-3.39c-2.59-1.89-7-5.48-6.07-9.16s4.38-10,4.38-10,8.86-6.37,10-13.34,1-10.45,1.69-11.95.7-4.68.5-6A2.31,2.31,0,0,0,71.19,178Z"/><path id="path15597" class="cls-7" d="M71.79,199.52s0,7.17-1,8.46-7.17,12.15-5.87,18.52S71,242,71.59,245.42s5,7.87,10.16,10.55,9.56,4.38,9.56,4.38l-.1-2.59a34,34,0,0,1-6.37-2.19c-1.89-1.09-9.26-4.78-10.65-9.76s-1.29-8-.9-9.46S79,221.82,77,215.45s-3.09-5-2.89-8.46a23.34,23.34,0,0,0-.2-5.18C73.88,200.11,71.79,199.52,71.79,199.52Z"/><path id="path15599" class="cls-7" d="M80.95,219s1.19,4.38.2,6.57-3.19,17.42.8,22.2a95.32,95.32,0,0,0,7.17,7.77s3.19,11.05,8.46,14.84,9,4.58,12.55,5.68,12.6,2.06,12.6,2.06L118.2,275s-9.31-.87-11.6-1.77-9-4.71-10.52-9.29S93,254.78,93,254.78a29.54,29.54,0,0,0,.1-13c-1.59-6.87-5.68-12-6.87-15a10.51,10.51,0,0,0-2.39-4S83.24,218.63,80.95,219Z"/><path id="path15601" class="cls-7" d="M93.69,232.57s2.69,5.87,2.69,8.66,2.49,14.94,7.17,20.71,9.86,7.27,11.95,11.05,7.42,4.95,7.42,4.95l.14-2.36S117.59,272.8,117,270s-1.89-13.94-5.78-20.11-7.27-5.78-10.36-10.36-4.08-5.48-4.68-6.47S93.69,232.57,93.69,232.57Z"/></g></g><path id="path15603" class="cls-8" d="M109.4,101.87s-6.13,4.78-7.59,5.09a5.11,5.11,0,0,0-4.37,5.41c0,4.06.1,6.13.1,6.13l.73-1.66.52.83s.62-4.68,4.05-7.38S109.4,101.87,109.4,101.87Z"/><path id="path15605" class="cls-8" d="M90.9,111.54s-5.09,4.57-7,6.55-2.6,2.7-2.7,5.09-.62,6.13-.62,6.13l.94-1.77.52.94s1.46-6.45,3.53-8.11A19.34,19.34,0,0,0,90.06,115,9.71,9.71,0,0,0,90.9,111.54Z"/><path id="path15607" class="cls-8" d="M81.54,135.87s3.43-7.28,8.21-7.9,9.77-.94,9.77-.94a13.45,13.45,0,0,1-5.2,3.43c-3.22,1.14-4.57.31-7.07,1.66a51.19,51.19,0,0,0-4.47,4.16l.21-.94Z"/><path id="path15609" class="cls-8" d="M74.36,122.87s-8.73,7.59-9.25,10.6a32.54,32.54,0,0,0-.1,7.17l.94-3.33.62,1.66s2.08-6.45,3.22-8.21a6.27,6.27,0,0,1,2-2.18l.62,4s1.87-2.91,1.77-4.78A40.19,40.19,0,0,1,74.36,122.87Z"/><path id="path15611" class="cls-8" d="M82.94,146.43s-11.43,1.76-13.48,4a32.58,32.58,0,0,0-3.91,6l2.57-2.31-.36,1.74s5.2-4.34,7.11-5.23a6.27,6.27,0,0,1,2.84-.79l-1.58,3.67s3.14-1.46,4-3.1A40.06,40.06,0,0,1,82.94,146.43Z"/><path id="path15613" class="cls-8" d="M55.6,140.83s-5.77,10-5.28,13a32.56,32.56,0,0,0,2.24,6.81l-.2-3.45,1.13,1.37s-.14-6.77.36-8.82A6.27,6.27,0,0,1,55,147.08l1.88,3.53s.82-3.36.11-5.1A40.16,40.16,0,0,1,55.6,140.83Z"/><path id="path15615" class="cls-8" d="M44.37,162.72s-3.86,9.43-2.31,15.22c.88,3.28,4.07,6.85,4.07,6.85L45,181.12l1.54,1.23s-1.84-7.27-1.82-9.58a6.86,6.86,0,0,1,.54-3.17L48.17,173s0-3.8-1.16-5.52A46.16,46.16,0,0,1,44.37,162.72Z"/><path id="path15617" class="cls-8" d="M35.74,183.71s8,6.36,9.44,12.16c.83,3.29-.21,8-.21,8l-.85-3.73-.74,1.82s-1.94-7.24-3.09-9.25a6.85,6.85,0,0,0-2-2.51l-.85,4.36s-1.88-3.31-1.68-5.38A46.25,46.25,0,0,0,35.74,183.71Z"/><path id="path15619" class="cls-8" d="M36,210.4s8.8,1.6,12.74,7.56c2.23,3.38,5.81,10.26,5.81,10.26l-2.93-3,0,2.44s-5-7.38-7.08-9.14-3.17-1.91-3.17-1.91l.89,5.4s-3.35-2.9-4-5.37A58.69,58.69,0,0,0,36,210.4Z"/><path id="path15621" class="cls-8" d="M45.16,233.37s8.89-.92,14.35,3.7c3.09,2.62,10.78,7.71,10.78,7.71l-4-.49,2.72,3.21s-11-7.6-13.46-8.72-3.58-1-3.58-1l2.37,4.93s-4-1.85-5.33-4A59,59,0,0,0,45.16,233.37Z"/><path id="path15623" class="cls-8" d="M60.15,254.86s8.55-2.61,14.79.89c3.53,2,12.05,5.51,12.05,5.51l-4,.27,3.29,2.63s-12.26-5.35-14.88-6-3.7-.25-3.7-.25L71,262.31s-4.31-1-6-2.95A59,59,0,0,0,60.15,254.86Z"/><path id="path15625" class="cls-8" d="M76.3,272.83s8-4,14.73-1.62c3.82,1.36,12.81,3.4,12.81,3.4l-3.87.94,3.68,2s-13-3.21-15.67-3.39-3.69.38-3.69.38l4,3.77s-4.42-.31-6.42-1.89A59,59,0,0,0,76.3,272.83Z"/><path id="path15627" class="cls-8" d="M72.43,165.1S61,170.41,59.49,173.45A37.39,37.39,0,0,0,57.05,181l2-3.24.1,2s4.23-6.19,6-7.71a6.86,6.86,0,0,1,2.74-1.7l-.65,4.39s2.87-2.5,3.37-4.52A46,46,0,0,1,72.43,165.1Z"/><path id="path15629" class="cls-8" d="M69.09,185.37s-9.44,8.33-10,11.68a37.4,37.4,0,0,0-.19,8l1-3.68.65,1.85s2.3-7.14,3.54-9.09a6.85,6.85,0,0,1,2.14-2.4l.63,4.39s2-3.21,1.95-5.29A46.26,46.26,0,0,1,69.09,185.37Z"/><path id="path15631" class="cls-8" d="M72.08,208.29S65.24,221.15,66,225a43.21,43.21,0,0,0,3,8.7l-.37-4.41L70.07,231s-.41-8.66.15-11.27a7.92,7.92,0,0,1,1.34-3.47l2.46,4.5s.9-4.31,0-6.52A53.26,53.26,0,0,1,72.08,208.29Z"/><path id="path15633" class="cls-8" d="M83,225s-3.08,14.23-1.33,17.75A43.24,43.24,0,0,0,87,250.31l-1.56-4.14,1.88,1.28s-2.75-8.22-2.93-10.89a7.94,7.94,0,0,1,.35-3.71l3.6,3.66s-.31-4.39-1.82-6.26A53.24,53.24,0,0,1,83,225Z"/><path id="path15635" class="cls-8" d="M97.09,240.46s2.3,14.38,5.2,17a43.24,43.24,0,0,0,7.66,5.11l-3-3.29,2.21.51s-5.55-6.66-6.68-9.08a7.93,7.93,0,0,1-1-3.58l4.68,2.1s-1.88-4-4-5.17A53.39,53.39,0,0,1,97.09,240.46Z"/></g><polygon id="polygon15637" class="cls-9" points="153.16 85.68 156.81 74.45 147.31 81.36 148.71 85.68 153.16 85.68"/><polygon id="polygon15639" class="cls-9" points="138.33 81.36 128.82 74.45 132.47 85.68 136.93 85.68 138.33 81.36"/><polygon id="polygon15641" class="cls-9" points="156.03 94.22 152.35 96.89 153.71 101.07 165.46 101.07 156.03 94.22"/><polygon id="polygon15643" class="cls-9" points="139.21 106.43 142.82 117.53 146.42 106.43 142.82 103.81 139.21 106.43"/><polygon id="polygon15645" class="cls-9" points="129.61 94.22 120.17 101.07 131.93 101.07 133.28 96.89 129.61 94.22"/><g id="g15647"><polygon id="polygon15649" class="cls-10" points="109.04 261.53 115.98 261.53 115.98 281.88 105.02 281.88 105.02 300.43 123.57 300.43 123.57 291.87 142.67 291.87 142.67 258.6 109.04 258.6 109.04 261.53"/><polygon id="polygon15651" class="cls-11" points="172.73 261.53 179.67 261.53 179.67 258.6 146.04 258.6 146.04 291.87 165.14 291.87 165.14 300.43 183.69 300.43 183.69 281.88 172.73 281.88 172.73 261.53"/><path id="path15653" class="cls-12" d="M179.67,252.43h-6.94V229.95h1.69a7.85,7.85,0,1,0-7.85-7.85s0,.07,0,.11v.21l.06,1.75h-9l-.26-1.64a2.3,2.3,0,0,0-.67-1.6,3.21,3.21,0,0,0-2.29-.89,3.62,3.62,0,0,0-3.54,2.82l-.3,1.3H138.8l-.3-1.3a3.64,3.64,0,0,0-7.09,0l-.3,1.3h-9l.08-1.95s0-.07,0-.11a7.85,7.85,0,1,0-7.85,7.85H116v22.49H109v2.8h70.63v-2.8Z"/><g id="g15655"><polygon id="polygon15657" class="cls-13" points="101.65 303.81 101.65 278.51 112.61 278.51 112.61 264.94 107.5 269.96 107.55 269.96 107.55 278.46 101.69 278.46 96.59 281.6 96.59 308.86 96.62 308.86 101.69 303.81 101.65 303.81"/><polygon id="polygon15659" class="cls-14" points="126.94 303.81 101.69 303.81 96.62 308.86 132 308.86 132 308.8 126.94 303.79 126.94 303.81"/><polygon id="polygon15661" class="cls-14" points="161.77 295.24 126.94 295.24 126.94 295.35 132 300.36 132 300.3 156.76 300.3 156.76 300.31 161.77 295.29 161.77 295.24"/><polygon id="polygon15663" class="cls-13" points="126.94 303.79 132 308.8 132 300.36 126.94 295.35 126.94 303.79"/><polygon id="polygon15665" class="cls-14" points="112.61 264.9 105.67 264.9 105.67 264.84 100.61 269.94 100.61 269.96 107.5 269.96 112.61 264.94 112.61 264.9"/><path id="path15667" class="cls-13" d="M105.67,249.06h6.94V233.19h0l-5.12,3.72h.1V249h-2.06l-4.88,3.79v17.13l5.06-5.1V249.06Z"/><path id="path15686" class="cls-15" d="M103.07,222.09a11.24,11.24,0,0,1,11.22-11.23c.29,0,.57,0,.86,0a19.61,19.61,0,0,0-2.94-.22A14,14,0,0,0,98,224.42c0,7,3.42,10.27,9.44,12.49l5.12-3.72A11.24,11.24,0,0,1,103.07,222.09Z"/><polygon id="polygon15688" class="cls-13" points="192.18 281.6 187.08 278.46 181.21 278.46 181.21 269.99 176.14 264.9 176.1 264.9 176.1 278.51 187.06 278.51 187.06 303.76 192.18 308.81 192.18 281.6"/><polygon id="polygon15690" class="cls-14" points="192.18 308.81 187.06 303.76 187.06 303.81 161.77 303.81 161.77 303.74 156.78 308.86 192.18 308.86 192.18 308.81"/><polygon id="polygon15692" class="cls-14" points="181.21 269.96 188.15 269.96 183.04 264.89 183.04 264.9 176.14 264.9 181.21 269.99 181.21 269.96"/><polygon id="polygon15694" class="cls-13" points="161.77 295.29 156.76 300.31 156.76 308.86 156.78 308.86 161.77 303.74 161.77 295.29"/><path id="path15696" class="cls-13" d="M188.15,270V252.81L183.27,249h-2.06V236.91h0l-5.12-3.72h0v15.87H183v15.83l5.11,5.06h0Z"/><path id="path15715" class="cls-16" d="M181.31,236.91c6-2.22,9.44-5.52,9.44-12.49a14,14,0,0,0-14.2-13.73,19.6,19.6,0,0,0-2.92.22c.26,0,.52,0,.78,0a11.23,11.23,0,0,1,1.7,22.32l5.12,3.72h.07Z"/></g><g id="g15717"><g id="g15719"><path id="polygon15721" class="cls-17" d="M161.7,267.35Z"/><path id="polygon15723" class="cls-17" d="M165,277.8Z"/><path id="path15725" class="cls-18" d="M165,277.8a6.88,6.88,0,0,0,1.23-3.85l2.13-.7A8.5,8.5,0,0,0,168,271a8.76,8.76,0,0,0-1-2.1l-2.1.7a6.94,6.94,0,0,0-3.12-2.27h0v-2.23a8.75,8.75,0,0,0-2.32-.3,8.48,8.48,0,0,0-2.26.29l0,2.22a6.94,6.94,0,0,0-3.21,2.3l-2.1-.7a8.78,8.78,0,0,0-1,2.1,8.49,8.49,0,0,0-.45,2.23l2.12.71a6.88,6.88,0,0,0,1.23,3.83l-1.29,1.82a8.76,8.76,0,0,0,1.71,1.6,8.49,8.49,0,0,0,2,1.08l1.27-1.81a6.9,6.9,0,0,0,4,0l1.27,1.81a8.49,8.49,0,0,0,2-1.08,8.76,8.76,0,0,0,1.71-1.6l-1.29-1.82Zm-5.68.68a4.62,4.62,0,1,1,4.62-4.62A4.63,4.63,0,0,1,159.36,278.49Z"/><path id="path15727" class="cls-19" d="M165,277.8a6.88,6.88,0,0,0,1.23-3.85l2.13-.7A8.5,8.5,0,0,0,168,271a8.76,8.76,0,0,0-1-2.1l-2.1.7a6.94,6.94,0,0,0-3.12-2.27h0v-2.23a8.75,8.75,0,0,0-2.32-.3,8.48,8.48,0,0,0-2.26.29l0,2.22a6.94,6.94,0,0,0-3.21,2.3l-2.1-.7a8.78,8.78,0,0,0-1,2.1,8.49,8.49,0,0,0-.45,2.23l2.12.71a6.88,6.88,0,0,0,1.23,3.83l-1.29,1.82a8.76,8.76,0,0,0,1.71,1.6,8.49,8.49,0,0,0,2,1.08l1.27-1.81a6.9,6.9,0,0,0,4,0l1.27,1.81a8.49,8.49,0,0,0,2-1.08,8.76,8.76,0,0,0,1.71-1.6l-1.29-1.82Zm-5.68.68a4.62,4.62,0,1,1,4.62-4.62A4.63,4.63,0,0,1,159.36,278.49Z"/></g><g id="g15729"><g id="g15731"><path id="path15733" class="cls-20" d="M180.32,295.2c-.34,0-2.41-.26-6.61-3.43-4.56-3.44-7.36-10.1-8.86-13.78a20.37,20.37,0,0,0-4.61-6.24l.87-.87a25.36,25.36,0,0,1,5.55,7.73c1.42,3.49,3.75,8.25,7.86,11.35,3.81,2.87,5.12,2.86,5.17,2.87Z"/><path id="path15735" class="cls-21" d="M180.32,295.2c-.34,0-2.41-.26-6.61-3.43-4.56-3.44-7.36-10.1-8.86-13.78a20.37,20.37,0,0,0-4.61-6.24l.87-.87a25.36,25.36,0,0,1,5.55,7.73c1.42,3.49,3.75,8.25,7.86,11.35,3.81,2.87,5.12,2.86,5.17,2.87Z"/></g><g id="g15737"><path id="path15739" class="cls-22" d="M160.38,272.61h0S160.38,272.61,160.38,272.61Z"/><g id="g15741"><path id="path15743" class="cls-23" d="M155.25,277.3a1.52,1.52,0,0,1-1.23-.83,3.12,3.12,0,0,0-.4.83c-.25,1.06,1.68,1.75,2.18.75.11-.22.24-.47.39-.74A5.94,5.94,0,0,1,155.25,277.3Z"/><path id="path15745" class="cls-22" d="M162.3,271.06c-.19-.19-.5,0-.5,0l-1.42,1.55s0,0,0,0h0a10.31,10.31,0,0,0-1.88.26c-1.75.3-3.65,2.27-4.47,3.6a1.52,1.52,0,0,0,1.23.83,5.94,5.94,0,0,0,.95,0,9.36,9.36,0,0,1,2.3-2.94,3.37,3.37,0,0,1,2.49-.69l1.93-1.56C163,271.75,162.48,271.25,162.3,271.06Z"/></g><path id="path15747" class="cls-24" d="M162.3,271.06c-.19-.19-.5,0-.5,0l-1.42,1.55s0,0,0,0h0a10.31,10.31,0,0,0-1.88.26c-1.75.3-3.65,2.27-4.47,3.6a3.12,3.12,0,0,0-.4.83c-.25,1.06,1.68,1.75,2.18.75.11-.22.24-.47.39-.74a9.36,9.36,0,0,1,2.3-2.94,3.37,3.37,0,0,1,2.49-.69l1.93-1.56C163,271.75,162.48,271.25,162.3,271.06Z"/></g></g></g><g id="g15749"><g id="g15751"><g id="g15753"><g id="g15755"><path id="path15757" class="cls-25" d="M134.74,265.43h-.06a6.79,6.79,0,0,1-1.77-.56,5.57,5.57,0,0,0-.82-.38c-.25.31-.87.25-1.06.23-.41-.06-.65-.2-.69-.44a1.49,1.49,0,0,0-.22-.26c-.81.2-1.65.42-1.76.47s-.36.14-1.09-.46l-.76.48a.34.34,0,0,1-.26,0l-1.12-.29a2.38,2.38,0,0,1-.49.21,1.05,1.05,0,0,1-.79-.12l-.11-.05a.85.85,0,0,0-.25,0c-.07.2-.34.43-2,.39a.34.34,0,0,1-.23-.1l-.08-.07a.8.8,0,0,1-.46.35c-.48.18-.93-.21-1.2-.44l-.09-.08a1.17,1.17,0,0,0-.21.19c-.05.08-.18.27-1,.27a.34.34,0,1,1,0-.67,2.47,2.47,0,0,0,.46,0,1.19,1.19,0,0,1,.76-.45c.18,0,.31.11.49.27s.43.36.53.32a.34.34,0,0,0,.11-.06.47.47,0,0,1,.26-.37.73.73,0,0,1,.77.21,6.58,6.58,0,0,0,1.25-.08.53.53,0,0,1,.22-.22,1.14,1.14,0,0,1,.88,0l.16.07c.16.08.23.1.31.08a1.85,1.85,0,0,0,.44-.2.33.33,0,0,1,.27,0l1.12.29.85-.53a.34.34,0,0,1,.4,0,3.49,3.49,0,0,0,.66.48c.38-.12,1.68-.45,2-.52a.34.34,0,0,1,.31.08,2.17,2.17,0,0,1,.51.63,1.41,1.41,0,0,0,.62,0,.51.51,0,0,1,.27-.2c.32-.1.69.08,1.37.44a6.12,6.12,0,0,0,1.56.49.34.34,0,0,1-.05.67Z"/></g><g id="g15759"><path id="path15761" class="cls-25" d="M119.68,278.34l-.14,0a.34.34,0,0,1-.17-.44,1.26,1.26,0,0,1,1.15-.81,1.52,1.52,0,0,0,.9-.28.56.56,0,0,1,.31-.41c.21-.1.56-.13,1.08.28.3.23.39.26.41.26l.17-.13a2.23,2.23,0,0,0,.29-.31.8.8,0,0,1,.42-.33c.17,0,.32,0,.55.17.51.28.85.42,1,.21a1.69,1.69,0,0,1,2-.83c.32,0,.35,0,.57-.34a3.92,3.92,0,0,1,.43-.57.34.34,0,0,1,.49.46,3.32,3.32,0,0,0-.36.48,1.09,1.09,0,0,1-1.24.64,1.05,1.05,0,0,0-1.3.55c-.53.75-1.48.22-1.88,0l-.08,0,0,0a2.84,2.84,0,0,1-.37.4c-.48.42-.79.4-1.44-.11a1,1,0,0,0-.32-.19.6.6,0,0,1-.18.27,2.15,2.15,0,0,1-1.43.47h0c-.26,0-.46.41-.46.41A.34.34,0,0,1,119.68,278.34Z"/></g><g id="g15763"><path id="path15765" class="cls-25" d="M119.35,267.46a.34.34,0,0,1-.34-.32,1,1,0,0,1,.32-.82.67.67,0,0,1,.68,0l.1,0c.51.22.55.23.77,0s.52-.62.83-.64a.61.61,0,0,1,.48.21l.12.13a1.15,1.15,0,0,0,.24.22,1.56,1.56,0,0,1,.15-.27c.24-.35.64-.95,1.43-.55a2.83,2.83,0,0,1,.59.42,1.69,1.69,0,0,0,.21.17l.07-.09c.24-.31,1-1.24,1.66-.81l.09.06h0L127,265a1,1,0,0,1,1.23.17,1.64,1.64,0,0,0,.53.27c.19,0,.27,0,.45-.26a1,1,0,0,1,.45-.35c.38-.11.63.25.78.47l.13.17a.34.34,0,0,1-.08.66c-.29,0-.46-.26-.6-.46l-.09-.14-.06.07a1.09,1.09,0,0,1-1.1.48,2.17,2.17,0,0,1-.77-.36c-.33-.22-.4-.23-.48-.17l-.17.11c-.22.15-.41.29-.73.05l-.12-.08s-.28,0-.77.65a.81.81,0,0,1-.55.35,1,1,0,0,1-.71-.34,2.18,2.18,0,0,0-.46-.33c-.22-.11-.28-.1-.57.33-.06.09-.13.19-.2.27a.69.69,0,0,1-.52.29,1.05,1.05,0,0,1-.74-.44l-.09-.09a3.91,3.91,0,0,0-.33.37c-.55.65-1,.44-1.56.21l-.09,0-.07,0s0,.13,0,.22a.34.34,0,0,1-.32.35Z"/></g></g><path id="path15767" class="cls-25" d="M131.73,264.21a13.07,13.07,0,0,1,3.42-.32c.86.21,1.07-.64,1.44-.53s2.3,3.48,2.78,6.26.64,6.15-2.09,8.71-4.12,2.57-6.52,5.08-5,5.56-5,5.56,2.35-3.64,3.58-5.13a18.7,18.7,0,0,1,2.19-2.3l-2,.53,2.25-1.34h-1.6l3.48-1.12-2.3.11,3.15-1.23-2.09-.21s.64-1.78,1.5-4.24,1.28-2,.27-3.56a13.92,13.92,0,0,1-1.36-4.76Z"/><path id="path15769" class="cls-25" d="M129.61,278.38a68.11,68.11,0,0,1-6.14,3.64c-2.12,1-4.85,1.67-6.82,4.7a55.72,55.72,0,0,1-4.47,5.83,62.84,62.84,0,0,0,3.26-5.38,9.87,9.87,0,0,1,4.17-4.09c1.74-.91,2.65-1.29,2.65-1.29l-3.11.53,3.11-1.21a12.08,12.08,0,0,1-2.35,0c.23-.15,3-1,3-1a12.9,12.9,0,0,1-1.82-.08l3.48-1.21-1.59-.53s2.35-.3,3.26-.38.23-.08,1.52-1.06a30.64,30.64,0,0,0,3.41-3.56S131.36,276.56,129.61,278.38Z"/><path id="path15771" class="cls-25" d="M129.54,266.46s-4.81,0-7.27,1.28a10.06,10.06,0,0,0-3.64,3.15l3.1-1.6-.27,1.23,2.09-1.82L123.5,270l1.71-1.34.16.64,1.93-.86A23.29,23.29,0,0,0,129.54,266.46Z"/></g><g id="g15773"><g id="g15775"><g id="g15777"><g id="g15779"><path id="path15781" class="cls-26" d="M133,269.09c-.21-.76-1.46,1.75-3.81,1.21a6.42,6.42,0,0,1-3.67-3s1.81-2.62,4.47-2.92,3.46,1.61,3.47,2.44a4.35,4.35,0,0,0,.15,1.76c.28.82-.5,2-.43,2.38a1.28,1.28,0,0,0,.41.66.62.62,0,0,1-.89-.41C132.46,270.5,132.5,270.28,133,269.09Z"/><path id="path15783" class="cls-27" d="M132.68,265.84a3.07,3.07,0,0,0-3.25-.83,9.21,9.21,0,0,0-3,2.09s1.24,2.17,3.2,1.73A3.51,3.51,0,0,0,132.68,265.84Z"/><path id="path15785" class="cls-28" d="M128.57,266.3a2.38,2.38,0,0,1,1.33-.91,1.47,1.47,0,0,1,1.53.31S130.67,267.18,128.57,266.3Z"/></g></g></g><g id="g15787"><g id="g15789"><g id="g15791"><path id="path15793" class="cls-26" d="M130.39,274.93c-.41-.79-1.21,2.26-3.93,2.2a7.24,7.24,0,0,1-4.74-2.49s1.41-3.3,4.28-4.23,4.18,1,4.38,1.91a4.9,4.9,0,0,0,.56,1.91c.49.84-.1,2.32.06,2.73a1.44,1.44,0,0,0,.6.64.7.7,0,0,1-1.07-.25C130.15,276.6,130.14,276.35,130.39,274.93Z"/><path id="path15795" class="cls-27" d="M129.33,271.4a3.46,3.46,0,0,0-3.78-.19,10.38,10.38,0,0,0-2.82,3s1.87,2.12,3.93,1.18A4,4,0,0,0,129.33,271.4Z"/><path id="path15797" class="cls-28" d="M124.9,272.83a2.68,2.68,0,0,1,1.26-1.31,1.66,1.66,0,0,1,1.76,0S127.42,273.33,124.9,272.83Z"/></g></g></g><g id="g15799"><g id="g15801"><g id="g15803"><path id="path15805" class="cls-26" d="M135.78,273.59c-.75-.34.54,2.74-1.48,4.27a6.74,6.74,0,0,1-4.89.92s-.88-3.22.67-5.57,3.63-1.69,4.3-1.14a1.6,1.6,0,0,0,1,1Z"/><path id="path15807" class="cls-27" d="M133.08,272a3.22,3.22,0,0,0-2.86,2,9.66,9.66,0,0,0-.33,3.81s2.59.47,3.55-1.41A3.69,3.69,0,0,0,133.08,272Z"/><path id="path15809" class="cls-28" d="M130.68,275.64a2.5,2.5,0,0,1,.16-1.68,1.54,1.54,0,0,1,1.29-1S132.8,274.54,130.68,275.64Z"/></g></g></g><g id="g15811"><g id="g15813"><g id="g15815"><path id="path15817" class="cls-26" d="M136.69,270.81c-.38-.74-1.13,2.1-3.66,2a6.74,6.74,0,0,1-4.41-2.32s1.31-3.07,4-3.94,3.89.93,4.08,1.78a4.57,4.57,0,0,0,.52,1.78c.46.79-.1,2.16.06,2.54a1.34,1.34,0,0,0,.56.59.66.66,0,0,1-1-.24C136.46,272.36,136.45,272.13,136.69,270.81Z"/><path id="path15819" class="cls-27" d="M135.7,267.52a3.22,3.22,0,0,0-3.52-.17,9.66,9.66,0,0,0-2.63,2.78s1.74,2,3.66,1.1A3.69,3.69,0,0,0,135.7,267.52Z"/><path id="path15821" class="cls-28" d="M131.57,268.86a2.49,2.49,0,0,1,1.17-1.22,1.54,1.54,0,0,1,1.64,0S133.92,269.32,131.57,268.86Z"/></g></g></g></g></g><g id="g15823"><path id="path15825" class="cls-14" d="M119.3,226.16h12s.12-3.77,2.62-3.77c3.28,0,3.08,3.81,3.08,3.81l14.16.12s-.21-3.86,3.11-3.86c2.53,0,2.65,3.82,2.65,3.82h12.17c-1.64-7.88,4.08-10.24,9.11-10.45.28,0,.55,0,.81,0a7.84,7.84,0,0,0-12.58,6.26s0,.07,0,.11v.21l.06,1.75h-9l-.26-1.64a2.3,2.3,0,0,0-.67-1.6,3.21,3.21,0,0,0-2.29-.89,3.62,3.62,0,0,0-3.54,2.82l-.3,1.3H138.72l-.3-1.3a3.64,3.64,0,0,0-7.09,0l-.3,1.3h-9l.08-1.95s0-.07,0-.11a7.84,7.84,0,0,0-12.58-6.26c.26,0,.53,0,.79,0C115.26,216,120.92,218.36,119.3,226.16Z"/></g><rect id="rect15827" class="cls-14" x="108.97" y="258.56" width="70.54" height="1.13"/><polygon id="polygon15829" class="cls-14" points="113.91 253.47 108.97 253.47 108.97 252.37 115.85 252.37 113.91 253.47"/><polygon id="polygon15831" class="cls-14" points="174.64 253.47 179.58 253.47 179.58 252.37 172.71 252.37 174.64 253.47"/><polygon id="polygon15833" class="cls-14" points="113.91 282.96 105.04 282.96 105.04 281.86 115.85 281.86 113.91 282.96"/><polygon id="polygon15835" class="cls-13" points="122.48 293.87 122.48 300.46 123.58 300.46 123.58 291.93 122.48 293.87"/><polygon id="polygon15837" class="cls-13" points="141.57 259.74 141.57 291.89 142.67 291.89 142.67 258.6 141.57 259.74"/><polygon id="polygon15839" class="cls-13" points="147.1 259.74 147.1 291.89 146 291.89 146 258.6 147.1 259.74"/><polygon id="polygon15841" class="cls-13" points="166.26 293.87 166.26 300.46 165.16 300.46 165.16 291.93 166.26 293.87"/><polygon id="polygon15843" class="cls-14" points="174.64 282.96 183.76 282.96 183.76 281.86 172.71 281.86 174.64 282.96"/><g id="g15845"><path id="path15847" class="cls-29" d="M176.1,278.51V264.9H183V249.06H176.1V233.19a11.23,11.23,0,1,0-12.83-12.41h-2.75a5.56,5.56,0,0,0-1.36-2.23,6.6,6.6,0,0,0-4.68-1.89,7,7,0,0,0-6.39,4.12h-6.75a7,7,0,0,0-12.78,0h-3.12a11.23,11.23,0,1,0-12.83,12.41v15.87h-6.94V264.9h6.94v13.61h-11v25.3h25.3v-8.56h34.83v8.56h25.3v-25.3h-11ZM109,252.43H116V229.95h-1.69a7.85,7.85,0,1,1,7.85-7.85s0,.07,0,.11l-.08,1.95h9l.3-1.3a3.64,3.64,0,0,1,7.09,0l.3,1.3h11.83l.3-1.3a3.62,3.62,0,0,1,3.54-2.82,3.21,3.21,0,0,1,2.29.89,2.31,2.31,0,0,1,.67,1.6l.26,1.64h9l-.06-1.75v-.21s0-.07,0-.11a7.85,7.85,0,1,1,7.85,7.85h-1.69v22.49h6.94v2.8H109Zm33.63,39.43h-19.1v8.56H105V281.88h11V261.53H109V258.6h33.63Zm41,8.56H165.14v-8.56H146V258.6h33.63v2.93h-6.94v20.35h11v18.55Z"/></g><g id="g15849"><polygon id="polygon15851" class="cls-30" points="160.22 244.77 159.97 243.52 160.59 243.32 160.5 242.88 151.21 242.16 151.23 242.69 152.49 242.75 152.83 247.75 157.97 247.25 160.22 244.77"/><g id="g15853"><path id="path15855" class="cls-2" d="M145.14,225.74a11.7,11.7,0,0,0,3.17,3.53,34.39,34.39,0,0,0,4.09,2.09s-2.8.07-4,1A12.35,12.35,0,0,0,146.1,235a38.56,38.56,0,0,0,.07-4.73A27.65,27.65,0,0,0,145.14,225.74Z"/><path id="path15857" class="cls-2" d="M152.4,231.53a22.05,22.05,0,0,0,1.36,6.89,49.33,49.33,0,0,0,3.49,6.06,18,18,0,0,0-6-.83c-3.14.17-4.32,1.45-4.32,1.45a47.6,47.6,0,0,0-.2-6.36,23.51,23.51,0,0,0-.88-3.25,5,5,0,0,0,3-.85A16.37,16.37,0,0,0,152.4,231.53Z"/><polygon id="polygon15859" class="cls-31" points="146.06 247 144.93 225.47 145.25 225.56 146.62 247.27 146.06 247"/><polygon id="polygon15861" class="cls-31" points="145.62 235.31 152.42 231.24 152.62 231.44 145.66 235.84 145.62 235.31"/><polygon id="polygon15863" class="cls-31" points="146.14 244.82 157.34 244.31 157.44 244.56 146.23 245.46 146.14 244.82"/></g><g id="g15865"><path id="path15867" class="cls-2" d="M135.09,224.78a11.69,11.69,0,0,0,3.17,3.53,34.42,34.42,0,0,0,4.09,2.09s-2.8.07-4,1A12.33,12.33,0,0,0,136,234a38.7,38.7,0,0,0,.07-4.73A27.73,27.73,0,0,0,135.09,224.78Z"/><path id="path15869" class="cls-2" d="M142.34,230.57a22.09,22.09,0,0,0,1.35,6.89,49.42,49.42,0,0,0,3.49,6.06,18,18,0,0,0-6-.83c-3.14.17-4.32,1.45-4.32,1.45a47.5,47.5,0,0,0-.2-6.36,23.62,23.62,0,0,0-.88-3.25,5,5,0,0,0,3-.85A16.32,16.32,0,0,0,142.34,230.57Z"/><polygon id="polygon15871" class="cls-31" points="136 246.04 134.87 224.51 135.19 224.59 136.56 246.31 136 246.04"/><polygon id="polygon15873" class="cls-31" points="135.56 234.34 142.36 230.28 142.56 230.48 135.6 234.88 135.56 234.34"/><polygon id="polygon15875" class="cls-31" points="136.08 243.86 147.28 243.35 147.38 243.6 136.17 244.5 136.08 243.86"/></g><g id="g15877"><path id="path15879" class="cls-2" d="M120.21,241.29a22.53,22.53,0,0,0,4.36-1,32,32,0,0,0,5.22-2.34s-2.6,2.52-2.45,3.74a5.17,5.17,0,0,0,1.47,2.47,14.32,14.32,0,0,0-4.05-2.34A42.38,42.38,0,0,0,120.21,241.29Z"/><path id="path15881" class="cls-2" d="M128.85,239.43a8.16,8.16,0,0,0,2.43-.7,7.75,7.75,0,0,0,1.73-1.8s-2.23,3.58-2,4.93a10.62,10.62,0,0,0,1.53,3.27,21.23,21.23,0,0,0-3.58-2.39c-1-.36-1.16-.53-1.16-.53a1.83,1.83,0,0,1,.08-1.4A9.39,9.39,0,0,1,128.85,239.43Z"/><path id="path15883" class="cls-2" d="M132.14,239.19A7.07,7.07,0,0,0,134,238.1a14.92,14.92,0,0,0,1.43-2.95s-1.39,5.11-1.06,6.74a15,15,0,0,0,1.68,3.8,18,18,0,0,0-3.35-2.47c-.94-.31-1.06-.5-1.06-.5a3.06,3.06,0,0,1-.26-1.75A8.12,8.12,0,0,1,132.14,239.19Z"/><path id="path15885" class="cls-31" d="M130.18,237.8a16.26,16.26,0,0,0,2.9-1.36,12.2,12.2,0,0,0,2.33-1.64,7.38,7.38,0,0,1-2,1.69A11.18,11.18,0,0,1,130.18,237.8Z"/></g><path id="path15887" class="cls-32" d="M132.59,249.64c.41.18.82.38,1.24.58a10,10,0,0,0,4.18,1.35,6.83,6.83,0,0,0,3.47-1.23,8,8,0,0,1,4.15-1.41,8.63,8.63,0,0,1,4.27,1.41,7.39,7.39,0,0,0,3.56,1.23,4.91,4.91,0,0,0,3-1.17,6.64,6.64,0,0,1,4-1.48,21.19,21.19,0,0,0,2.45-5.63l-4.17,1.21-1,1.48s-5.42.49-14,.35c-12.32-.2-24.23-5.27-24.23-5.27l.08.39,8.83,3.55A33.75,33.75,0,0,1,132.59,249.64Z"/><path id="path15889" class="cls-33" d="M130.74,245.89a48.68,48.68,0,0,0,9.1,1.87c7.21.88,20.81-.93,20.81-.93s-14.24,2-20.59,1.26C130.43,247,130.74,245.89,130.74,245.89Z"/><path id="path15891" class="cls-33" d="M132.23,247.58a61.63,61.63,0,0,0,9.78,1.76c7,.7,17.57-1,17.57-1s-11.07,1.91-17.23,1.35C133,248.84,132.23,247.58,132.23,247.58Z"/><g id="g15893"><g id="g15895"><path id="path15897" class="cls-2" d="M153.47,252.8a8.55,8.55,0,0,1-4.22-1.4,7.48,7.48,0,0,0-3.62-1.25,6.83,6.83,0,0,0-3.47,1.23A8,8,0,0,1,138,252.8a11,11,0,0,1-4.78-1.48,8.65,8.65,0,0,0-3.43-1.16,8.47,8.47,0,0,0-4.32,1.45.67.67,0,0,1-.91-.12.59.59,0,0,1,.12-.86,9.78,9.78,0,0,1,5.11-1.7,9.54,9.54,0,0,1,4,1.3,10,10,0,0,0,4.18,1.35,6.83,6.83,0,0,0,3.47-1.23,8,8,0,0,1,4.15-1.41,8.63,8.63,0,0,1,4.27,1.41,7.39,7.39,0,0,0,3.56,1.23,4.91,4.91,0,0,0,3-1.17,6.63,6.63,0,0,1,4-1.48,8.72,8.72,0,0,1,5.5,1.74.59.59,0,0,1,0,.86.68.68,0,0,1-.92,0,7.54,7.54,0,0,0-4.62-1.41,5.37,5.37,0,0,0-3.27,1.25A6.21,6.21,0,0,1,153.47,252.8Z"/></g></g></g></g><g id="g15899"><g id="g15901"><polygon id="polygon15903" class="cls-34" points="92.01 193.99 80.13 199.58 94.51 199.58 103.7 193.99 92.01 193.99"/><polygon id="polygon15905" class="cls-34" points="103.7 193.99 111.64 189.16 102.26 189.16 92.01 193.99 103.7 193.99"/><polygon id="polygon15907" class="cls-34" points="102.26 189.16 90.99 189.16 78.12 193.99 92.01 193.99 102.26 189.16"/><polygon id="polygon15909" class="cls-34" points="107.87 199.58 120.49 199.58 124.92 193.99 114.65 193.99 107.87 199.58"/><polygon id="polygon15911" class="cls-34" points="124.92 193.99 128.74 189.16 120.51 189.16 114.65 193.99 124.92 193.99"/><polygon id="polygon15913" class="cls-34" points="114.65 193.99 120.51 189.16 111.64 189.16 103.7 193.99 114.65 193.99"/><polygon id="polygon15915" class="cls-34" points="114.65 193.99 103.7 193.99 94.51 199.58 107.87 199.58 114.65 193.99"/><polygon id="polygon15917" class="cls-34" points="120.49 199.58 130.88 199.58 133.32 193.99 124.92 193.99 120.49 199.58"/><polygon id="polygon15919" class="cls-34" points="94.51 199.58 81.77 207.32 98.46 207.32 107.87 199.58 94.51 199.58"/><polygon id="polygon15921" class="cls-34" points="107.87 199.58 98.46 207.32 114.36 207.32 120.49 199.58 107.87 199.58"/><polygon id="polygon15923" class="cls-34" points="114.36 207.32 127.49 207.32 130.88 199.58 120.49 199.58 114.36 207.32"/></g><g id="g15925"><polygon id="polygon15927" class="cls-34" points="196.3 193.99 208.17 199.58 193.79 199.58 184.6 193.99 196.3 193.99"/><polygon id="polygon15929" class="cls-34" points="184.6 193.99 176.67 189.16 186.04 189.16 196.3 193.99 184.6 193.99"/><polygon id="polygon15931" class="cls-34" points="186.04 189.16 197.31 189.16 210.19 193.99 196.3 193.99 186.04 189.16"/><polygon id="polygon15933" class="cls-34" points="180.44 199.58 167.81 199.58 163.39 193.99 173.65 193.99 180.44 199.58"/><polygon id="polygon15935" class="cls-34" points="163.39 193.99 159.56 189.16 167.79 189.16 173.65 193.99 163.39 193.99"/><polygon id="polygon15937" class="cls-34" points="173.65 193.99 167.79 189.16 176.67 189.16 184.6 193.99 173.65 193.99"/><polygon id="polygon15939" class="cls-34" points="173.65 193.99 184.6 193.99 193.79 199.58 180.44 199.58 173.65 193.99"/><polygon id="polygon15941" class="cls-34" points="167.81 199.58 157.43 199.58 154.99 193.99 163.39 193.99 167.81 199.58"/><polygon id="polygon15943" class="cls-34" points="193.79 199.58 206.53 207.32 189.85 207.32 180.44 199.58 193.79 199.58"/><polygon id="polygon15945" class="cls-34" points="180.44 199.58 189.85 207.32 173.95 207.32 167.81 199.58 180.44 199.58"/><polygon id="polygon15947" class="cls-34" points="173.95 207.32 160.82 207.32 157.43 199.58 167.81 199.58 173.95 207.32"/></g></g><g id="g15949"><path id="path15951" class="cls-35" d="M138.91,196.81h8.55s-.3,2.11-.3,3c0,1.46.55,4.25,3.22,5s8.44.06,9.59,3.46a27.74,27.74,0,0,1,1.34,5H151.23c-3.4,0-7.77-.85-9.89-7.28A52.36,52.36,0,0,1,138.91,196.81Z"/><path id="path15953" class="cls-36" d="M141.16,197.26s.72,8.29,5.06,11.57,13.21,3.66,13.21,3.66-6.94-.1-9.84-.1-5.88-2.17-7.47-6a47.18,47.18,0,0,1-2.41-9.16Z"/><path id="path15955" class="cls-37" d="M145.9,197.29s-.6,6.19,2.45,7.85c3.38,1.84,8.16.46,9.69,2.59a6.76,6.76,0,0,1,1.39,4s-1.53-3.45-3-3.65-7.76-.6-9.62-2.26-2.52-5.77-2.32-8.58h1.39Z"/><path id="path15957" class="cls-38" d="M149.46,195a2.37,2.37,0,0,1-2.37,2.37h-8.61A2.37,2.37,0,0,1,136.1,195h0a2.37,2.37,0,0,1,2.37-2.37h8.61a2.37,2.37,0,0,1,2.37,2.37Z"/><g id="g15959"><g id="g15961"><path id="path15963" class="cls-39" d="M140.88,187.29c2-1.9,2.85-3.8,1-9s.82-8.43,3.67-15.36-1.63-16.17-2.31-21.88c-.51-4.26-.56-11.85-.55-15.42l-.13-.34a171.13,171.13,0,0,0-4.21,33.29c-.68,19.57.27,35.33.27,35.33l1.72,0C139.9,191.59,139.65,188.44,140.88,187.29Z"/><path id="path15965" class="cls-2" d="M142.63,125.67c0,3.58,0,11.16.55,15.42.68,5.71,5.16,14.95,2.31,21.88s-5.57,10.19-3.67,15.36,1.09,7.07-1,9c-1.22,1.14-1,4.29-.59,6.63l6.43-.11a31,31,0,0,1-1-6c-.41-4.35,3.13-15.08,3.94-28.13C150.47,147.61,143.63,128.4,142.63,125.67Z"/></g><path id="path15967" class="cls-24" d="M138.72,194s-1-15.76-.27-35.33a171.13,171.13,0,0,1,4.21-33.29s8,21.34,7.2,34.38-4.35,23.78-3.94,28.13a30.88,30.88,0,0,0,1,6Z"/></g><path id="path15969" class="cls-40" d="M148.24,195.33a.56.56,0,0,1-.56.56h-9.56a.56.56,0,0,1-.56-.56h0a.56.56,0,0,1,.56-.56h9.56a.56.56,0,0,1,.56.56Z"/></g><path id="path15971" class="cls-41" d="M52,276l.52,21.69-14.92-1S60,328.26,80.81,336.24L92.09,317.5A134.79,134.79,0,0,1,69.36,300C59,289.75,52,276,52,276Z"/><g id="g15973"><g id="g15975"><polygon id="polygon15977" class="cls-42" points="67.63 319.06 80.62 336.67 91.92 317.5 81.2 300.99 67.63 319.06"/></g></g><path id="path15979" class="cls-41" d="M236.8,276l-.52,21.69,14.92-1s-22.38,31.58-43.2,39.56L196.72,317.5A134.79,134.79,0,0,0,219.45,300C229.86,289.75,236.8,276,236.8,276Z"/><polygon id="polygon15981" class="cls-42" points="221.18 319.06 208.19 336.67 196.9 317.5 207.61 300.99 221.18 319.06"/><path id="path15983" class="cls-41" d="M145.72,346.82c6.59,0,20-1.56,36.78-6.25s38.69-21.51,38.69-21.51L207.61,301s-23.38,23.28-62.93,23.28h-.54C104.58,324.27,81.2,301,81.2,301L67.63,319.06s21.86,16.83,38.69,21.51,30.19,6.25,36.78,6.25Z"/><g id="g15985"><path id="path15987" class="cls-2" d="M80.22,317.09l1.57.75a3,3,0,0,0-.34,1.7,1.66,1.66,0,0,0,.81,1.12,1.69,1.69,0,0,0,1.33.31,1.51,1.51,0,0,0,.94-.67,1.19,1.19,0,0,0,.21-.66,1.45,1.45,0,0,0-.28-.75q-.19-.28-.93-1.17a4.41,4.41,0,0,1-1.09-2A3.26,3.26,0,0,1,83,313.4a3.41,3.41,0,0,1,1.17-1.13,2.59,2.59,0,0,1,1.53-.36,3.58,3.58,0,0,1,1.66.6,3.19,3.19,0,0,1,1.6,2.11,3.65,3.65,0,0,1-.58,2.53l-1.55-.87A2.11,2.11,0,0,0,87,315a1.52,1.52,0,0,0-.74-.92,1.72,1.72,0,0,0-1.23-.31.89.89,0,0,0-.61.43,1,1,0,0,0-.14.71,4.12,4.12,0,0,0,1,1.5,7.44,7.44,0,0,1,1.18,1.7,2.81,2.81,0,0,1,.21,1.47,4,4,0,0,1-.66,1.68,3.92,3.92,0,0,1-1.31,1.28,2.75,2.75,0,0,1-1.66.41,4,4,0,0,1-1.83-.69,3.29,3.29,0,0,1-1.63-2.19A4.75,4.75,0,0,1,80.22,317.09Z"/><path id="path15989" class="cls-2" d="M91.25,315.19l1.56.83L90,321.33a15.59,15.59,0,0,0-.81,1.67,1.91,1.91,0,0,0,0,1.22,1.61,1.61,0,0,0,.84.91,1.52,1.52,0,0,0,1.19.19,1.64,1.64,0,0,0,.86-.63,15.79,15.79,0,0,0,1-1.63l2.88-5.42,1.56.83-2.74,5.15A19,19,0,0,1,93.23,326a3.52,3.52,0,0,1-1.12,1,2.77,2.77,0,0,1-1.34.31,3.66,3.66,0,0,1-1.65-.49,3.94,3.94,0,0,1-1.51-1.22,2.88,2.88,0,0,1-.46-1.32A3.41,3.41,0,0,1,87.3,323a17,17,0,0,1,1.17-2.57Z"/><path id="path15991" class="cls-2" d="M94.39,329.3l4.45-10.07,1.62.72-3.69,8.36,4,1.78L100,331.8Z"/><path id="path15993" class="cls-2" d="M109.12,335.12l-1.81-.65.13-2.63-3.3-1.18-1.53,2.13-1.77-.63,7-9.31,1.76.63Zm-1.59-5.23.25-4.29-2.5,3.48Z"/><path id="path15995" class="cls-2" d="M111.14,335.71l.78-11.27,1.75.46-.65,7.71,3.48-7,2,.53-.47,7.89,3.26-7.16,1.72.45-4.86,10.2-1.82-.47.41-8.47L113,336.2Z"/><path id="path15997" class="cls-2" d="M121.82,338.3l1.78-11,6.42,1-.3,1.85-4.67-.76-.39,2.43,4.35.7-.3,1.85-4.35-.7-.48,3,4.84.78-.3,1.85Z"/><path id="path15999" class="cls-2" d="M130.27,336l1.73-.07a3,3,0,0,0,.5,1.66,1.66,1.66,0,0,0,1.24.62,1.69,1.69,0,0,0,1.32-.35,1.51,1.51,0,0,0,.52-1,1.19,1.19,0,0,0-.13-.68,1.45,1.45,0,0,0-.6-.53q-.3-.16-1.37-.6a4.41,4.41,0,0,1-1.9-1.25,3.26,3.26,0,0,1-.63-2.29,3.41,3.41,0,0,1,.51-1.55,2.6,2.6,0,0,1,1.18-1,3.6,3.6,0,0,1,1.75-.25,3.2,3.2,0,0,1,2.4,1.11,3.65,3.65,0,0,1,.68,2.51l-1.77,0a2.11,2.11,0,0,0-.39-1.27,1.52,1.52,0,0,0-1.09-.46,1.72,1.72,0,0,0-1.24.3.89.89,0,0,0-.34.66,1,1,0,0,0,.21.69,4.12,4.12,0,0,0,1.56.87,7.43,7.43,0,0,1,1.84.95,2.81,2.81,0,0,1,.88,1.2,4,4,0,0,1,.21,1.79,3.94,3.94,0,0,1-.56,1.75,2.75,2.75,0,0,1-1.28,1.14,4,4,0,0,1-1.93.25,3.29,3.29,0,0,1-2.47-1.17A4.74,4.74,0,0,1,130.27,336Z"/><path id="path16001" class="cls-2" d="M138.93,340.15l.24-11.1,1.77,0-.24,11.1Z"/><path id="path16003" class="cls-2" d="M152.6,336.23l1.69-.39a3,3,0,0,0,.8,1.54,1.66,1.66,0,0,0,1.33.38,1.69,1.69,0,0,0,1.23-.59A1.51,1.51,0,0,0,158,336a1.19,1.19,0,0,0-.25-.65A1.45,1.45,0,0,0,157,335q-.32-.1-1.46-.33a4.41,4.41,0,0,1-2.1-.88,3.26,3.26,0,0,1-1-2.14,3.42,3.42,0,0,1,.21-1.62,2.59,2.59,0,0,1,1-1.23,3.58,3.58,0,0,1,1.67-.57,3.19,3.19,0,0,1,2.57.65,3.65,3.65,0,0,1,1.13,2.34l-1.75.29a2.11,2.11,0,0,0-.61-1.17,1.52,1.52,0,0,0-1.16-.25,1.72,1.72,0,0,0-1.16.53.89.89,0,0,0-.21.72,1,1,0,0,0,.33.64,4.11,4.11,0,0,0,1.7.57,7.41,7.41,0,0,1,2,.59,2.8,2.8,0,0,1,1.08,1,4,4,0,0,1,.54,1.72,3.93,3.93,0,0,1-.23,1.82,2.75,2.75,0,0,1-1,1.36,4,4,0,0,1-1.85.6,3.29,3.29,0,0,1-2.64-.7A4.75,4.75,0,0,1,152.6,336.23Z"/><path id="path16005" class="cls-2" d="M162,338.79l-1.91-10.93,6.4-1.12.32,1.85-4.66.82.42,2.42,4.34-.76.32,1.84-4.34.76.52,3,4.83-.85.32,1.84Z"/><path id="path16007" class="cls-2" d="M170.54,337.2l-2.63-10.69,1.72-.42,2.18,8.88,4.28-1.05.45,1.82Z"/><path id="path16009" class="cls-2" d="M185.76,332.81l-1.83.6-1.51-2.16-3.33,1.08.09,2.62-1.79.58-.19-11.61,1.78-.58Zm-4.46-3.17-2.42-3.54.15,4.28Z"/><path id="path16011" class="cls-2" d="M188,331.85l-3.45-8.55-2.41,1-.7-1.74,6.46-2.61.7,1.74-2.41,1,3.45,8.55Z"/><path id="path16013" class="cls-2" d="M199.86,326.44l-1.73.85-1.8-1.93-3.15,1.55.46,2.58-1.69.83-1.83-11.47,1.68-.83Zm-4.86-2.5-2.9-3.16.75,4.22Z"/><path id="path16015" class="cls-2" d="M201.29,325.61l-5.87-9.42,1.46-.91,7,4.4-3.92-6.29,1.4-.87,5.87,9.42-1.51.94-6.83-4.28,3.83,6.14Z"/></g><g id="g16017"><path id="path16019" d="M119.74,315.62s3.13-3.22,3.79-3.32,2.54,1.94,3.49,3.17,2.29,2.42,2,2.52a8,8,0,0,1-.95.19l-4.22-3.68s-1.9,1.52-2.28,1.71l-.38.19Z"/><path id="path16021" d="M128.37,313.44h2.37a3.56,3.56,0,0,1,2.09,1.8,16.24,16.24,0,0,0,1.61,2.75s-.47.47-.76.47-2.28-3.7-2.28-3.7h-1.52C129.13,314.76,128.37,313.44,128.37,313.44Z"/><path id="path16023" d="M133.87,313.91a1.9,1.9,0,0,1,1.23.57,25.05,25.05,0,0,1,1.71,2.18,29.1,29.1,0,0,1,2.75-2.28c.57-.28,2.18.66,2.18.66l1.9.1a2.5,2.5,0,0,1,1.8,1.23c.25.4,2.85,2.75,2.56,3a1.4,1.4,0,0,1-.85.28l-3.77-3.8-2-.1-1,.28-2.86,2.76s-.86-.09-1-.38S133.87,313.91,133.87,313.91Z"/><path id="path16025" d="M138.2,312.92a.2.2,0,0,1,0,.3l-.71.64a.26.26,0,0,1-.34,0l-.71-.64a.2.2,0,0,1,0-.3l.71-.64a.26.26,0,0,1,.34,0Z"/><path id="path16027" d="M156.46,319.83a.2.2,0,0,1,0,.3l-.71.64a.26.26,0,0,1-.34,0l-.71-.64a.2.2,0,0,1,0-.3l.71-.64a.26.26,0,0,1,.34,0Z"/><path id="path16029" d="M158.87,312.83a.2.2,0,0,1,0,.3l-.71.64a.26.26,0,0,1-.34,0l-.71-.64a.2.2,0,0,1,0-.3l.71-.64a.26.26,0,0,1,.34,0Z"/><path id="path16031" d="M146.5,316.14s1.89-2,3-1.66,2.74,2.54,3.16,2.5,1.43-.34,1.43-.67a6.6,6.6,0,0,0-1.1-2.44c-.52-.61-1.56-1.75-1.28-1.94a1.42,1.42,0,0,1,1.37,0c.33.28,2.74,4.4,2.74,5.2s-2.32,1.89-3.07,1.89-2.93-2.84-3.26-3-1.89.57-2,.66a2,2,0,0,1-.71,0Z"/><path id="path16033" d="M157,316.33s2.46-2.27,3.17-2.08,3.31,2.84,4,2.51a4.87,4.87,0,0,0,1.14-.8s.85,1.32.61,1.66-1,1.06-1.41,1.06a4.66,4.66,0,0,1-1.47-.71l-2-1.6a6.55,6.55,0,0,1-1.95,1.21C158.28,317.81,157,316.33,157,316.33Z"/><path id="path16035" d="M163.15,314.25a11.86,11.86,0,0,1,2.41-1.23c.8-.19,1.94.9,2.46,1.18a10.58,10.58,0,0,1,1.56,1.37s-.71.76-1.09.47-2.22-1.89-2.46-1.8a8.6,8.6,0,0,1-1.32.66A1.26,1.26,0,0,1,163.15,314.25Z"/></g><g id="g16037"><polygon id="polygon16039" class="cls-9" points="147.49 87.96 142.91 74.87 142.88 74.93 142.88 93.55 147.52 87.96 147.49 87.96"/><polygon id="polygon16041" class="cls-43" points="142.88 93.55 125 87.98 135.71 95.87 135.71 95.89 142.88 93.57 142.88 93.55"/><g id="g16043"><polygon id="polygon16045" class="cls-43" points="142.88 93.55 142.88 74.93 138.35 87.94 142.88 93.55 142.88 93.55"/><polygon id="polygon16047" class="cls-9" points="138.35 87.94 138.34 87.96 124.94 87.93 125 87.98 142.88 93.55 138.35 87.94"/></g><g id="g16049"><polygon id="polygon16051" class="cls-43" points="160.89 87.93 147.52 87.96 142.9 93.54 160.87 87.94 160.89 87.93"/><polygon id="polygon16053" class="cls-9" points="142.9 93.54 142.88 93.55 142.88 93.55 149.93 95.75 160.87 87.94 142.9 93.54"/></g><g id="g16055"><polygon id="polygon16057" class="cls-43" points="149.93 95.75 149.93 95.75 142.88 93.55 142.88 93.57 154.02 108.54 149.93 95.75"/><polygon id="polygon16059" class="cls-9" points="142.88 93.57 142.88 101.08 142.91 101.06 154.02 108.57 154.02 108.54 142.88 93.57"/></g><g id="g16061"><polygon id="polygon16063" class="cls-9" points="135.71 95.89 131.8 109.05 131.88 108.99 142.85 93.58 135.71 95.89"/><polygon id="polygon16065" class="cls-43" points="131.88 108.99 142.88 101.08 142.88 93.57 142.85 93.58 131.88 108.99"/></g></g><polygon id="polygon16067" class="cls-43" points="156.81 74.45 147.31 81.36 148.71 85.68 156.81 74.45"/><polyline id="polyline16069" class="cls-43" points="128.82 74.45 132.47 85.68 136.93 85.68"/><polygon id="polygon16071" class="cls-43" points="165.46 101.07 156.03 94.22 152.35 96.89 165.46 101.07"/><polygon id="polygon16073" class="cls-43" points="142.82 117.53 146.42 106.43 142.82 103.81 142.82 117.53"/><polygon id="polygon16075" class="cls-43" points="120.17 101.07 131.93 101.07 133.28 96.89 120.17 101.07"/><g id="g16077"><polygon id="polygon16079" class="cls-44" points="153.16 85.68 156.81 74.45 147.31 81.36 148.71 85.68 153.16 85.68"/><polygon id="polygon16081" class="cls-44" points="139.21 106.43 142.82 117.53 146.42 106.43 142.82 103.81 139.21 106.43"/><polygon id="polygon16083" class="cls-44" points="135.71 95.89 131.8 109.05 131.88 108.99 142.88 101.08 142.91 101.06 154.02 108.57 154.02 108.54 149.93 95.75 149.93 95.75 160.87 87.94 160.89 87.93 147.52 87.96 147.49 87.96 142.91 74.87 142.88 74.93 138.35 87.94 138.34 87.96 124.94 87.93 125 87.98 135.71 95.87 135.71 95.89"/><polygon id="polygon16085" class="cls-44" points="136.93 85.68 138.33 81.36 128.82 74.45 132.47 85.68 136.93 85.68"/><polygon id="polygon16087" class="cls-44" points="152.35 96.89 153.71 101.07 165.46 101.07 156.03 94.22 152.35 96.89"/><polygon id="polygon16089" class="cls-44" points="133.28 96.89 129.61 94.22 120.17 101.07 131.93 101.07 133.28 96.89"/></g></g></svg>