<svg id="Layer_1" data-name="Layer 1" xmlns="http://www.w3.org/2000/svg" viewBox="0 0 1080 406.02"><defs><style>.cls-1{fill:#fc8b01;}.cls-2{fill:#2a980b;}.cls-3{fill:#fc8b02;}.cls-4{fill:#33b810;}.cls-5{fill:#acf998;}.cls-6{fill:#fbf903;}.cls-7{fill:#fda804;}.cls-8{fill:#464646;}.cls-9{fill:#69d44c;}.cls-10{fill:#45c224;}.cls-11{fill:#fb9300;}.cls-12{fill:#319b14;}.cls-13{fill:#58ca3a;}.cls-14{fill:#fc900c;}.cls-15{fill:#fbe408;}.cls-16{fill:#fd8c01;}.cls-17{fill:#fbe008;}.cls-18{fill:#5d5d5d;}.cls-19{fill:#8fe777;}.cls-20{fill:#bdbdbd;}.cls-21{fill:#f68000;}.cls-22{fill:#fab008;}.cls-23{fill:#4ec72d;}.cls-24{fill:#fea715;}.cls-25{fill:#faa00a;}.cls-26{fill:#fa8a04;}.cls-27{fill:#52c433;}.cls-28{fill:#f67901;}.cls-29{fill:#d9d9d9;}.cls-30{fill:#597e50;}.cls-31{fill:#306f23;}.cls-32{fill:#5e5e5e;}.cls-33{fill:#fbddc0;}.cls-34{fill:#437637;}.cls-35{fill:#fe9d0e;}.cls-36{fill:#fa970b;}.cls-37{fill:#9d6d22;}.cls-38{fill:#e4e4e4;}</style></defs><title>PT. Liny Jaya Informatika</title><path class="cls-1" d="M627.32,214.57c0-9.52,0-19,0-28.55,0-3.09-.7-6.93,4.42-6.31,10.23,1.25,20.56-3.79,30.1-1.66,11.85,2.65,22.57,1.64,34.32,0,19.34-2.72,28.71,7.17,28.92,26.84.13,12.33-.38,24.69.17,37,.35,7.68-3.95,7.34-9.25,7.42s-8.68-.3-8.35-7.15c.53-10.9.16-21.84.13-32.77,0-7.84-1.16-16.4-10.67-16.42s-12,8.37-12.2,16.72c-.19,10.57-.47,21.17.1,31.71.38,7.09-2.85,8-8.77,8-5.71-.05-9.25-.44-8.85-7.78.62-11.24.23-22.55.13-33.82-.06-7.2-2-14.41-10.18-14.86-8.67-.47-12.07,6.79-12.49,14.22a337.18,337.18,0,0,0-.09,34.87c.37,7.8-4.16,7.14-9.35,7.32-5.4.19-8.62-.58-8.24-7.25C627.71,232.92,627.32,223.73,627.32,214.57Z"/><path class="cls-1" d="M926.33,194.22c10.39-11.8,21.35-18.1,37.46-13.41-1,1.22-1.81,2.21-2.67,3.11-15.17,16.13-15.18,16.13-4.75,36.05,3.92,7.48,7.66,15.06,11.92,22.34,3.48,5.94,1.25,6.66-4.5,7-8.28.56-13.92-1.38-17-9.88-2.4-6.55-6.21-12.6-9.63-18.75-1.42-2.55-1.84-7.39-5.65-6.38s-5.4,4.94-5.21,9.36c.28,6.33-.27,12.7.15,19,.5,7.47-4.44,6.33-9,6.5-5,.18-8.66.22-8.56-6.87.38-26.06.1-52.13.19-78.2,0-5.59,9-13,14.25-12.18,4.43.69,2.92,4.22,3,6.66C926.41,170.5,926.33,182.36,926.33,194.22Z"/><path class="cls-1" d="M362.57,214.36c0-9.15.22-18.31-.08-27.45-.17-5.09.87-8.32,6.79-7.23,9.87,1.82,19.28-2.5,29-2.12,13.72.53,22.3,7.46,23.25,21,1.06,15.06.57,30.24.65,45.37,0,8-6.15,4.68-10,5.22-4.18.58-7.52.11-7.35-5.78.34-11.6.13-23.22.08-34.84,0-8.2-2.68-14.86-11.85-15.93-7.39-.86-12.83,5.84-13.11,15.91-.29,10.55-.38,21.13,0,31.67.26,6.48-1.12,9.25-8.53,9.34-7.84.09-9.48-2.8-9-9.79C363,231.28,362.57,222.81,362.57,214.36Z"/><path class="cls-1" d="M822.17,217.84c0-6.35-.06-12.7,0-19.05,0-3.16-.46-5.91-4.42-5.51-5.47.55-6.31-2.22-6.33-6.92s1-6.79,6.34-6.9c8-.17,4.51-7.15,4.07-10.42-1.26-9.28,3.44-13.33,11-16.3,4.35-1.71,6.79-1.46,6.65,3.94-.09,3.53.31,7.09-.06,10.58-.94,8.64.62,14.51,11.41,12.46,5.35-1,5.32,2.81,5.26,6.58s.25,7.73-5.15,6.79c-10.82-1.88-12.2,4-11.57,12.68.56,7.72-.05,15.52.24,23.27.17,4.62,1.63,8.38,7.77,7.1,2.82-.59,7.26-5.35,8.34.61.91,5,1.19,11.17-6.72,13.35-17.51,4.84-26.73-1.59-26.83-19.58C822.15,226.31,822.17,222.08,822.17,217.84Z"/><path class="cls-1" d="M447.29,221.37c0-6.7-.09-13.4,0-20.1.08-4.44.43-8.57-6.17-8.24-4.95.24-4-3.9-4-6.9-.1-3.18-.48-6.93,4.46-6.39,6,.66,5.65-3.11,5.79-7.23.57-17.33,8.5-23.25,25-19.82,7,1.45,8.05,5.4,7.55,11.32-.65,7.71-5.35,3.09-8.37,2.74-5.44-.62-6.59,2.39-6.95,6.86s1.37,6.23,6,6.16c4-.06,9.31-2.2,9.53,5.77.21,7.39-3.45,8.21-9.08,7.67-5.23-.49-6.54,2.24-6.47,7,.21,13.75-.31,27.52.22,41.25.28,7.21-3.1,7.83-8.88,7.86s-9.39-.69-8.72-7.89C447.77,234.82,447.29,228.07,447.29,221.37Z"/><path class="cls-2" d="M263.63,265.72c18.45-7.14,18.45-7.14,18.45-27.27,0-17.28.48-34.59-.21-51.84-.33-8.32,4.5-7.18,9.28-6.88,4.57.29,10.81-2.81,10.54,6.72-.6,21.15-.25,42.32-.34,63.48,0,10.29-4.13,18.29-13.23,23.64C274.15,281.79,271,280.84,263.63,265.72Z"/><path class="cls-2" d="M261.28,199.73c0,13.71-.55,27.45.2,41.12.48,8.76-4.13,8.51-10.27,8.44-5.7-.07-9.77.27-9.59-8,.58-25.65.18-51.33.24-77,0-5.37,11.71-14.94,16.77-13.77,4.1.95,2.54,4.5,2.57,7C261.36,171.6,261.28,185.66,261.28,199.73Z"/><path class="cls-3" d="M570.13,213.62c0-2.11-.12-4.23,0-6.34.61-9-4.06-22.47,1.84-26.08,8.18-5,20.78-3.44,31.49-3.44,9.89,0,12.08,4.16,9.63,13.65-1,3.86-1.83,5.07-6.27,3.81-12.37-3.51-18.51.91-19.22,14a312.11,312.11,0,0,0,0,32.73c.39,7.72-4,7.28-9.28,7.38s-8.71-.34-8.32-7.16C570.54,232.66,570.13,223.13,570.13,213.62Z"/><path class="cls-1" d="M339.64,201.33c0,13.38-.38,26.78.15,40.14.29,7.16-3,7.88-8.84,7.88s-8.92-.59-8.8-7.82q.65-40.13,0-80.28c-.1-6.82,3-7.4,8.23-7.06,4.78.31,9.84-1.29,9.43,7C339.15,174.54,339.63,187.95,339.64,201.33Z"/><path class="cls-1" d="M888.2,214.22c0,9.5-.33,19,.1,28.5.34,7.42-4.39,6.38-9,6.52-4.9.14-8.76.33-8.59-6.82q.66-28,0-55.94c-.18-7.06,3.41-7,8.4-6.88s9.84-.84,9.23,7.19C887.67,195.88,888.2,205.07,888.2,214.22Z"/><path class="cls-4" d="M182.86,177.12l32.86,32.15a49.33,49.33,0,0,1-22.14.06c-8-10.54-21.34-15.61-28.08-27.44C172.65,171.13,172.65,171.13,182.86,177.12Z"/><path class="cls-5" d="M129.63,124.58C138.25,128.41,140,138,146,144.12a133.23,133.23,0,0,0,22,18.43c-5,1.8-9.05,5.3-13.71,7.72a9.54,9.54,0,0,1-4.25-1.19c-9.56-7-16.63-16.45-24.67-24.94-1.26-1.93-1.83-4.52-.12-5.81C130.09,134.66,128.63,129.29,129.63,124.58Z"/><path class="cls-6" d="M116.69,266.83l-29.26-28c.32-9.17,5.42-12.21,14-8.36,7.57,4.88,13.66,11.39,19.68,18C127.05,256.36,122.95,261.86,116.69,266.83Z"/><path class="cls-7" d="M153.41,277.73l-7.85,7.84c-3.18.19-5.37,4.85-9.21,2l-9.07-10.2c1.08-6.28.92-13.66,10.77-12.2,7.42-3.26,13.07-8.81,18.91-14.2,2.58-2.38,4.12-6.81,9-5.8,2.44,5.24-2.1,8.23-3.88,12.14C159,264,151.68,269,153.41,277.73Z"/><path class="cls-8" d="M127.4,232.59c-1.5.74-3.08,2.24-4.47,2.08-3-.34-24.06-21.82-25.74-25.62,3.62-3.72,7.46-7.22,10.86-11.15a5.64,5.64,0,0,1,3.79-3.74c4.13-3,6.68-7.81,11.46-10.09l.08-.08c4.72-2,6.24-8.64,12.41-8.51,3.38,2.8.85,4.43-1.1,6.44-6.74,7-13.36,14-20,21-.24,2.47-2.07,4-3.44,5.76-2,7.44,4.95,6.9,8.38,9.48a8.65,8.65,0,0,1,3.09,3C123.9,225.13,128.71,227.61,127.4,232.59Z"/><path class="cls-9" d="M129.63,124.58c6.64,8.3-3.64,12.87-4.3,19.57-6.2-5.07-11.35-4.16-16.37,2.09-3.62,4.51-8.13,8.32-12.25,12.44-8.76,1.39-6.06-3.3-3-6.56,7.22-7.7,14.33-15.49,21-23.67,1.61-2,5-3.31,3.16-6.86-6,1.37-8,7.76-13.06,10.16a7,7,0,0,1-2.93.5,4,4,0,0,1-2.44-1.59c2.08-2.3,4-4.72,6.25-6.87C118.18,111.62,118.2,111.64,129.63,124.58Z"/><path class="cls-10" d="M102.05,131q1-.18,2.09-.29c3.17,5.66-1.61,8.42-4.57,11.45-9.83,10.09-18.84,20.89-27.88,31.65a13.38,13.38,0,0,1-3.51,3.9c-4.59,2.79-1.94,4.58.69,6.47-3.28,2.65-6.74,4.76-11.24,3.61-5-2.27-10.77,1.11-15.65-2.1l2.25-2.07c4.3-1.23,6.82-4.76,9.68-7.74C69.16,160.06,85.36,145.28,102.05,131Z"/><path class="cls-11" d="M153.41,277.73c-4.07-2.35-5.26-4.58-1.84-9.13,5.43-7.22,10.66-14.73,14-23.26,2.46-8.51,9-12.73,16.59-15.9,5.76,2.62,1.37,5.55.11,8.19-3.69,7.76-10.52,13.82-12.21,22.66Z"/><path class="cls-12" d="M291.37,170.88c-6.27-.3-10.81-3.39-10.87-10.06-.06-7.23,4.67-10.62,11.68-10.41,6.61.19,10.75,3.81,10.55,10.47S298.16,170.71,291.37,170.88Z"/><path class="cls-13" d="M119,118.21c6.1,3.22,3.17,6.23,0,9.61-7.84,8.33-15.52,16.81-23.2,25.29-1.88,2.08-6.09,4.8.89,5.58-4.45,6.64-12.5,9-17.69,14.71-2.17,1.58-3.92,1.12-5.28-1.11,1.73-9,9.89-13.16,15.17-19.27C98.93,141.42,107.77,128.74,119,118.21Z"/><path class="cls-14" d="M878.27,170.9c-5.64-.45-9.67-3.28-9.43-9.83s4.39-9.1,10.62-9c6.4.11,10.19,3.31,10,9.66S884.9,170.83,878.27,170.9Z"/><path class="cls-15" d="M101.44,230.48c-7.54-2-11.21,2.45-14,8.36-5.21-1.36-7.5-6.06-10.87-9.52-2.46-7,3.07-12.08,4.51-18.14C88.69,216.72,96,222.58,101.44,230.48Z"/><path class="cls-16" d="M170.11,260.29c-4.37-3.31-1-5.83.64-8.85,3.76-7.08,9.94-12.79,11.76-20.94,2-6.23,5.07-11.11,12.6-10.89,3.93,4.47,1.6,8.38-1.09,12.29-2.54,3.69-6.4,6.59-6.88,11.5A113,113,0,0,1,170.11,260.29Z"/><path class="cls-17" d="M138.15,266.52c-8-.75-6.59,7.9-10.87,10.86a43.2,43.2,0,0,1-10.59-10.55c2.61-5.86,7-11.28,4.43-18.39a62.86,62.86,0,0,1,16.92,16q1.1.63.79,1.35C138.61,266.28,138.38,266.52,138.15,266.52Z"/><path class="cls-18" d="M121.47,222.6l-2.74-2.84c-2.44-3.47-7.48-5.37-6.56-10.87,5.24-5.29,8.4-.27,11.09,2.82,5.79,6.65,10.72,6.56,16.05-.35,3.5-4.54,9-6.77,11.2-13.31,1.59-4.8,7.32-3.79,10.6.9l-27.28,27.32C128.55,229,125.31,224.75,121.47,222.6Z"/><path class="cls-19" d="M154.89,169.76c2.5-5.78,6.33-9.12,13.07-7.21,5.44,4.37,11.07,8.55,14.9,14.56-7.57-4.9-12,1.49-17.36,4.77l.06.1C161.75,178.13,156.2,175.8,154.89,169.76Z"/><path class="cls-20" d="M161.11,199c-4.66-2.54-7.58-5.64-10.54,3.4-2.17,6.62-10.65,11.75-17.25,16.13-3.73,2.48-7.2-2.34-10.48-4.72-2.94-2.14-4.45-8.17-10-4.24a3.11,3.11,0,0,1-2.6-2.55c1.06-1.82,2.28-3.44,4.46-4,2.28-.16,3.91,1,5.63,2.37,4,3.19,7.5,11,11.73,9.15a33.5,33.5,0,0,0,16.56-16.71c.72-1.58-.37-5.13,3.1-3.61C154.9,195.55,161.16,191.29,161.11,199Z"/><path class="cls-21" d="M187.14,243.39c-4.37-5.39.65-8.34,3.47-11.19,3.53-3.58,5.23-7.35,4.63-12.25l1.44-.94c4.54.09,9.12-.87,13.59.64C206.51,231.41,196.8,237.38,187.14,243.39Z"/><path class="cls-22" d="M81.06,211.17c3.34,7.25-4,11.84-4.51,18.14l-10.79-10.7c-2.37-6.88,4.07-11.5,4.52-17.65A33.6,33.6,0,0,1,81.06,211.17Z"/><path class="cls-23" d="M102.05,131c-17.61,17.14-35.19,34.3-52.91,51.33-1.06,1-3.25.88-4.91,1.28,17.68-18.4,36.27-35.85,55.2-52.95Z"/><path class="cls-24" d="M138.15,266.52q-.1-1-.11-2.08c17-12.29,30.78-28.11,46.66-41.61,3-2.59,5.32-6.89,10.51-5.19q1.07.72.72,1.46t-.69.74v.1c-6.38.94-9.26,6.1-12.73,10.54-7.24,3.12-12.42,8.58-16.89,14.85C155.86,251.62,150.28,263.32,138.15,266.52Z"/><path class="cls-25" d="M70.28,201c4.68,7.47-4.14,11.48-4.52,17.65l-4.29-4.27c-1.71-3.43.44-6.29,1.34-9.32.48-4-2.12-5.38-5.42-6.09-2.17-1.07-5.53-1.35-3.52-5.22,3.38-.25,6.77-.69,10.09.38Z"/><path class="cls-26" d="M59.69,196.62c5.51.28,6.52,3.93,6.33,8.47-1.82,2.78-5.27,4-6.73,7.14l-6.16-6.16C50.23,199.4,56.43,199,59.69,196.62Z"/><path class="cls-27" d="M74.5,171.2c1,1.82,2.71,2.09,4.52,2.2-2.69,4.25-5.46,8.41-10.14,10.79L61,183.55c1.85-5,5.41-7.74,9.26-10.25C71.46,172.16,72.06,169.84,74.5,171.2Z"/><path class="cls-28" d="M59.69,196.62c-1.25,3.8-7.08,4.42-6.56,9.46-4-3.23-8.53-6-10.26-11.36a10.17,10.17,0,0,1,10.53,0C55,197,57.45,196.48,59.69,196.62Z"/><path class="cls-29" d="M121.47,222.6c5-1.73,7.48,5,12.36,3.67l-6.43,6.31C127,228.31,121.08,227.34,121.47,222.6Z"/><path class="cls-30" d="M154.89,169.76c2.83,4.71,8.8,6.67,10.67,12.22-7.21-1.86-10.69-8.21-15.55-12.9Z"/><path class="cls-31" d="M193.58,209.33l22.14-.06C208.35,212.78,201,213,193.58,209.33Z"/><path class="cls-32" d="M135.8,175.48c-4.68,2-6.54,8.21-12.41,8.51,1.83-4.84,6.16-7.51,9.74-10.71C135.14,171.49,136,173.38,135.8,175.48Z"/><path class="cls-33" d="M53.41,194.73H42.87c6.91-4.35,14-3.27,21.09-.63Z"/><path class="cls-32" d="M108.05,197.9c-1.68,5.6-5.66,9-10.86,11.15C99,203.59,103.33,200.54,108.05,197.9Z"/><path class="cls-32" d="M123.3,184.07c-3,4.35-5.85,8.77-11.46,10.09C114.82,189.85,117.73,185.45,123.3,184.07Z"/><path class="cls-34" d="M42,185.69c5.15,1.18,10.84-1.63,15.65,2.1-5.4.21-10.84,1.28-16.17-.54-.1,0-.13-.51-.05-.72A4.39,4.39,0,0,1,42,185.69Z"/><path class="cls-35" d="M195.24,219.85q0-1.1,0-2.2c5.1.08,10.61-3,15.05,2Z"/><path class="cls-36" d="M59.3,212.23c.28-4.24,3.53-5.66,6.73-7.14l-4.56,9.25Z"/><path class="cls-37" d="M136.35,287.58l9.21-2C142.61,286.77,141.49,296.36,136.35,287.58Z"/><path class="cls-3" d="M798.87,206.73c-.06-22.23-7.93-30-30.08-29.08a65.61,65.61,0,0,0-15.5,2.73c-5.39,1.57-10.64,3.24-7.23,11.54,3.49,8.53,7.68,4.07,12.28,2.11,13.46-5.72,21.23-2.27,23.12,10.24-3.91,1.62-7.5-1.14-11.27-.87-4.19.29-8.46.35-12.54,1.25-12.55,2.78-18.89,11.62-18.06,24.58.83,12.79,8.42,20.18,21.83,21.06,10.69.7,21.2-3.15,32-1.17,5.09.94,5.53-2.55,5.5-6.5C798.81,230.66,798.9,218.7,798.87,206.73ZM768.43,236.5c-6,.84-11.65-2.43-11.62-9.24,0-7.5,6.17-9.32,13.17-9.92,4.13,1.71,11.65-1.21,11.94,7.62C782.21,234.22,774.74,235.62,768.43,236.5Z"/><path class="cls-3" d="M1038.35,237.56c-.77-5.16-.14-10.54-.14-15.81q0-6.86,0-13.72c0-24.25-8.79-32.41-33-30.25-4.84.43-9.6,2-14.34,3.21-6.55,1.7-7.84,5.35-5.12,11.68,3,6.91,6.53,4,10.76,1.92,6.15-3,12.65-4.64,19.2-1.3,3.74,1.91,6.16,5.74,5.11,9.58-1.29,4.72-5.21.73-7.92.89-3.48.21-7-.56-10.5-.19-16,1.69-24.3,10.81-23.47,25.42.81,14.22,9.5,21.15,25.82,21.51,7.23.16,13.92-3.42,21.47-1.51C1035.21,251.28,1039.88,247.73,1038.35,237.56Zm-17.11-11.79c-.58,8.93-8.09,9.15-13.81,11.14-6.08-.94-11.38-3.11-11.28-9.44.13-8.15,6.6-10.29,13.37-9.86C1014.63,217.94,1021.81,216.9,1021.24,225.78Z"/><path class="cls-3" d="M518,177.54c-21.11.14-32.52,13-32.62,36.72s12,37.27,33.5,37c21-.22,32.58-13.34,32.53-36.87C551.39,190.18,539.82,177.4,518,177.54Zm13.76,48.25c-2.29,6.1-7,10.38-13.44,10.32s-11.1-4.35-13.29-10.51c-2-5.68-3-11.46-1.48-17.64,2.08-8.21,5.94-15.27,15-15.21s13,7.35,15,15.42a64.78,64.78,0,0,1,.81,7.49A82,82,0,0,1,531.79,225.79Z"/><path class="cls-38" d="M110.22,207l2.6,2.55c-.19,4.66,7,5.05,5.91,10.25a17.84,17.84,0,0,1-10.12-6C106.32,211.1,103.89,207.87,110.22,207Z"/><path class="cls-23" d="M74.5,171.2l-4.23,2.11c6.51-12,17-20.79,25.67-31,3.08-3.6,8.09-5.87,8.2-11.58,4.56-4.65,7.27-11.5,14.88-12.53-4,9.87-12.65,16.19-19.08,24.17C91.9,152.35,83,161.62,74.5,171.2Z"/></svg>